<?xml version="1.0"?>
<svg xmlns="http://www.w3.org/2000/svg" version="1.2" baseProfile="tiny" width="800" height="2423" viewBox="0 0 800 2423" stroke-linecap="round" stroke-linejoin="round">
<g id="congress" fill="none" stroke="black" stroke-width="1">
<path d="M 1 1727.72 2.74 1723.7 4.48 1719.66 8.63 1710.04 12.78 1700.42 16.14 1692.62 20.64 1682.72 23.27 1676.95 23.35 1676.77 26.08 1672.13 29.05 1667.09 30.61 1663.67 35.97 1652.07 41.81 1639.15 46.34 1629.19 60.29 1598.6 70.74 1575.69 80.2 1554.94 86.3 1541.59 141.82 1419.78 142.48 1418.34 142.63 1418.01 154.04 1392.93 161.77 1376.58 220.51 1252.44 223.07 1233.94 227.71 1200.46 231.42 1173.66 234.7 1149.98 240.05 1111.34 241.32 1102.14 244.12 1081.86 250.92 1032.68 251.25 1030.28 255.73 997.89 258.77 981.75 258.99 980.35 259.36 977.88 262.61 956.71 262.71 956.16 265.39 941.73 265.81 939.52 268.41 925.49 273.26 899.36 276.92 879.62 280.46 860.6 285.95 830.92 287.43 823.02 289.08 814.14 295.02 782.15 295.97 777.05 297.91 766.58 306.92 720.92 308.53 712.81 322.35 642.91 325.66 636.26 333.62 620.27 341.01 605.44 344 599.42 354.38 578.55 354.81 577.68 357.08 573.12 359.82 567.62 367.27 554.22 386.95 518.71 393.23 507.39 399.38 496.21 423.37 452.53 423.83 451.63 432.86 433.74 438.04 423.48 438.04 421.79 446.25 406.31 452.82 393.9 455.96 387.98 468.77 365.44 469.63 363.94 477.29 350.45 484.81 337.18 492.62 323.42 499.95 309.43 502.93 303.96 505.51 299.22 516.46 279.06 531.4 251.54 546.61 223.52 557.79 202.91 557.47 202.73 557.74 202.25 561.67 195.4 577.11 168.42 592.85 140.91 598.5 131.01 607.67 115.02 621.84 90.24 639.27 59.77 666.23 7.92 669.83 1 708.28 20.97 716.69 25.77 719.8 27.84 722.29 29.57 722.58 29.77 723.15 30.2 729.48 34.94 735.94 40.14 743.35 44.14 751.46 48.69 774.58 61.61 784.21 67.52 782.95 74.8 779.92 82.69 777.22 89.34 773.48 96.16 765.75 110.13 761.92 117.52 759.9 125.36 757.91 133.05 751.73 156.64 729.05 144.02 725.47 150.47 721.73 157.27 718.02 164.05 713.98 171.31 709.95 178.58 706.23 185.34 702.5 192.12 698.8 198.93 695.02 205.6 691.46 212.14 702.44 218.18 703.3 218.66 714.66 224.91 725.45 232.11 737.42 238.39 730.27 251.2 729.52 252.62 726.49 258.2 739.65 266.03 741.18 266.69 743.7 267.94 745.91 269.22 747.61 270.32 749.7 271.79 751.83 273.51 753.73 275.21 754.99 276.41 756.56 277.67 758.31 278.86 759.99 279.82 761.75 280.65 763.81 281.41 765.42 281.87 767.2 282.24 768.7 282.68 770.52 283.33 772.52 284.18 774.69 285.3 781.74 289.27 786.98 292.19 799 298.86 796.94 302.5 794.9 306.07 790.96 313.5 787.24 320.19 783.58 326.84 779.77 333.72 776.02 340.45 772.25 347.12 768.62 353.91 764.83 360.73 761.15 367.41 757.12 374.73 753.02 382.07 749.42 388.62 745.53 395.69 741.75 402.54 737.96 409.36 734.76 415.18 734.19 416.21 730.13 423.55 726.06 430.91 722.32 437.72 718.57 444.52 714.8 451.38 711.02 458.21 707.25 465.01 703.16 472.32 699.13 479.69 695.38 486.45 691.74 493.23 687.97 499.86 684.21 506.63 680.47 513.36 676.75 520.04 673.11 526.82 669.35 533.57 665.61 540.28 661.94 547 658.24 553.67 654.48 560.33 649.42 557.2 628.25 545.32 605.1 532.4 586.48 522.06 585.94 522.82 585.27 523.49 584.56 523.97 584.26 524.12 583.62 524.36 582.76 524.5 581.96 524.47 581.2 524.31 580.47 524 580.04 523.74 578.18 526.76 574.14 534.13 570.14 541.34 566.44 548.08 562.68 554.81 559.01 561.5 555.28 568.25 551.57 575 547.85 581.72 544.12 588.5 541.73 592.85 540.42 595.19 536.68 602 532.99 608.6 529.21 615.35 525.54 622.13 521.83 628.87 544.96 641.74 540.96 648.99 536.91 656.12 533.28 662.82 529.67 669.49 525.99 676.08 522.27 682.77 499.17 669.91 495.51 676.54 518.6 689.38 515.01 696.06 511.03 703.23 507.06 710.47 483.94 697.53 480.84 703.16 476.64 710.75 472.94 717.44 469.27 724.09 465.63 730.68 461.95 737.31 458.27 743.96 454.58 750.67 450.86 757.43 446.97 764.51 443.01 771.65 439.35 778.32 435.88 784.6 432.4 790.9 428.91 797.19 425.44 803.5 421.97 809.82 418.19 816.66 414.09 824.09 437.21 837 440.99 839.08 460.38 849.8 486.64 864.38 482.56 871.82 478.75 878.72 474.97 885.57 471.39 891.99 467.93 898.34 464.37 904.7 462.02 908.99 474.4 915.95 470.79 921.26 476.82 925.18 483 929.18 479.06 935.33 474.88 941.74 470.54 948.36 461.86 961.94 468.5 966.29 474.88 970.47 468.48 980.46 464.77 986.33 468.19 989.11 472.51 992.67 469.63 1000.26 465.04 1015.46 462.54 1023.83 460.51 1030.72 460.42 1031.01 456.24 1028.86 450.5 1040.94 446.66 1038.74 440.88 1048.12 439.34 1050.63 435 1057.76 432.41 1062.03 427.98 1069.44 420.93 1082.18 417.41 1088.47 415.49 1093.45 414.05 1098.18 408.59 1102.54 409.26 1100.05 405.29 1104.74 401.57 1110.23 398.05 1114.77 396.67 1116.63 394.56 1119.61 390.99 1120.8 394.79 1122.77 404.81 1127.94 403.86 1130.24 402.41 1133.78 404.17 1134.01 404.87 1132.91 404.84 1134.11 408.14 1135.2 421.42 1148.64 428.32 1155.54 433.26 1161.46 435.55 1160.11 438.35 1162.31 442.24 1166.05 449.79 1175.54 477.2 1205.76 478.24 1206.95 472.46 1214.59 471.11 1216.38 470.27 1220.32 470.02 1220.75 465.34 1219.2 456.43 1216.39 456.26 1216.67 438.39 1244.75 452.45 1249.22 453.86 1249.71 451.5 1255.89 449.32 1255.27 432.99 1250.91 429.17 1258.09 446.13 1263.4 447.6 1263.92 444.51 1271.28 441.34 1270.17 423.05 1264.45 423.02 1264.51 418.88 1271.7 437.56 1279.12 441.26 1280.64 440.78 1282.03 439.01 1285.72 437.83 1288.19 437.55 1289.03 433.78 1287.31 418.09 1279.65 416.79 1282.81 431.77 1291.32 435.36 1293.32 435.08 1293.86 431.19 1305.17 427.58 1303.41 411.15 1295.77 409.31 1299.38 406.13 1305.61 422.84 1313 429.55 1315.95 429.03 1319.67 423.03 1324.27 419.06 1322.54 402.03 1314.78 398.68 1322.62 416.02 1330.77 419.32 1332.23 418.04 1335.59 415.7 1341.77 412.4 1340.26 395.45 1332.16 392.64 1338.35 410.01 1345.79 413.19 1347.36 413.08 1347.59 410.79 1354.7 407.22 1353.11 389.97 1345.14 386.98 1352.37 394.25 1355.41 404.58 1359.72 407.59 1361.14 407.39 1361.54 402.7 1368.76 401.03 1367.98 399.44 1367.22 385.81 1361.4 382.14 1369.72 391.27 1373.34 394.98 1375.02 394.34 1375.52 387.34 1382.71 383.59 1381.03 370.11 1375.56 366.1 1384.47 374.42 1387.49 378 1388.85 376.27 1389.97 374.69 1390.75 374.28 1390.94 372.43 1391.84 369.48 1393.84 368.51 1395.2 371.63 1401.41 389.86 1403.45 395.1 1405.38 392.45 1412.58 389.85 1419.8 387.23 1426.99 384.17 1426.07 381.55 1426.37 380.73 1427.07 379.87 1427.54 378.95 1427.07 377.53 1426.21 373.04 1426.12 365.89 1434.98 356.9 1447.52 359.69 1450.2 349.5 1461.64 339.32 1473.09 334.44 1469.16 321.54 1457.67 317.31 1463.77 312.2 1469.27 307.1 1475 302.02 1480.73 314.26 1491.73 309.17 1497.44 304.06 1503.19 314.04 1512.13 308.98 1517.84 321.77 1529.35 333.38 1539.76 344.98 1549.75 360.28 1554.8 361.45 1552.55 364.35 1545.07 366.69 1538.26 380.46 1543.58 393.26 1548.29 408.23 1553.79 411.08 1545.91 413.39 1539.51 429.79 1545.57 439.96 1549.28 442.17 1549.98 443.13 1550.29 445.56 1555.37 448.72 1561.3 450.95 1566.96 455.1 1570.03 455.74 1570.24 468.08 1578.06 487.34 1590.32 483.23 1596.79 463.98 1584.52 460.6 1582.36 458.33 1581.56 463.23 1587.65 467.98 1595.62 475.25 1611.13 475.24 1614.08 473.59 1615.83 468.9 1621.85 467.01 1624.2 464.02 1627.88 458.86 1633.46 454.4 1639.65 449.33 1645.5 444.61 1651.52 440 1657.66 435.35 1663.74 450.82 1676.02 446.06 1682.03 430.7 1669.82 427.43 1677.07 422.56 1682.85 418.21 1689.18 416.31 1687.29 414.57 1685.54 396.72 1670.88 391.45 1677.74 387.33 1683.08 383.61 1687.87 382.08 1689.76 377.28 1695.8 372.57 1701.81 367.88 1707.75 363.03 1713.7 358.22 1720.05 355.87 1723.02 349.16 1731.82 330.87 1717.33 326.73 1723.55 321.44 1729.78 316.77 1735.75 312.05 1741.63 307.3 1747.87 293.04 1765.82 288.28 1771.89 283.49 1777.95 278.74 1784 274.03 1789.96 269.3 1795.97 264.56 1801.97 259.81 1807.99 255.09 1814.01 250.35 1820.01 245.6 1826.02 240.46 1832.29 258.69 1846.47 254.06 1852.35 249.15 1858.59 244.24 1864.82 239.48 1870.86 234.66 1876.94 230 1882.85 225.07 1889.06 234.17 1895.27 242.86 1902.39 260.63 1917.66 262.74 1915.37 265.4 1911.07 270.16 1905.02 274.9 1899.02 293.28 1913.65 311.25 1927.9 329.2 1942.15 333.91 1936.17 351.87 1950.46 349.41 1953.54 348.11 1955.19 347.13 1956.42 342.37 1962.45 360.34 1976.74 371.59 1985.69 378.26 1991.02 373.52 1997.01 368.42 2003.47 386.36 2017.75 391.48 2011.28 396.2 2005.29 400.94 1999.28 402.5 1997.3 403.49 1996.05 405.69 1993.28 410.6 1987.06 415.51 1980.82 397.58 1966.54 402.14 1960.36 401.18 1959.61 407.04 1954.48 412.86 1949.31 418.7 1944.18 424.54 1939.02 430.36 1933.89 436.21 1928.73 430.81 1924.43 412.87 1910.15 417.61 1904.16 422.35 1898.15 427.1 1892.12 431.86 1886.12 436.62 1880.09 441.35 1874.09 446.09 1868.09 450.84 1862.05 453.1 1859.23 455.61 1856.05 473.51 1870.34 478.31 1864.28 481.4 1860.4 482.89 1858.23 487.71 1852.25 506.22 1867 523.63 1880.85 528.38 1874.84 533.13 1868.82 537.9 1862.82 542.74 1857.47 536.48 1852.41 529.55 1846.86 554.53 1833.91 572.54 1824.71 578.75 1821.47 582.87 1819.31 586.86 1817.25 594.61 1813.23 595.2 1817.49 604.76 1816.09 612.31 1815.03 615.71 1838.48 623.25 1837.41 630.82 1836.32 639.72 1835.03 641.1 1844.24 642.8 1843.2 644.86 1842.08 653.78 1837.31 662.05 1832.89 664.83 1831.41 672.19 1827.36 672.73 1830.23 674.59 1838.75 676.46 1847.12 678.32 1855.62 679.98 1863.3 681.6 1870.54 683.24 1877.69 683.94 1880.99 687.89 1898.45 688.89 1903.83 689.45 1906.38 693.51 1924.86 695.02 1931.79 684.25 1933.35 676.67 1934.41 680.11 1958.17 671.9 1963.26 663.53 1968.52 661.44 1969.78 659.33 1971.07 656.16 1973.07 653 1975.06 643.85 1980.74 636.91 1985.06 629.76 1989.49 622.25 1994.2 620.67 1995.17 622.02 2004.58 623.24 2012.97 624.49 2020.86 625.45 2029.23 625.97 2032.24 626.49 2035.31 628.25 2046.38 633.13 2045.75 637.68 2044.9 645.24 2043.82 652.81 2042.71 660.32 2041.49 671.53 2040.01 672.03 2043.87 675.18 2065.64 686.39 2064.02 690.08 2089.68 698.82 2088.42 706.37 2087.31 713.92 2086.23 722.05 2085.06 725.74 2110.7 728.82 2131.99 729.46 2136.4 729.92 2139.48 731 2147.13 731.47 2150.89 733.13 2162 737.21 2190.48 741.12 2218 733.05 2219.15 725.51 2220.24 717.95 2221.35 709.2 2222.62 698.04 2224.24 686.85 2225.85 679.28 2226.97 671.74 2228.04 663.46 2229.27 654.65 2230.57 657.94 2253.57 659.5 2264.51 661.3 2280.14 654.19 2279.21 653.01 2279.03 646.68 2278.12 644.79 2277.8 639.17 2276.95 636.95 2276.65 629.07 2275.41 621.15 2273.9 613.21 2272.38 615.27 2286.67 618.85 2311.6 622.54 2337.28 614.41 2338.43 606.3 2339.6 602.85 2340.12 606.31 2364.33 602.2 2364.94 594.66 2366.01 587.12 2367.12 579.56 2368.21 571.99 2369.3 567.25 2369.99 564.47 2370.4 556.34 2371.6 556.72 2374.37 548.54 2384.74 532.5 2405.05 519.19 2421.9 513.14 2417.08 507.09 2412.26 501.26 2407.63 495.21 2402.81 489.08 2397.93 483.35 2393.33 481.84 2394.53 481.16 2393.61 476.68 2389.19 472.86 2384.93 471.31 2383.15 466.28 2377.55 461.14 2371.9 473.54 2356.34 488.71 2337.07 503.08 2318.92 508.19 2312.44 512.93 2306.45 517.67 2300.44 522.43 2294.41 504.25 2279.99 508.99 2273.97 513.74 2267.97 518.44 2261.97 500.29 2247.51 482.4 2233.26 464.47 2218.98 448.38 2206.21 443.73 2212.29 439.09 2218.38 434.47 2224.44 429.3 2230.08 427.02 2232.47 419.54 2227.11 412.93 2222.46 406.74 2218.18 385.65 2203.63 366.99 2190.29 371.72 2184.28 376.46 2178.3 381.2 2172.28 385.93 2166.29 390.67 2160.29 408.6 2174.55 413.34 2168.55 395.43 2154.28 400.15 2148.28 404.89 2142.28 410 2135.8 415.1 2129.34 419.83 2123.34 424.57 2117.34 429.3 2111.34 411.36 2097.08 416.1 2091.05 420.84 2085.07 424.85 2080.01 406.48 2066.27 388.57 2051.98 370.82 2037.44 353.06 2022.92 353.83 2021.95 341.54 2012.19 335.89 2007.67 317.95 1993.41 313.23 1999.4 303.9 1992.1 300.56 1989.27 298.62 1987.58 296.5 1985.78 284.35 1978.54 283.68 1978.14 273.86 1972.22 263.46 1965.95 261.79 1964.95 245.31 1955 243.05 1953.64 222.51 1941.56 207.45 1935.46 201.17 1932.92 204.26 1923.02 188.9 1916.75 182.98 1914.32 177.13 1911.92 161.71 1905.62 154.54 1902.76 144.71 1898.38 141.7 1908.5 135.22 1913.3 131.01 1911.87 135.45 1905.06 143.16 1888.26 136.43 1881.26 140.48 1875.46 155.8 1857.03 159.74 1853.09 1 1727.72 M 51.79 1356.98 49.42 1353.43 50.66 1353.01 50.9 1352.78 50.78 1351.9 50.25 1351.48 50.02 1351.07 49.84 1349.7 49.72 1348.1 50.37 1346.87 50.96 1346.57 52.6 1346.75 55.27 1346.51 57.73 1346.39 59.32 1346.1 61.03 1347 65.62 1349.18 69.28 1351.01 71.86 1352.56 73.91 1353.86 75.79 1355.52 76.75 1356.42 76.86 1356.53 78.04 1357.94 78.92 1359.53 79.8 1361.79 80.09 1363.26 80.15 1366.64 79.8 1368 79.56 1369.77 78.97 1371.07 77.79 1372.19 76.37 1373.25 74.49 1373.79 72.96 1374.5 71.55 1374.08 69.72 1373.25 67.44 1372.43 65.02 1370.89 63.02 1369.34 60.85 1368.04 58.72 1366.68 56.06 1364.32 55.25 1362.71 53.77 1360.35 51.79 1356.98 M 105.95 1247.23 105.83 1246.27 106.23 1245.6 107.33 1244.89 108.25 1244.56 109.33 1244.37 110.44 1244.65 111 1245.05 111.97 1245.61 112.92 1245.92 113.64 1246.36 122.38 1259.46 123.44 1259.79 123.92 1260.52 123.63 1261.2 122.66 1261.79 121.47 1262.43 120.32 1263.04 118.43 1263.42 117.11 1263.58 115.26 1263.55 114.28 1263.11 113.73 1262.38 113.4 1261.26 112.93 1260.49 112.32 1260.23 111.78 1260.69 111.52 1261.27 110.96 1261.85 110.26 1262.04 107.51 1259.17 111.5 1259.17 110.94 1258.12 109.78 1257.33 108.75 1256.25 107.91 1255.49 107.55 1254.21 107.39 1253.14 107.35 1252.38 107.95 1251.02 107.79 1250.3 107.07 1249.86 106.39 1249.55 106.31 1248.43 105.95 1247.23" stroke="black"/>
</g>
</svg>