<?xml version="1.0"?>
<svg xmlns="http://www.w3.org/2000/svg" version="1.2" baseProfile="tiny" width="800" height="546" viewBox="0 0 800 546" stroke-linecap="round" stroke-linejoin="round">
<g id="senate" fill="none" stroke="black" stroke-width="1">
<path d="M 96.71 452.58 103.79 437.62 157.53 324.04 159.87 307.11 164.12 276.49 167.51 251.96 170.51 230.3 175.41 194.94 176.57 186.53 179.13 167.98 185.36 122.98 185.65 120.79 189.75 91.15 192.53 76.38 192.74 75.1 193.07 72.84 196.04 53.47 196.14 52.97 198.59 39.76 198.97 37.75 201.35 24.91 205.79 1 206.36 1.02 271.47 5.24 277.44 4.43 277.14 8.35 276.72 15.43 286.92 16.71 285.84 23.8 276.16 22.63 273.99 29.72 273.52 37.44 283.76 38.02 282.73 45.15 281.72 52.1 279.6 66.69 285.66 67.52 285.56 68.26 279.49 67.54 278.56 75.63 284 80.18 289.01 84.9 291.56 87.31 294.47 90.03 294.6 88.41 294.88 85.92 295.45 81.53 297.58 81.78 301.07 82.2 308.42 83.12 309.51 76.99 318.81 78.13 321.58 78.12 323.4 72.2 325.64 64.95 326.73 61.39 327.76 57.99 329.26 53.19 329.93 51.05 332.51 44.15 332.78 43.36 337.02 31.47 338.06 32.13 344.57 36.25 350.2 39.93 355.84 43.58 361.23 47.07 367.09 50.88 372.79 54.59 380.68 42.32 386.29 45.83 392.57 49.52 396.28 43.69 400.22 46.25 404.52 49.05 416.44 56.7 414.61 63.57 428.95 71.52 446.6 81.34 463.11 90.53 480.42 100.15 483.7 94.18 486.99 88.24 490.31 82.22 507.87 91.95 525.67 101.85 530.91 105 535.92 108.02 541.46 111.34 542.89 111.85 555.66 119.29 603.05 146.91 605.01 144.07 605.89 142.83 609.07 138.43 610.05 136.75 613.67 130.54 621.49 117.19 623.78 113.25 625.12 110.97 630.81 101.22 631.87 99.4 636.57 93.29 640.08 88.3 640.11 83.14 640.12 81.34 640.13 80.25 640.03 79.98 639.61 78.86 639.52 78.61 639.58 77.73 640.17 68.3 639.43 55.46 639.6 53.96 639.7 53.05 640.26 47.85 640.15 46.85 639.02 36.56 638.23 29.34 639.87 27.44 639.67 26.31 639.57 25.77 638.61 20.31 636.25 13.02 634.46 7.49 634.4 5.51 653.73 2.91 666.05 1.35 666.92 8.31 667.77 15.29 692.62 12.2 693.48 19.15 668.64 22.28 669.52 29.26 694.48 26.13 700.26 25.4 707.43 24.53 714.98 23.54 721.21 37.94 725.62 48.07 731.18 45.65 737.34 42.97 743.52 40.28 749.67 37.6 756.84 54.09 757.86 53.82 764.83 52.81 771.79 51.96 778.72 51.06 785.81 50.2 792.88 49.3 795.15 67.68 798.25 92.45 799 98.24 792.52 104.09 789.44 106.84 786.04 109.81 779.58 114.65 773.1 119.18 767.78 123.75 758.83 130.52 749.99 137.59 746.74 140.49 738.63 147.42 737.93 141.61 734.85 142 725.63 143.14 709.07 145.25 709 144.64 705.23 141.55 700.79 146.96 696.36 152.41 686.98 144.71 682.56 150.13 678.13 155.61 668.54 147.71 664.11 153.17 659.69 158.6 650.12 150.73 639.51 141.99 635.05 147.47 630.33 153.26 626.31 158.23 622.87 162.42 618.25 168.38 615.8 175.14 613.26 182.57 610.57 190.5 608.49 196.62 605.8 204.53 604.71 207.76 603.54 211.21 601.06 218.59 599.79 226.08 598.63 234.06 597.65 240.99 596.55 247.99 596.29 249.87 597.25 254.24 599.26 261.3 601.44 268.78 604.44 275.59 609.17 281.2 613.09 285.89 613.88 286.81 618.59 292.38 637.76 276.02 633.06 270.46 628.49 265.07 623.67 259.38 613.62 267.69 609.31 262.09 618.84 253.7 615.44 249.79 618.63 249 619.32 244.27 620.39 237.34 621.57 229.34 622.7 221.84 628.22 222.75 634.5 225.53 640.95 228.57 646.4 230.22 645.43 232.93 633.59 231.13 632.41 239.16 631.14 247.52 635.7 248.13 637.72 248.4 643.06 249.1 652.05 250.25 656.09 250.79 663.09 251.78 663.62 247.61 665.36 244.02 670.17 244.79 675.38 245.61 679.39 245.9 684.81 248.42 696.18 253.47 698.15 254.43 704.41 257.19 707.37 258.59 708.98 259.27 711.88 260.55 718.02 264.94 718.99 265.63 724.35 269.27 727.34 271.67 730.86 271.14 741.17 269.57 742.02 276.72 742.43 280.16 742 282.57 748.09 287.06 754.06 291.54 757.01 293.71 760.03 295.94 753.88 301.25 749.17 295.71 735.45 307.41 740.16 312.96 744.86 318.52 747.53 321.87 746.63 322.05 740.03 323.02 725.44 325.13 710.01 327.63 701 328.93 694.14 330 687.48 331.01 680.84 332.03 684.1 353.61 677.07 354.7 670.02 355.76 663.25 356.79 653.31 358.29 646.95 359.26 639.76 360.37 638.54 354.09 631.43 355.33 630.29 353.8 629.99 354.12 624.65 359.73 624.38 356.29 622.15 344.12 615.25 345.55 608.55 346.32 601.32 345.97 593.99 345.52 596.49 363.46 596.56 363.9 589.16 363.53 589.09 363.08 586.45 345.1 579.08 344.67 571.37 344.31 563.75 343.9 566.41 362.38 566.52 363.02 558.98 362.64 551.33 362.25 551.28 361.62 548.91 343.14 541.38 342.7 538.99 342.57 533.94 342.28 526.46 341.89 520.92 341.6 522.08 360.01 514.62 358.91 514.8 359.69 514.86 360.18 510.92 360.7 505.96 360.71 499.86 360.65 499.75 359.82 497.8 359 498.67 348.28 498.46 340.32 499.07 326 499.12 314.7 497.08 310.61 481.27 309.72 467.03 308.93 466.53 317.41 459.1 317.2 453.03 316.96 451.87 316.92 450.9 316.88 444.8 316.56 437.79 316.21 436.72 316.16 429.99 315.86 427.26 316.2 421.01 315.54 418.36 312.77 417.14 316.29 414.87 322.6 420.29 324.6 418.24 330.99 417.47 336.53 417.49 344.93 407.78 341.79 405.47 348.05 412.15 350.37 417.8 352.47 418.3 356.71 412.32 372.76 409.91 379.35 424.65 384.67 422.55 391.42 420.73 396.33 431.9 398.82 435.68 400.75 432.99 411.54 429.94 417.85 426.74 424.05 412.67 417.99 410.36 424.43 423.15 429.94 419.82 435.43 416.73 441.45 427.72 447.29 424.49 453.55 421.25 459.9 401.11 449.63 399.75 453.27 398.68 456.25 418.05 466.13 414.84 472.37 411.64 478.61 408.43 484.84 405.23 491.09 402.04 497.33 398.81 503.55 395.61 509.79 395.17 510.65 393.29 514.36 391.54 517.71 389.67 521.4 387.93 524.77 385.7 529.06 384.79 531.11 382.98 535.94 382.3 537.74 379.73 544.86 367.84 540.65 353.03 535.21 339.24 530.15 333.56 528.74 330.77 528.06 329.17 523.98 327.15 521.35 325.73 519.47 325.25 518.83 320.1 509.92 319.39 508.38 315.9 500.9 311.69 492 311.14 490.88 308.33 488.29 303.33 484.25 304.11 483.81 304.87 483.17 301.32 476.15 299.27 470.28 296.68 462.9 295.79 460.34 292.94 454.66 291.11 457.24 290.94 457.48 289.93 460.78 289.74 461.39 283.65 465.65 270.95 474.51 268.87 475.97 262.16 481.69 258.47 484.84 256.19 486.77 238.09 500.87 234.38 513.19 225.19 513.81 218.74 517.61 211.25 522.01 210.25 523.06 209.24 524.12 208.85 523.87 96.71 452.58 M 3.16 419.69 1 416.44 2.13 416.06 2.35 415.84 2.24 415.04 1.75 414.65 1.54 414.28 1.38 413.03 1.27 411.57 1.86 410.44 2.4 410.16 3.91 410.33 6.34 410.11 8.6 410 10.06 409.74 11.62 410.55 15.82 412.55 19.16 414.23 21.53 415.65 23.41 416.83 25.13 418.35 26 419.17 26.1 419.27 27.18 420.57 27.99 422.02 28.79 424.09 29.06 425.44 29.11 428.52 28.79 429.77 28.57 431.39 28.03 432.58 26.95 433.6 25.66 434.58 23.93 435.07 22.53 435.72 21.24 435.33 19.57 434.58 17.48 433.82 15.27 432.41 13.44 431 11.45 429.81 9.5 428.56 7.07 426.4 6.33 424.93 4.98 422.77 3.16 419.69 M 52.72 319.27 52.61 318.4 52.97 317.78 53.98 317.13 54.82 316.84 55.81 316.66 56.83 316.91 57.34 317.28 58.22 317.79 59.09 318.07 59.75 318.48 67.75 330.46 68.72 330.77 69.16 331.44 68.89 332.05 68.01 332.6 66.92 333.19 65.86 333.74 64.13 334.09 62.93 334.24 61.23 334.21 60.34 333.8 59.84 333.14 59.53 332.11 59.1 331.41 58.54 331.17 58.05 331.59 57.81 332.12 57.3 332.65 56.66 332.82 54.14 330.2 57.8 330.2 57.28 329.24 56.22 328.52 55.28 327.53 54.51 326.83 54.18 325.66 54.03 324.68 53.99 323.98 54.55 322.74 54.4 322.09 53.74 321.68 53.12 321.4 53.05 320.38 52.72 319.27" stroke="black"/>
</g>
</svg>