<?xml version="1.0"?>
<svg xmlns="http://www.w3.org/2000/svg" version="1.2" baseProfile="tiny" width="800" height="556" viewBox="0 0 800 556" stroke-linecap="round" stroke-linejoin="round">
<g id="congress" fill="none" stroke="black" stroke-width="1">
<path d="M 548.86 285.86 547.92 285.85 547.35 285.84 547.35 285.41 547.18 282.77 546.92 281.08 546.71 278.3 546.51 276.9 545.95 273.15 546.08 273.15 545.89 272.58 545.85 271.62 545.43 267.21 545.27 265.21 545.17 264.14 545.04 263.99 545.01 263.96 544.9 263.86 544.85 263.83 543.47 262.63 542.76 262.06 542.57 261.91 541.91 261.38 541.35 260.94 541.28 260.88 541.2 260.83 540.75 260.46 539.43 259.41 538.62 258.77 538.3 258.52 538 257.85 537.83 257.57 537.76 257.51 537.66 257.43 536 256.12 535.34 255.68 535.29 255.68 535.23 255.65 534.91 255.36 534.8 255.27 534.25 254.85 533.12 253.91 532.77 253.63 532.46 253.36 532.1 253.07 531.98 252.88 532.24 252.51 531.09 251.65 529.3 252.88 530.1 253.67 530.42 253.75 528.46 255.08 527.91 255.45 527.6 255.68 526.7 256.33 525.49 257.21 525.23 257.4 525.08 257.49 524.68 257.76 524.21 258.08 522.9 258.89 522.23 259.3 520.98 260.04 519.84 260.69 519.76 260.73 518.97 261.03 518.78 261.08 518.18 261.24 518.09 261.26 516.96 261.61 516.41 261.74 516.37 261.75 515.64 261.95 515.27 262.05 513.96 262.42 513.22 262.63 513.12 262.67 512.13 263.1 510.96 263.64 510.8 263.71 510.68 263.76 510.23 263.96 509.38 264.38 509.06 264.52 508.76 264.66 508.03 264.99 506.86 265.54 506.61 265.64 505.94 265.89 505.25 266.05 504.43 266.24 504.14 266.3 502.92 266.58 502.06 266.78 501.07 267.09 499.65 267.56 499.43 267.62 498.96 267.88 498.21 268.19 497.97 268.28 497.23 268.61 496.97 268.73 496.5 268.99 495.94 269.3 495.5 269.57 495.4 269.63 494.58 270.14 494.33 270.33 494.04 270.49 493.55 270.76 493.37 270.93 492.83 271.35 492.7 271.45 492.29 271.74 491.9 271.99 491.8 272.06 491.38 272.35 491.11 272.54 490.81 272.72 490.61 272.55 490.29 272.2 490.08 271.94 489.87 271.62 489.63 271.21 489.51 270.99 489.48 270.93 489.37 270.68 489.36 270.64 489.3 270.48 488.91 269.31 488.88 269.22 488.49 269.29 488.12 269.38 487.59 269.48 486.72 269.59 486.58 269.6 485.82 269.72 485.45 269.79 485.06 269.85 484.51 269.95 484.38 269.97 483.67 270.11 483 270.23 482.9 270.26 482.67 270.32 482.16 270.45 481.28 270.67 480.57 270.84 480.37 270.91 480.04 270.95 479.17 270.95 478.91 270.98 478.64 271.02 478.31 271.1 478.21 271.14 477.76 271.23 477.68 271.25 477.12 271.38 476.94 271.44 476.79 271.49 476.75 271.49 476.64 271.51 476.49 271.52 476.31 271.56 476.4 272.54 475.7 272.61 475.61 271.71 475.18 271.8 474.82 271.9 474.71 271.93 474.44 272.02 474.13 272.17 472.51 272.96 470.97 273.7 470.45 273.94 470.33 273.99 469.64 274.26 469.45 274.34 468.97 274.53 468.8 274.59 469.12 275.37 469.33 275.9 468.99 276.13 468.97 276.14 468.95 276.14 468.19 276.36 467.53 276.54 466.85 276.73 466.17 276.92 465.88 275.29 465.18 275.44 464.51 275.61 462.68 276.07 462.36 276.12 461.72 276.26 461.66 276.27 460.41 276.46 460.25 276.5 460.05 276.54 460.04 276.45 459.33 276.54 459.01 276.58 458.65 276.62 457.95 276.72 457.27 276.83 456.58 276.94 455.91 277.04 455.23 277.14 454.54 277.25 453.87 277.36 453.15 277.47 452.95 277.5 452.49 277.59 452.15 277.64 451.79 277.7 451.38 277.76 450.89 277.84 450.88 277.69 450.84 277.5 450.84 277.48 450.78 277.41 450.6 277.22 450.41 277.11 450.37 277.08 450.11 277.01 449.57 276.86 449.43 276.81 449.32 276.75 449.16 276.63 449.11 276.59 448.97 276.42 448.92 276.35 448.87 276.24 448.81 276.09 448.79 276.02 448.66 275.62 448.59 275.47 448.51 275.35 448.42 275.24 448.3 275.13 448.18 275.04 448.07 274.98 447.94 274.92 447.78 274.87 447.11 274.74 446.73 274.69 445.7 274.57 445.35 274.52 445.17 274.47 444.97 274.41 444.81 274.36 444.63 274.31 444.44 274.28 444.09 274.24 443.89 274.24 442.56 274.28 441.8 274.3 441.68 274.3 441.22 274.31 441 274.31 440.97 274.31 440.28 274.38 439.81 274.49 439.74 274.5 439.38 274.55 439.17 274.58 439.05 274.6 438.89 274.62 438.81 274.64 438.68 274.66 437.84 274.8 436.62 275 436.33 275.05 436.18 275.08 436.04 275.1 435.89 275.12 435.74 275.15 435.59 275.17 435.45 275.2 435.29 275.22 435.15 275.25 435 275.27 434.85 275.3 434.58 275.34 433.75 275.48 433.61 275.51 433.34 275.55 432.23 275.72 431.37 275.86 431.07 275.92 430.7 276.01 430.59 276.04 430.47 276.09 430.28 276.15 429.98 276.27 429.59 276.45 429.26 276.62 429.04 276.77 429.02 276.79 429.22 277.98 429.23 278.01 429.33 278.58 429.46 280.5 429.67 282.26 429.69 282.53 429.77 284.41 429.8 284.79 429.91 286.26 430.13 288.43 430.14 289.04 430.14 289.77 430.15 290.13 430.15 290.26 430.11 290.3 430.08 290.33 429.85 291.19 429.41 292.1 428.82 293.01 428.68 293.43 428.51 293.77 428.37 294.04 427.81 295 427.65 295.36 427.33 296.05 426.83 297.09 426.63 297.58 426.62 297.6 426.61 297.62 426.31 298.09 425.92 298.88 425.38 299.92 424.88 300.94 424.47 301.82 424.26 301.88 423.96 301.97 423.78 302.02 423.65 302.05 423.43 302.12 423.14 302.2 422.85 302.28 422.42 302.4 422.29 302.43 421.66 302.54 421.23 302.62 420.83 302.69 420.2 302.8 420.13 302.81 420 302.83 419.55 302.91 418.89 303.02 418.86 303.02 418.78 303.03 418.16 303.13 418.13 303.14 417.54 303.3 416.31 303.64 414.7 304.21 414.31 304.34 414.22 304.38 414.18 304.39 414.14 304.4 414.13 304.41 414.08 304.42 414.05 304.44 413.63 304.6 413.43 304.68 412.99 304.82 412.99 304.83 412.76 304.9 412.37 305.03 411.93 305.19 411.83 305.22 411.71 305.27 411.58 305.31 411.37 305.39" stroke="black"/>
<path d="M 411.37 305.39 411.51 304.32 411.19 304.12 411.12 304.6 410.84 303.76 410.04 303.51 409.39 303.31 409.23 303.29 408.67 303.19 408.46 303.14 408.24 303.08 407.98 303 407.26 302.71 406.64 302.44 406.17 302.24 406.06 302.2 405.23 301.94 404.53 301.64 403.85 301.51 403.13 301.3 402.46 301.1 401.82 300.91 401.2 300.72 401.06 300.68 400.87 300.63 400.37 300.47 400.1 300.39 399.1 300.1 397.76 299.66 396.75 299.39 396.43 299.3 395.41 298.96 394.83 298.41 394.54 297.84 394.41 297.09" stroke="black"/>
<path d="M 394.41 297.09 394.84 296.58 396.16 295.22 397.36 294 397.91 293.3 398.43 292.6 399.62 290.79 400.3 289.77 400.61 289.28 401.49 288.46 401.75 288.17 402.14 287.75 403.18 286.72 403.52 286.44 403.97 285.81 403.84 285.76 403.69 285.59 403.58 285.34 403.48 284.85 403.47 284.54 403.5 284.23 403.49 283.97 402.67 283.04 400.55 280.68 399.03 279.52 397.51 277.77 397.28 277.36 396.41 276.01 396.2 275.72 396.04 275.35 394.13 272.39 392.42 270.37 388.35 268.51 386.49 268.08 385.73 267.13 386.03 266.47 385.64 265.87 385.44 265.04 385.33 264.67 383.98 260.39 382.86 258.99 381.66 257.49 380.14 255.43 378.81 253.36 378.21 253.45 376.81 253.87 376.37 252.33 376.09 251.57 375.73 250.62 375.04 250.89 374.37 251.16 373.7 251.42 373.03 251.69 372.35 251.95 372.2 251.06 372.12 250.34 371.39 250.55 370.69 250.8 370.01 251.05 369.32 251.3 368.64 251.58 366.77 252.32 365.79 252.7 365.48 252.82 365.15 252.95 364.55 253.18 364.11 253.35 363.89 253.44 363.23 253.68 362.57 253.93 361.99 254.14 361.36 254.32 360.97 254.44 360.1 254.74 359.99 254.78 359.16 255.23 358.79 255.45 358.44 255.67 356.93 255.99 356.23 255.52 356.08 255.42 355.68 255.13 355.41 255.34 354.75 255.83 354.8 255.28 354.87 254.56 354.92 254.16 354.69 253.81 352.8 253.61 350.65 253.39 348.5 253.16 346.3 252.93 343.82 252.67 342.15 252.5 342.21 251.98 342.23 251.77 342.3 251.06 342.4 250.06 340.29 249.84 338.73 249.69 337.96 249.61 337.19 249.53 336.48 249.45 335.66 249.36 335.96 248.39 336.48 247.22 335.25 247.19 334.65 247.2 334.36 247.18" stroke="black"/>
<path d="M 334.36 247.18 334.84 243.95 334.89 243.68 335.04 242.06 335.4 239.41 335.53 238.44 335.54 237.66 335.56 237.21 335.34 235.97 335.11 235.58 333.89 233.08 334.19 232.98 335.92 232.49 335.56 231.42 335.26 231.09 335.16 230.83 332.76 225.52 335.74 224.29 335.98 224.21 340.44 223.09 344.93 223.48 345.11 223.5 349.95 225.36 353.59 226.75 358.42 228.69 358.63 228.77 361.32 228.87 363.31 228.67 363.77 228.16 365.85 226.74 367.61 224.1 368.93 218.06 369.07 217.41 369.13 217.19 369.37 216.23 368.77 201.86 369.17 201.41 372.78 197.31 373.13 196.91 373.97 195.96 373.97 195.95 382.61 186.12 382.61 186.12 382.66 186.06 383.02 185.65 385.84 182.44 385.87 182.41 385.97 182.29 389.05 171.4 389.06 171.38 389.09 171.25 390.92 164.78 393.45 155.85" stroke="black"/>
<path d="M 393.45 155.85 393.49 155.69 397.72 152.42 399.18 151.3 406.25 145.86 416.15 138.25 422.93 133.04 431.15 126.72 434.62 124.02 485.54 84.46 489.52 81.36 492.22 79.26 497.1 75.47 497.17 75.41 497.25 75.35 497.26 75.34" stroke="black"/>
<path d="M 425.68 497.41 425.74 479.33 425.64 452.02 416.45 451.23 411.21 450.81 401.03 451.28 387.58 452.79 387.65 449.68 387.68 448.34 387.68 448.28 387.68 448.24 387.73 446.02 387.87 445.88 387.98 445.75 388.15 445.57 390.14 443.41 390.32 443.2 390.33 443.19 391.11 442.41 391.21 442.32 391.24 442.28 393.69 439.83 395.6 438.76 396.21 438.42 396.6 438.44 396.7 438.45 396.87 438.46 396.92 438.47 397.04 438.47 397.09 438.48 397.15 438.48 398.39 438.45 399.62 438.41 400.12 438.4 400.82 438.38 400.88 438.38 400.88 438.38 401.77 438.36 401.8 438.35 401.8 438.35 401.8 438.35 401.74 438.2 401.63 437.89 401.57 437.73 401.06 437.08 401.06 436.83 401.06 436.76 401.06 436.65 401.07 436.51 401.1 435.3 400.92 434.45 400.87 434.22 400.94 433.47 400.95 433.27 401.18 429.62 401.06 428.5 400.23 427.05 399.42 426.59 399.2 426.3 399.09 426.16 398.76 425.72 398.76 425.72 397.22 423.9 397.06 423.65 397.28 423.26 397.28 423.26 397.18 423.13 397.04 422.97 396.92 422.72 396.67 422.24 396.13 421.01 395.52 419.91 395.31 419.35 395.42 419.3 395.75 419.15 396.67 418.72 397.16 418.49 397.72 418.2 398.02 418.06 398.57 417.79 398.66 417.75 398.84 417.67 399.1 417.55 399.5 417.35 399.63 417.29 400 417.08 399.98 416.89 400.15 416.82 400.09 416.59 400.62 416.38 400.73 416.67 401.66 416.15 402.17 415.8 402.86 415.25 405.85 412.95 406.14 412.71 405.91 412.21 405.55 411.47 405.29 410.94 404.91 410.16 404.56 409.41 404.41 409.11 404.21 408.66 404.07 408.37 403.86 407.9 403.77 407.72 403.5 407.17 403.3 406.76 403.19 406.54 402.99 406.15 402.77 405.68 402.68 405.47 402.54 405.08 402.49 404.9 402.38 404.54 402.18 403.87 401.97 403.2 401.82 402.7 401.76 402.49 401.68 402.22 403.08 401.66 403 401.4 402.95 401.43 402.86 401.33 402.63 400.74 402.54 400.48 402.28 400.15 401.65 398.64 401.59 398.49 401.27 398.14 401.36 397.68 401.1 397.35 400.5 395.99 400.41 395.57 400.01 395.45 399.86 395.4 399.55 395.31 399.76 395.01 399.42 393.63 399.13 392.96 399.08 392.84 398.85 392.31 398.8 392.19 398.77 392.13 398.76 392.1 398.7 391.96 398.68 391.9 398.67 391.88 398.57 391.72 398.46 391.55 397.89 390.65 398.54 390.26 398.19 389.49 398.2 388.96 398.2 388.73 398.18 388.65 398.09 388.17 398.09 388.16 398.07 388.08 398.05 388 398.08 387.66 398.09 387.54 398.15 386.8 398.16 386.64 398.23 385.83 398.44 384.55 398.46 384.46 398.41 383.79 398.33 383.52 398.32 383.46 398.13 382.7 398.53 382.68 398.9 382.81 398.96 382.84 399.75 382.44 400.12 382.47 400.28 382.53 400.35 382.56 400.41 382.53 400.55 382.48 401.36 382.14 401.62 382 401.66 381.98 402.28 381.63 402.84 381.36 403.64 380.96 403.93 380.91 405.63 380.6 405.72 380.58 405.88 380.52 406.48 380.29 407.34 379.96 407.53 379.89 407.59 379.87 408.1 379.67 408.33 379.59 408.43 379.55 409.08 379.37 409.89 379.14 409.94 378.97 409.94 378.96 410.06 378.84 410.25 378.64 410.35 378.54 410.43 378.38 410.63 377.96 410.93 377.57 411.08 377.57 411.12 377.1 411.17 377.13 411.26 377.16 411.47 377.24 411.8 377.42 411.88 377.46 412.15 377.6 412.89 378 413.19 377.77 413.56 377.61 413.92 377.55 414.71 377.42 415.8 376.98 416.93 376.68 419.35 375.59 419.92 374.89 420.04 374.68 420.09 374.59 420.82 373.99 420.95 373.9 421.43 373.53 421.84 373.22 421.9 373.17 422.63 372.49 422.98 372.18 423.18 372 423.36 371.66 423.38 371.63 423.66 370.56 424.23 370 424.52 369.64 424.85 369.23 424.93 369.13 425.32 368.64 425.42 368.42 425.46 368.34 426.17 367.25 426.63 366.87 426.77 366.76 426.75 366.76 427.35 365.04 427.68 364.13 427.97 364.25 428.58 364.51 428.65 364.54 429.06 364.71 429.56 364.89 430.6 365.26 431.88 365.72 432.02 365.78 433.07 366.15 434.24 366.57 434.52 365.81 434.76 365.16 434.99 364.51 435.23 363.85 435.47 363.2 435.71 362.54 435.95 361.9 435.96 361.85 436.18 361.24 436.42 360.59 436.66 359.94 436.89 359.29 437.08 358.75 437.11 358.7 437.13 358.63 437.37 357.98 437.56 357.44 437.58 357.41 437.6 357.32 437.65 357.18 437.67 357.05 437.68 356.93 437.66 356.77 437.6 356.59 437.42 356.28 437.18 356.43 436.97 356.55 436.85 356.59 436.69 356.64 436.51 356.67 436.56 356.55 436.67 356.25 436.9 355.59 437.14 354.94 435.96 354.51 436.2 353.85 436.41 353.27 436.46 353.16 436.71 352.84 436.53 352.77 436.69 352.46 436.88 352.07 437.03 351.85 437.11 351.75 437.13 351.7 437.45 351.28 437.48 351.25 437.57 351.13 437.85 350.67 437.93 350.52 438.04 350.31 438.72 348.68 438.77 348.55 438.83 348.38 438.93 348.1 439.03 347.79 439.17 347.35 439.35 347.24 439.2 347.28 439.29 346.97 439.54 346.92 439.96 346.86 440.52 346.8 440.83 346.79 441.24 346.8 441.24 346.54 441.26 346.35 441.32 345.43 441.34 345.12 441.34 344.81 441.33 344.49 441.29 344.36 441.27 344.28 441.23 344.13 441.03 343.4 440.99 343.26 440.97 343.14 440.96 343.1 440.94 342.94 440.92 342.69 440.92 342.46 440.94 342.24 440.96 342.08 440.97 342.02 440.98 341.97 441.01 341.86 441.09 341.55 441.29 340.99 441.54 340.28 441.83 339.58 442.4 338.24 442.9 337.05 442.27 336.77 442.11 336.7 441.83 336.58 441.63 336.5 441.46 336.43 441.28 336.35 441.23 336.33 441 336.23 441.34 335.43 441.37 335.33 441.37 335.3 441.35 335.27 440.76 335.02 440.62 334.96 439.99 334.69 439.35 334.42 438.66 334.12 438.63 333.98 438.61 333.96 438.58 333.94 438.45 333.92 438.53 333.33 438.6 332.77 438.68 332.19 438.76 331.63 438.83 331.06 438.91 330.5 438.98 329.92 439.06 329.36 439.13 328.8 439.17 328.53 439.17 328.46 439.07 328.21 439 328.03 439 327.79 439 327.65 439 327.57 439.01 327.07 439.01 326.5 439.02 325.92 439.03 325.71 439.02 325.35 439.03 324.8 439.04 324.22 439.04 323.64 439.05 323.08 439.05 322.51 439.05 321.57 438.88 321.59 438.79 321.61 437.98 321.73 437.73 321.78 437.47 321.81 436.91 321.99 436.5 322.11 436.38 322.14 435.89 322.28 435.87 322.28 435.84 322.29 435.76 322.32 435.24 322.46 434.77 322.57 434.6 322.64 433.92 322.77 433.76 322.81 433.5 322.85 433.19 322.88 433.02 322.89 432.59 322.86 432.46 322.91 431.78 322.77 431.3 322.69 431.05 322.66 430.85 322.65 430.58 322.62 430.28 322.61 429.53 322.6 428.78 322.59 428.33 322.57 428.04 322.55 427.76 322.52 427.33 322.45 426.62 322.32 426.1 322.22 425.94 322.17 425.61 322.09 425.25 321.99 424.84 321.88 425 321.67 425.25 321.39 425.38 321.28 426.48 320.58 427.15 320.16 427.47 319.97 427.57 319.88 427.61 319.82 428.54 319.28 429.36 318.95 430.04 318.67 430.57 318.31 431.57 317.81 432.45 317.28 432.42 316.98 432.68 317.05 432.86 316.65 433.22 316.44 433.48 316.07 434.08 316.2 434.1 316.05 433.89 315.86 432.12 314.07 432.07 314 431.91 313.72 431.74 313.6 431.68 313.72 431.36 313.33 431.22 313.5 431.01 313.61 431.13 313.71 431.14 313.73 431.11 313.75 429.75 314.42 427.83 315.37 427.8 315.41 427.75 315.52 427.75 315.59 427.5 316.18 426.76 317 424.03 316.28 424.09 315.99 424.22 315.78 424.65 313.87 424.59 313.68 423.72 313.51 423.69 313.58 423.17 313.34 423.06 313.29 422.82 313.18 422.6 313.07 422.51 313 422.48 312.94 422.27 311.94 421.07 311.76 420.34 311.76 419.75 311.94 419.74 312.16 419.43 313.5 418.79 313.75 418.07 313.81 417.33 313.73 415.17 313.5 415.17 313.1 415.16 313.03 415.11 312.7 415.09 312.51 415.08 311.72 415.26 311.19 414.82 311.37 414.28 311.14 413.66 310.66 413.16 308.88 410.4 309.7 409.25 310.07 408.59 310.31 407.95 310.6 407.92 310.49 407.89 310.39 407.75 309.89 407.58 309.27 407.56 309.2 407.55 309.18 407.07 307.57 407.6 307.27 407.75 307.19 408.15 306.96 408.37 306.84 408.73 306.63 408.88 306.56 409.14 306.42 409.25 306.36 409.37 306.3 409.44 306.26 409.76 306.09 410.02 305.95 410.29 305.83 410.41 305.78 410.45 305.76 410.64 305.67 411.06 305.47 411.29 305.41 411.37 305.39" stroke="black"/>
<path d="M 167.63 522.92 170.69 493.62 171.18 489.08 171.6 485.31 171.81 483.44 171.81 483.43 171.81 483.43 171.88 482.76 171.9 482.61 171.9 482.59 172.09 480.88 172.09 480.85 172.09 480.83 172.1 480.81 172.1 480.77 172.1 480.74" stroke="black"/>
<path d="M 172.1 480.74 179.28 479.23 202.21 474.43 226.23 469.58 230.91 468.64 231.24 468.57 231.58 468.5 234.52 467.87 236.59 467.43 237.09 467.33 237.29 467.3 237.35 467.28 237.45 467.27 237.51 467.26 237.59 467.25 237.71 467.23 237.83 467.21 238.46 467.08 242.2 466.31 248.72 465.18 249.13 465.11 249.97 464.96 251.08 464.7 251.14 464.68 251.64 464.57 254.71 463.92 255.21 463.81 255.3 463.8 255.71 463.71 262.57 462.3 266.44 461.5 273 460.15 273.52 460.01 273.79 459.94 274.2 459.9 274.56 459.86 284.05 458.84 286.77 458.16 287.29 458.03 288.23 457.79 290.46 457.33 292.72 456.87 298.57 453.04 298.72 452.95 298.87 452.87 299.39 452.62 299.62 452.51 300.38 452.14 300.39 452.13 301.01 451.71 301.6 451.31 301.72 451.23 301.82 451.16 302.48 450.72 302.87 450.45 303.18 450.25 307.87 447.48 311.24 445.5 311.33 445.45 311.37 445.42 312.46 444.8 312.81 444.54 315.28 442.7 316.28 440.9 317.17 439.3 317.71 438.11 319.44 435.43 321.29 432.95 326.01 425.54 326.93 424.21 327.1 423.96 327.12 423.54 327.23 421.95 327.36 418.74 327.41 417.63 327.41 417.62 327.68 410.12 327.68 410.08 327.75 408.28 327.87 404.79 327.88 404.58 327.89 404.15 327.91 403.58 327.91 403.47 327.91 403.44 327.92 403.24 327.94 402.45 326.39 400.57 326.39 400.57 326.09 400.2 325.73 399.77 325.46 399.32 325.08 398.71 324.86 398.35 324.65 398.02 324.29 397.55 324.15 397.36 323.52 396.53 320.57 392.65 317.77 388.96 316.44 387.21 322.84 386.58 323.07 385.55 325.66 385.38 326.17 386.66 334.1 386.47 333.95 385.69 333.28 382.41 333.23 381.45 333.21 381.08 332.97 379.74 331.86 374.54 331.68 373.31 330.71 370.74 330.62 370.56 330.35 369.99 329.78 368.4 329.16 366.81 328.8 365.48 328.49 365.28 328.57 365.08 328.51 364.95 328.44 364.76 328.05 364.36 328.29 363.79 326.77 360.02 326.02 358.16 325.99 358.04 325.78 357.21 325.16 355.67 324.44 353.9 324.35 353.68 324.26 353.72 324.28 353.5 324.07 352.97 323.02 350.28 323.21 350.31 322.74 349.11 322.7 349.13 322.68 349.13 322.68 349.12 322.45 348.45 321.92 346.88" stroke="black"/>
<path d="M 321.92 346.88 321.17 344.85 320.54 343.15 320.11 341.96 319.88 341.33 319.62 340.68 320.69 340.28 322.01 339.79 321.77 339.14 321.53 338.48 321.29 337.83 321.04 337.18 320.8 336.53 320.56 335.88 320.32 335.23 320.2 334.9 320.58 334.89 320.21 333.92 319.99 333.32 319.89 333.06 319.47 331.96 319.25 331.36" stroke="black"/>
<path d="M 319.25 331.36 319.89 331.11 320.49 330.89 321.05 330.67 321.69 330.43 322.37 330.16 323.03 329.91 322.63 329.07 322.71 329.07 323.24 329.15 324.15 328.8 324.82 328.55 325.5 328.29 326.17 328.04 326.27 328.03 327.14 328.57 328.64 329.41 328.69 329.33 328.76 329.1 329.35 328.61 330.04 328.38 330.72 328.16 330.93 328.09 331.41 327.93 332.09 327.7 332.78 327.47 333.54 327.21 334.23 326.99 334.92 326.76 335.29 326.72 335.67 326.62 336.16 326.39 336.31 326.32 337.07 326.56 337.79 326.75 340.61 327.54 341.05 327.54 341.32 327.53 341.8 327.5 342.07 327.49 342.58 327.46 342.82 327.45 343.18 327.46 343.45 327.48 343.56 327.49 343.96 328.54 344.62 328.29 344.42 327.65 344.71 327.72 344.63 326.93 344.57 326.31 344.55 325.82 344.45 325.6 344.42 324.83 345.43 324.45 345.82 324.31 346.12 324.2 346.65 323.99 347.04 323.85 348.5 323.3 348.85 324.25 350.45 323.68 351.85 323.18 352.5 322.92 352.14 321.94 352.73 321.71 353.39 321.46 353.06 320.74 352.74 320.07 352.47 319.49 352.32 319.18 353.25 318.74 353.31 318.87 353.67 318.7 354.12 318.5 354.56 319.22 354.86 319.87 355.04 320.25 355.28 320.76 355.62 320.63 356.33 320.36 356.93 320.14 357.61 319.88 358.25 319.53 358.91 319.17 359.68 318.81 360.46 318.44 361.08 318.15 361.76 317.83 362.38 317.61 361.84 317.2 360.77 317.39 360.16 316.83 359.8 316.05 361.39 315.41 361.81 315.12 362.17 314.56 362.46 314.05 362.36 312.54 362.31 312.43 362.22 312.27 362.13 312.14 361.97 311.97 361.84 311.85 361.73 311.78 361.57 311.69 361.44 311.63 361.32 311.58 361.18 311.55 360.99 311.52 360.81 311.51 360.73 311.49 360.64 311.46 360.56 311.42 360.5 311.37 360.43 311.31 360.37 311.24 360.32 311.15 360.29 311.09 360.4 311 360.55 310.9 359.69 310.89 359.24 311.06 359.14 311.01 359.04 311.02 357.37 311.65 357.15 311.68 356.96 311.65 356.17 311.95 355.89 312.06 354.94 312.46 355.02 312.25 354.72 311.07 354.33 309.61 355.02 309.41 355.69 309.14 355.23 307.7 354.74 306.18 355.4 305.88 356.06 305.59 356.72 305.28 357.31 305.02 358 304.71 358.68 304.4 359.9 303.9 360.59 303.64 361.26 303.36 361.66 303.18 361.92 303.06 362.59 302.78 363.25 302.49 363.89 302.21 364.17 302.09 364.55 301.92 365.22 301.64 365.87 301.36 366.16 301.23 366.68 301.01 367.34 300.72 368.03 300.42 368.73 300.17 369.41 299.93 370.08 299.68 370.78 299.43 371.43 301.22 372.02 302.85 372.33 303.71 372.58 304.45 370.43 306.43 370.55 306.68 370.73 306.33 371.01 306.2 371.24 306.15 371.46 306.18 371.71 306.17 371.94 306.1 372.16 306.16 372.87 305.71 373.33 305.28 373.84 304.95 374.49 304.66 375.08 304.46 375.79 304.2 376.38 304.05 377.01 303.84 377.69 303.68 378.08 303.59 378.69 303.45 379.43 303.3 379.89 303.27 381.37 303.36 383.57 303.63 384.19 303.77 384.47 303.77 384.98 303.76 385.75 303.7 386.68 303.65 386.92 303.54 386.99 303.47 387.04 303.41 387.16 303.26 387.35 303.15 387.86 302.9 388.76 302.46 389.38 302.19 389.87 301.97 390.65 301.24 393.96 297.58 394.41 297.09" stroke="black"/>
<path d="M 319.25 331.36 318.98 330.67 318.03 330.91 317.45 331.19 316.77 331.39 316.53 331.49 316.1 331.62 315.87 331.69 315.56 331.85 315.22 331.95 313.75 332.37 313.04 332.49 311.49 332.76 310.81 332.88 310.12 332.99 309.45 333.15 308.77 333.32 308.03 333.51 307.36 333.68 305.6 334.08 304.65 334.38 303.98 334.56 302.25 335.02 300.78 335.33 300.64 334.93 296.72 335.9 292.54 338.9 291.53 338.79 290.42 338.14 290.18 337.91 290.08 337.81 288.88 336.47 288.13 335.24 288.06 334.94 287.43 333.92 287.14 333.63 286.89 333.4 285.65 333.78 284.97 333.99 284.27 334.2 283.58 334.4 282.9 334.61 282.45 333.13 282.23 332.31 282.11 331.3 281.95 329.83 281.87 329.12 281.5 329.15 281.22 329.51 281.08 329.23 279.76 329.34 279.63 329.36 279.28 329.39 278.31 329.5 278.02 329.5 277.9 329.14 277.65 328.46 277.39 327.79 277.13 327.11 276.01 327.54 275.8 326.92 275.75 326.76 275.61 326.31 275.48 325.92 275.37 325.58 275.23 325.09 275.14 324.8 274.94 324.26 274.88 324.11 274.61 323.51 274.58 323.44 274.26 322.8 273.96 322.06 273.69 321.45 273.61 321.27 273.42 320.76 273.12 319.9 272.85 319.12 272.47 318.02 272.19 317.21 272.1 316.95 272.55 316.97 272.64 316.97 272.63 316.93 272.49 316.13 272.38 315.46 272.34 315.24 271.14 314.43 270.97 314.31 270.8 314.21 270.32 313.53 270.13 313.26 269.27 312.05 269.35 311.99 268.55 310.84 268.07 310.14" stroke="black"/>
<path d="M 268.07 310.14 267.64 309.49 267.2 308.81 266.79 308.14 266.4 307.38 266.12 306.83 266.65 306.63 267.01 306.43 267.12 306.48 268.05 305.52 269.94 303.61 270.59 302.93 271.03 302.49 271.16 302.37 271.25 302.28 271.45 302.08 269.65 300.76 269.41 300.49 269.34 300.42 269.26 300.35 269.21 300.33 269.11 300.32 269.03 300.32 268.92 300.36 268.36 300.06 267.93 299.8 267.54 299.68" stroke="black"/>
<path d="M 267.54 299.68 267.58 299.58 268.56 299.76 268.97 299.73 269.15 299.7 269.26 299.68 269.45 299.67 269.72 299.68 269.88 299.7 270.09 299.75 270.26 299.8 272.4 301.09 272.47 300.99 273.53 299.5 273.68 299.25 274.77 297.49 275.77 295.94 275.82 295.85 275.94 295.66 276.22 295.21 276.29 295.09 276.38 294.97 276.48 294.88 276.56 294.82 276.68 294.75 276.76 294.71 277.52 294.41 278.43 294.4 278.41 295.28 279.82 295.31 279.82 294.54 279.83 294.31 279.86 293.1 279.87 292.61 279.89 291.88 279.91 291.16 279.94 290.44 279.87 290.01 279.95 289.21 279.18 289.09 278.97 288.82 278.77 288.54 278.67 288.09 278.78 287.65 278.91 287.43 279.38 287.62 279.49 286.93 279.73 286.66 280.1 286.77 280.84 286.88 281.55 286.85 281.23 284.56 281.47 284.52 281.95 284.44 282.91 284.31 283.53 284.23 283.59 284.22 284.3 284.11 284.16 283.17 284.96 283.62 285.52 283.93 285.7 283.91 286.39 283.8 287.2 283.71 287.91 283.62 288.62 283.52 289.21 283.48 289.17 283.61 289.32 283.34 289.25 282.83 289.51 282.98 290.51 283.57 291.55 284.19 293.06 285.07 293.42 284.46 294.62 285.17 296.21 286.1 296.23 286.18 296.34 286.13 296.74 286.56 297.13 286.95 297.47 287.78 298.15 287.58 298.81 287.39 298.96 287.92 300 287.62 300.18 288.23 301.68 287.79 301.68 288.53 301.86 289.22 302 289.65 302.08 289.92 302.29 290.61 302.51 291.3 302.8 292.28 303.01 292.89 303.26 293.55 303.52 294.23 303.79 294.9 303.94 295.3 305.28 294.84 306.73 294.34 307.28 294.16 308.38 293.75 309.55 293.25 310.32 292.94 310.71 292.8 311.76 292.42 312.33 292.21 313.34 291.98 313.59 291.84 313.76 292.26 314.1 292.06 315.47 291.49 316.69 290.63 317.1 290.44 317.77 290.02 318.02 289.89 318.42 289.61 318.6 289.54 318.76 289.44 319.18 289.16 320.28 288.65 320.96 288.51 321.58 288.15 323.08 287.17 324.43 286.53 324.56 286.49 324.65 285.74 324.7 285.56 324.94 284.74 325.56 283.84 326.09 283.06 326.63 282.32 326.94 280.85 326.63 278.97 324.53 275.16 324.38 274.85 324.07 273.24 323.85 272.29 324.37 270.3 324.68 267.32 324.9 266.5 324.53 265.71 323.76 264.18 323.48 263.78 323.62 263.24 323.99 262.46 325.14 260.65 326.77 258.69 327.21 258.32 327.88 257.75 328.79 257.13 329.46 256.66 330.06 255.95 330.82 255.05 330.86 255.02 331.07 254.75 331.41 254.31 331.98 252.96 332.44 251.88 333.27 249.91 333.6 249.12 334.36 247.18" stroke="black"/>
<path d="M 321.92 346.88 321.88 346.9 321.68 346.97 321.02 347.22 320.36 347.47 319.7 347.72 319.38 347.83 319.05 347.94 318.36 348.14 317.69 348.39 317.02 348.68 316.8 348.77 316.21 348.57 315.77 348.41 315.35 348.26 315.45 348.54 314.8 348.77 315.05 349.46 315.01 349.48 314.4 349.7 314.66 350.39 313.94 350.45 313.2 350.49 312.66 350.55 312.15 350.59 311.79 350.62 311.27 350.66 309.81 350.78 309.63 350.8 309.18 350.83 308.87 350.85 308.42 349.64 307.7 349.91 307.02 350.16 306.34 350.42 305.72 350.65 304.91 350.93 304.85 350.59 304.79 350.28 304.74 350.04 304.58 349.15 303.89 349.41 303.14 349.68 303.07 349.62 302.38 349.73 301.69 349.84 301.01 349.96 300.31 350.08 300.26 349.8 298.88 350.05 297.29 350.36 297.42 351.04 297.55 351.72 297.59 351.99 296.72 350.58 295.84 349.87 295.12 349.81 294.91 349.88 294.5 350.04 294.1 350.26 293.37 350.54 293.18 350.6 292.68 350.8 293.15 353.28 292.44 353.42 291.74 353.55 291.03 353.68 290.33 353.82 289.65 353.95 289.02 354.07 288.4 354.2 288.23 354.23 287.77 354.32 287.15 354.44 286.46 354.57 285.78 354.71 285.1 354.84 284.4 354.98 283.71 355.11 283.02 355.25 282.32 355.38 281.63 355.52 280.92 355.66 280.22 355.79 279.45 355.95 278.7 356.09 278 356.23 277.3 356.37 276.59 356.5 276.27 354.85 276.16 353.75 276.79 353.38 276.28 353.05 274.1 351.39 273.66 351.07 273.26 350.77 273.09 350.64 273.78 349.71 274.02 349.39 274.18 349.17 273.62 348.75 273.02 348.3 273.77 347.29 273.21 346.86 272.59 346.57 273.31 343.9 272.95 343.59 272.66 343.37 273.58 341.6 273.07 341.36 272.89 341.23 271.78 342.72 271.21 342.29 270.63 341.85 270.05 341.42 269.47 340.99 268.9 340.55 268.32 340.12 267.74 339.69 267.17 339.25 266.59 338.82 266.01 338.39 265.44 337.96 264.86 337.52 263.74 339.02 263.1 338.67 262.47 338.32 261.82 337.97 260.9 339.21 260.32 338.78 259.69 338.3 259.14 339.03 258.61 339.74 258.11 339.37 258.03 339.31 257.29 338.76 257.14 338.64 256.56 338.2 256.45 338.12 255.98 337.77 255.64 337.51 255.41 337.34 255.23 337.21 254.86 336.93 254.77 336.87 253.96 336.24 253.33 335.78 252.85 335.41 252.72 335.32 252.37 335.06 252.25 334.97 251.91 334.72 251.33 334.28 250.79 333.89 250.55 333.71 250.04 333.33 249.72 333.07 247.74 333.37 247.62 332.63 247.52 331.96 247.45 331.4 247.15 331.19 245.16 331.5 243.01 331.82 242.24 331.94 240.83 332.14 240.95 332.88 238.75 333.21 238.86 333.95 238.98 334.7 236.46 335.08 235.75 335.19 235.06 335.3 234.38 335.4 233.65 335.51 232.93 335.62 232.23 335.73 231.22 335.88 230.57 335.98 229.85 336.09 228.99 336.24 228.29 336.37 227.93 334.24 227.9 334.09 227.24 334.21 227.91 333.8 227.89 333.44 227.66 332.19 226.94 332.34 226.25 332.41 225.51 332.38 224.75 332.33 223.98 332.29 223.22 332.24 222.42 332.21 221.64 332.17 220.86 332.13 220.47 332.1 220.11 332.09 219.33 332.04 219.09 332.03 218.57 332 218.84 333.92 218.09 333.88 217.8 331.96 217.23 331.93 216.8 331.91 214.91 331.8 214.97 330.32 214.98 329.16 214.77 328.74 213.14 328.64 211.67 328.56 211.62 329.44 210.86 329.41 210.23 329.39 210.11 329.39 210.11 329.61 210.1 330.06 210.06 330.81 210 331.25 209.98 331.54 209.94 332.37 209.92 332.78 209.91 333.22 209.87 333.94 209.83 335.12 209.8 336.32 209.76 336.98 209.72 337.89 209.69 338.67 209.27 339.67 209.88 339.98 210.92 340.52 210.6 341.14 210.4 341.53 210.29 341.76 209.95 342.4 209.62 343.05 209.29 343.69 208.96 344.33 210.63 345.19 212.29 346.04 213.8 346.81 215.63 347.76" stroke="black"/>
<path d="M 215.63 347.76 215.3 348.4 214.97 349.04 216.95 350.06 216.67 350.6 216.62 350.7 216.35 351.24 216.02 351.88 215.96 351.99 215.64 352.63 217.55 353.61 217.23 354.25 216.9 354.9 216.57 355.54 216.23 356.18 215.78 356.9 215.39 357.51 215.01 358.12 214.62 358.73 214.23 359.34 213.85 359.95 213.46 360.56 213.08 361.17 212.69 361.78 212.3 362.4 211.92 363 211.53 363.61 211.15 364.22 210.76 364.83 210.38 365.44 209.99 366.05 209.61 366.66 210.22 367.05 210.8 367.42 211.42 367.81 211.03 368.42 210.63 369.04 210.2 369.58 209.78 370.04 209.57 370.29 209.31 370.71 208.86 371.29 210.55 372.63 212.24 373.98 213.95 375.34 214.1 376.36 214.21 377.19 214.33 377.98 214.48 379.04 214.78 381.13 215.05 382.98" stroke="black"/>
<path d="M 215.05 382.98 214.32 383.36 213.94 383.56 213.56 383.76 212.97 384.06 211.27 384.93 208.92 386.15 209.57 386.68 210.16 387.15 209.7 387.66 209.25 388.22 208.81 388.79 208.36 389.36 206.72 388.05 204.97 386.66 204.52 387.22 204.38 387.43 204.09 387.8 203.63 388.37 201.95 387.02 201.71 387.32 201.5 387.59 201.05 388.15 200.6 388.72 200.16 389.29 199.71 389.85 199.26 390.42 198.81 390.99 198.36 391.55 197.92 392.12 199.61 393.47 200.12 393.87 199.57 394.36 199.02 394.84 198.47 395.33 197.92 395.81 197.37 396.3 196.82 396.78 196.91 396.85 196.48 397.44 198.17 398.78 197.7 399.37 197.24 399.96 197.03 400.22 196.94 400.33 196.79 400.52 196.35 401.09 195.9 401.65 195.42 402.26 193.73 400.92 194.21 400.31 194.66 399.74 194.03 399.24 192.97 398.4 191.27 397.05 191.72 396.48 191.81 396.36 191.94 396.21 192.17 395.92 190.48 394.57 190.03 395.14 188.34 393.79 186.64 392.45 184.91 391.07 184.47 391.64 184.02 392.21 183.77 392.61 183.57 392.83 181.89 391.39 181.07 390.72 180.22 390.13 180.68 389.55 181.12 388.99 181.57 388.41 182.02 387.85 182.48 387.26 182.95 386.67 183.38 386.12 181.67 384.78 182.15 384.19 182.6 383.62 183.04 383.06 183.49 382.49 183.94 381.92 184.38 381.36 184.83 380.79 185.27 380.23 185.72 379.66 186.17 379.09 186.62 378.51 187.97 376.82 188.41 376.23 188.86 375.68 189.3 375.12 189.8 374.53 190.19 373.94 191.91 375.31 192.54 374.48 192.77 374.2 193.22 373.6 193.68 373.04 194.12 372.48 194.56 371.91 195.02 371.34 195.16 371.17 195.51 370.71 195.9 370.21 196.4 369.56 198.08 370.95 198.24 371.11 198.42 371.29 198.83 370.69 199.29 370.15 199.6 369.46 201.05 370.62 201.5 370.05 200.04 368.89 200.48 368.32 200.91 367.74 201.35 367.17 201.83 366.62 202.25 366.04 202.74 365.51 203.02 365.16 203.2 364.94 203.64 364.37 203.8 364.21 203.8 363.93 203.11 362.47 202.67 361.72 202.2 361.14 202.42 361.22 202.74 361.42 204.55 362.58 204.94 361.97 203.12 360.81 201.96 360.08 201.9 360.06 201.51 359.77 201.3 359.23 201 358.68 200.77 358.2 200.68 358.17 200.47 358.1 199.51 357.75 197.97 357.18 197.75 357.78 197.48 358.53 196.07 358.01 194.86 357.56 193.56 357.06 193.34 357.7 193.07 358.41 192.96 358.62 191.52 358.15 190.42 357.2 189.33 356.22 188.12 355.14 188.6 354.6 187.66 353.76 188.14 353.21 188.62 352.68 187.47 351.64 187.95 351.1 188.43 350.56 188.91 350.04 189.31 349.47 190.53 350.55 190.99 350.92 191.94 349.84 192.9 348.76 192.64 348.51 193.49 347.33 194.16 346.49 194.59 346.5 194.72 346.58 194.81 346.63 194.89 346.58 194.97 346.51 195.21 346.49 195.5 346.57 195.75 345.9 195.99 345.21 196.24 344.54 195.75 344.35 194.03 344.16 193.92 343.95 193.74 343.58 193.83 343.45 194.11 343.26 194.28 343.17 194.32 343.16 194.47 343.08 194.63 342.98 194.29 342.85 193.51 342.57 193.89 341.73 195.16 342.24 195.51 342.4 196.17 341.72 196.23 341.67 195.88 341.52 195.02 341.17 195.37 340.39 196.65 340.94 196.8 341.01 196.96 341.08 197.4 340.4 197.42 340.37 197.14 340.23 196.16 339.83 195.48 339.54 195.76 338.86 197.39 339.61 197.67 339.73 197.72 339.76 197.73 339.74 197.94 339.09 197.95 339.07 197.65 338.92 196.01 338.22 196.28 337.63 197.87 338.4 198.18 338.54 198.41 337.96 198.53 337.64 198.22 337.5 196.58 336.73 196.9 336 198.5 336.73 198.88 336.89 198.99 336.8 199.44 336.46 199.49 336.11 199.25 336 198.86 335.83 197.28 335.13 197.58 334.54 197.76 334.2 199.31 334.92 199.64 335.09 200.01 334.02 200.04 333.97 199.7 333.78 198.29 332.98 198.41 332.68 199.89 333.41 200.24 333.57 200.27 333.49 200.38 333.26 200.55 332.91 200.59 332.78 200.25 332.63 198.48 331.93 198.88 331.26 198.88 331.25 200.6 331.79 200.9 331.89 201.19 331.2 201.05 331.15 199.45 330.65 199.82 329.98 201.35 330.39 201.56 330.44 201.78 329.86 201.65 329.82 200.32 329.39 202.01 326.75 202.02 326.72 202.86 326.99 203.31 327.13 203.33 327.09 203.41 326.72 203.54 326.55 204 325.93 204.08 325.83 204.05 325.79 203.98 325.72 201.4 322.87 200.69 321.98 200.32 321.62 200.06 321.42 199.84 321.54 199.37 320.98 198.72 320.33 197.47 319.07 197.16 318.96 197.16 318.85 197.1 318.96 196.93 318.93 197.07 318.6 197.16 318.38 196.21 317.9 195.86 317.71 196.19 317.6 196.39 317.32 196.52 317.14 196.85 316.71 197.2 316.2 197.58 315.75 197.51 315.99 198.03 315.58 198.16 315.13 198.35 314.66 198.68 314.07 199.34 312.87 199.76 312.17 200 311.77 200.41 311.1 200.56 310.86 201.1 309.97 201.47 310.18 202.01 309.04 202.4 309.25 202.41 309.22 202.6 308.57 202.84 307.78 203.27 306.35" stroke="black"/>
<path d="M 203.27 306.35 203.88 306.68 204.46 307 205.15 307.37 205.28 306.9 205.64 305.6 205.65 305.57 206.69 305.99 206.86 306.06 207.44 306.29 208.12 306.54 208.69 306.79 209.29 307.02 208.78 308.28 208.33 309.45 207.83 310.74 208.41 310.98 209.03 311.22 208.67 312.14 208.3 313.09 207.84 314.26 207.49 315.16 207.48 315.23 207.48 315.32 207.48 315.43 208.16 315.7 208.65 315.65 209.83 315.52 210.66 315.43 211.23 315.37 211.72 315.32 212.06 314.61 212.55 313.69 212.78 313.13 212.88 312.81 212.95 312.61 213.43 311.49 213.85 310.31 213.18 310.04 213.67 308.78 214.32 309.04 215.53 309.52 216.29 309.82 216.34 309.72 216.69 309.07 216.85 308.78 217.03 308.46 217.11 308.32 217.35 307.87 217.37 307.85 217.72 307.23 218.03 306.64 218.24 306.26 218.38 306.02 218.4 305.98 218.71 305.42 219.04 304.82 219.73 303.57 218.91 303.13 217.91 302.57 218.26 301.91 218.63 301.17 220.48 302.22 221.44 302.79 221.57 302.86 221.94 303.01 223.55 303.87 228.66 306.97 228.56 307.15 228.55 307.16 227.96 308.17 227.82 308.4 227.68 308.65 227.59 308.81 227.59 308.81 226.78 310.18 227.14 311.4 227.51 311.71 227.06 312.27 226.65 312.77 227.73 313.47 228.93 314.24 229.22 313.88 230.35 314.51 231.09 314.83 231.6 315 232.56 315.33 233.55 315.68 233.76 315.74 233.45 316.45 234.48 316.99 235.04 315.76 235.62 315.77 235.81 315.74 235.85 315.76 235.68 316.73 236.59 317.15 237.33 317.46 239.04 317.24 239.13 317.96 239.22 318.71 239.31 318.7 240.48 318.55 241.75 318.39 243 318.23 243.04 318.23 244.34 318.07 245.52 317.9 247.23 317.37 247.34 317.33 248.16 317.07 250.04 316.47 251.29 316.04 252.54 315.63 253 315.47 253.27 315.38 253.73 315.45 254.15 315.5 254.03 315.1 254.87 314.83 256.09 314.42 258.37 313.64 258.54 313.56 259.05 312.84 259.07 312.81 259.31 312.73 259.58 312.64 259.7 312.71 260.23 313.01 261.94 312.38 262.9 312.02 265.12 311.22 265.81 310.96 266.48 310.72 267.3 310.42 267.92 310.2 268.07 310.14" stroke="black"/>
<path d="M 172.1 480.74 172.1 480.6 172.11 480.38 172.16 479.37 172.16 479.24 172.18 478.87 172.34 475.16 172.59 469.37 172.97 460.56 173.05 458.8 173.06 458.69 173.44 455.26 170.88 442.16 173.36 442.69 192.7 447.18 192.81 447.21 193.76 447.43 194.92 447.71 196.77 448.24 197.62 448.5 207.13 451.4 209.02 451.18 209.25 450.91 209.49 450.64 210.07 450.22 210.91 450.01 210.95 450.18 212.5 448.4 213.38 449.14 214.29 450.34 214.43 449.92 214.66 448.38 214.68 448.11 214.8 448.37 217.24 448.69 219.5 448.31 219.5 448.52 220.42 448.29 221.48 448.08 223.67 447.68 224.21 447.61 224.57 447.57 224.94 447.54 225.5 447.44 226.01 447.46 226.92 447.4 227.13 447.37 227.76 447.23 228.13 447.17 229.45 447.02 229.58 447.1 230.51 446.89 230.51 446.74 230.49 446.57" stroke="black"/>
<path d="M 230.49 446.57 231.32 446.27 232.38 446.22 233.25 446.09 233.97 445.88 234.64 445.78 235.22 445.7 235.31 445.69 236.16 446.21 237.42 446.49 238.47 446.56 239.4 446.52 240.18 446.41 240.52 446.38 240.91 446.34 241.78 446.27 242.26 446.24 243.08 446.11 243.81 446 244.58 445.88 245.23 445.74 246.71 445.42 247.45 445.25 248.16 445.08 248.86 444.91 249.57 444.81 250.06 444.75 250.31 444.74 251.08 444.86 251.85 445.03 252.11 445.11 252.68 445.33 253.51 445.66 254.17 445.92 254.98 446.25 255.87 446.61 256.47 446.59 256.72 446.59 256.8 446.64 256.93 446.67 257.13 446.69 257.28 446.72 257.5 446.82 257.8 446.89 258.04 446.93 258.24 446.96 258.41 446.96 258.61 446.94 258.74 446.91 258.89 446.96 259.06 447.03 259.12 447.05 259.22 447 259.32 446.88 259.39 446.82 259.46 446.78 259.57 446.83 259.72 446.83 259.82 446.87 260.07 446.87 260.27 446.84 260.43 446.84 260.55 446.85 260.83 446.84 261 446.79 261.15 446.81 261.43 446.69 261.53 446.57 262.01 446.26 262.13 446.23 262.33 446.03 262.49 445.93 262.61 445.85 262.68 445.85 262.73 445.81 262.8 445.73 262.9 445.54 263.04 445.42 263.21 445.26 263.17 445.13 263.02 444.95 262.95 444.86 261.62 443.39 260.67 442.27 259.63 441.04 258.86 440.13 258.61 439.84 258.29 439.46 258.02 439.14 257.2 438.17 256.39 437.2 255.57 436.24 254.75 435.26 254.06 434.46 254.66 433.95 255.16 433.49 253.79 431.81 252.4 430.17 251 428.52 253.83 426.11 252.42 424.45 251.03 422.8 250.48 423.25 249.08 421.62 249.63 421.15 250.18 420.68 248.78 419.03 249.33 418.57 247.94 416.91 248.5 416.43 249.08 415.94 247.68 414.29 248.23 413.82 248.77 413.36 249.32 412.89 249.87 412.42 250.42 411.95 251.01 411.44 250.52 410.89 249.9 410.13 249.6 409.78 249.02 409.06 248.63 408.58 248.18 408.02 247.6 407.29 247.14 406.73 246.39 405.79 246.27 405.64 246.15 405.5 246.07 405.4 246.69 405.34 247.19 405.3 247.41 405.29 248.13 405.23 248.88 405.16 249.62 405.1 250.34 405.05 250.86 405.01 251.08 404.99 251.29 404.97 251.68 404.32 251.68 403.04 251.8 403.03 251.78 402.3 251.79 401.79 251.79 401.14 251.84 400.79 251.93 400.64 252.2 400.62 252.94 400.56 252.85 399.44 253.52 398.55 253.85 398.1 254.18 397.63 254.88 396.71 255.56 395.75 255.69 395.57 256.19 394.71 256.93 394.26 257.63 393.8 258.33 393.38 259.04 392.89 259.73 392.31 260.41 391.73 261.08 391.16 261.82 390.53 261.75 389.57 261.7 389.09 261.67 388.64 261.61 388.01 261.48 386.39 261.44 386.01 261.43 385.68 261.33 384.52 261.28 383.88 261.27 383.76 261.26 383.66 261.13 382.07 261.12 381.88 261.05 381 261.7 380.45 262.25 379.98 262.84 379.48 263.43 378.97 263.98 378.51 264.52 378.04 265.07 377.57 265.62 377.11 266.28 376.53 266.21 376.43 266.38 376.44 267.3 376.46 268.56 376.42 268.62 376.41 269.3 376.28 268.99 374.73 268.66 373.03 269.4 372.89 270.1 372.75 270.82 372.61 271.55 372.47 272.25 372.33 272.96 372.19 273.7 372.05 274.44 371.9 275.15 371.76 275.86 371.62 275.55 370.07 275.25 368.51 274.94 366.97 274.61 365.4 274.32 363.85 274.02 362.3 273.34 362.44 272.63 362.57 271.89 362.72 271.64 361.44 270.9 361.58 270.2 361.72 269.49 361.86 268.77 362.01 268.52 360.72 268.27 359.43 268.06 358.3 268.07 358.18 266.69 358.08 265.95 358.02 266.01 357.12 263.88 356.97 261.76 356.82 259.77 356.67 257.5 356.51 257.47 356.96 255.35 356.81 255.39 356.36 253.25 356.2 253.32 355.3 253.38 354.51 251.25 354.36 249.12 354.2 247.55 354.09 246.99 354.05 245.32 353.93 244.87 353.9 244.74 353.89 242.74 353.75 240.62 353.59 238.49 353.44 236.28 353.28 234.16 352.73 233.33 352.5 231.58 352.02 229.19 351.36 227.56 350.9 226.8 350.7 224.58 350.08 224.79 349.31 224.95 348.5 224.03 348.25 223.18 348.01 222.52 347.83 221.67 347.6 221.22 347.47 220.88 347.38 220.11 347.18 219.3 346.96 218.46 346.73 217.28 346.17 216.61 345.83 216.29 346.47 215.97 347.11 215.63 347.76" stroke="black"/>
<path d="M 230.49 446.57 230.48 445.58 230.46 444.89 230.42 444.08 231.19 443.97 232.07 443.84 232.9 443.72 233.61 443.62 233.59 443.38 233.46 442.44 233.31 441.47 233.26 441.23 232.99 439.33 233.7 439.23 234.41 439.12 234.71 439.1 235.12 439.02 235.86 438.91 236.6 438.81 236.3 436.66 237.02 436.56 236.82 435.12 236.68 434.14 235.95 434.25 235.64 432.1 234.9 432.22 234.16 432.31 233.77 432.37 233.45 432.42 233.12 430.14 232.78 427.73 232.58 426.36 232.44 425.37 232.01 422.39 231.77 420.72 231.06 420.82 230.35 420.92 229.63 421.02 228.92 421.13 228.86 421.14" stroke="black"/>
<path d="M 228.86 421.14 228.49 418.55 228.11 415.86 227.95 414.81 227.91 414.46 227.81 413.74 227.76 413.45 227.7 413.03 227.41 411.02 227.06 408.61 226.3 408.72 225.59 408.82 224.87 408.92 224.05 409.04 223.7 406.62 222.64 406.78 222.35 404.72 222.3 404.36 221.24 404.5 220.54 404.62 219.82 404.72 219.11 404.82 218.68 404.9 218.22 404.96 218.06 403.92 218.01 403.63 217.96 403.34 217.87 402.56 217.75 401.81 217.63 401.02 217.51 400.13 217.66 400.04 218.36 399.6 219.04 399.18 219.69 398.77 220.55 398.24 220.85 398.05 221.15 397.86 221.35 397.74 221.55 397.62 222.34 397.13 223.11 396.65 222.79 394.41 223.5 394.31 224.51 394.16 224.37 393.51 223.99 391.76 223.94 391.52 223.84 391.02 223.47 389.37 223.41 389.06 223.25 388.39 223.1 387.7 222.94 386.98 222.77 386.18 222.59 385.39 222.41 384.59 222.36 384.31 221.67 384.7 221.41 384.84 220.63 385.25 219.79 385.7 219.59 385.81 219.43 385.91 219.3 385.04 218.46 385.16 217.75 385.26 217.04 385.36 216.72 383.15 216.01 383.25 215.11 383.38 215.05 382.98" stroke="black"/>
<path d="M 222.14 212.15 225.77 214.03 226.56 214.49 226.85 214.68 227.09 214.84 227.11 214.86 227.17 214.9 227.76 215.35 228.37 215.84 229.07 216.22 229.84 216.65 232.02 217.86 232.92 218.42 232.8 219.11 232.52 219.85 232.26 220.48 231.91 221.12 231.18 222.44 230.82 223.13 230.63 223.87 230.44 224.6 229.86 226.82 227.72 225.63 227.39 226.24 227.03 226.88 226.68 227.52 226.3 228.2 225.92 228.89 225.57 229.53 225.22 230.17 224.87 230.81 224.52 231.44 224.18 232.05 225.21 232.62 225.3 232.67 226.37 233.26 227.38 233.94 228.51 234.53 227.84 235.74 227.77 235.87 227.48 236.4 228.72 237.13 228.87 237.2 229.1 237.31 229.31 237.43 229.47 237.54 229.67 237.68 229.87 237.84 230.05 238 230.17 238.11 230.32 238.23 230.48 238.34 230.64 238.43 230.81 238.51 231 238.58 231.15 238.63 231.32 238.66 231.46 238.7 231.63 238.76 231.82 238.84 232.03 238.95 232.69 239.32 233.18 239.6 234.32 240.23" stroke="black"/>
<path d="M 234.32 240.23 234.12 240.57 233.93 240.91 233.56 241.61 233.21 242.24 232.86 242.87 232.5 243.51 232.15 244.15 231.8 244.78 231.45 245.42 231.1 246.06 230.75 246.69 230.37 247.38 229.98 248.07 229.64 248.69 229.28 249.36 228.92 250 228.56 250.65 228.26 251.19 228.21 251.29 227.82 251.98 227.44 252.68 227.09 253.32 226.74 253.96 226.38 254.61 226.02 255.25 225.67 255.89 225.28 256.58 224.9 257.27 224.55 257.91 224.21 258.55 223.85 259.18 223.5 259.81 223.14 260.45 222.79 261.08 222.45 261.72 222.1 262.35 221.74 262.99 221.4 263.62 221.05 264.25 220.69 264.88 220.22 264.58 218.22 263.46 216.04 262.24 214.28 261.27 214.23 261.34 214.17 261.4 214.1 261.45 214.07 261.46 214.01 261.49 213.93 261.5 213.86 261.5 213.79 261.48 213.72 261.45 213.68 261.43 213.5 261.71 213.12 262.41 212.74 263.09 212.39 263.72 212.04 264.36 211.69 264.99 211.34 265.62 210.99 266.26 210.64 266.89 210.29 267.53 210.06 267.94 209.94 268.16 209.59 268.8 209.24 269.43 208.89 270.06 208.54 270.7 208.19 271.34 210.37 272.55 209.99 273.23 209.61 273.91 209.27 274.54 208.93 275.17 208.58 275.79 208.23 276.42 206.05 275.21 205.71 275.83 207.88 277.04 207.55 277.67 207.17 278.35 206.8 279.03 204.62 277.81 204.33 278.34 203.93 279.06 203.58 279.69 203.23 280.31 202.89 280.93 202.54 281.56 202.2 282.19 201.85 282.82 201.5 283.46 201.13 284.12 200.76 284.8 200.41 285.43 200.09 286.02 199.76 286.61 199.43 287.2 199.1 287.8 198.78 288.39 198.42 289.04 198.03 289.74 200.21 290.96 200.57 291.15 202.4 292.16 204.87 293.54 204.49 294.24 204.13 294.89 203.77 295.54 203.43 296.14 203.11 296.74 202.77 297.34 202.55 297.74 203.72 298.4 203.38 298.9 203.95 299.27 204.53 299.65 204.16 300.23 203.76 300.83 203.35 301.45 202.54 302.73 203.16 303.14 203.76 303.54 203.16 304.48 202.81 305.03 203.13 305.3 203.54 305.63 203.27 306.35" stroke="black"/>
<path d="M 228.86 421.14 228.1 421.25 227.39 421.35 226.68 421.45 225.85 421.57 224.8 421.73 223.75 421.88 223.03 421.98 222.32 422.09 221.54 422.2 220.71 422.32 221.02 424.49 221.17 425.52 221.34 427 220.67 426.91 220.56 426.89 219.96 426.81 219.78 426.78 219.25 426.7 219.04 426.67 218.3 426.55 217.55 426.41 216.8 426.27 217 427.61 217.34 429.96 217.68 432.38 216.92 432.49 216.15 432.6 215.83 432.65 216.15 434.93 215.77 434.99 215.05 435.09 214.34 435.2 213.63 435.3 212.92 435.4 212.47 435.47 212.21 435.5 211.44 435.62 211.48 435.88 210.71 436.86 209.19 438.77 207.94 440.36 207.37 439.91 206.8 439.45 206.25 439.01 205.68 438.56 205.1 438.1 204.56 437.67 204.42 437.78 204.36 437.69 203.93 437.28 203.57 436.88 203.43 436.71 202.95 436.18 202.47 435.65 203.64 434.18 205.07 432.36 206.42 430.65 206.9 430.04 207.35 429.48 207.8 428.91 208.25 428.34 206.53 426.98 206.98 426.42 207.43 425.85 207.87 425.28 206.16 423.92 204.47 422.58 202.78 421.23 201.27 420.03 200.83 420.6 200.39 421.18 199.95 421.75 199.47 422.28 199.25 422.5 198.55 422 197.92 421.56 197.34 421.16 195.35 419.78 193.59 418.53 194.04 417.96 194.49 417.4 194.93 416.83 195.38 416.26 195.83 415.7 197.52 417.04 197.96 416.48 196.27 415.13 196.72 414.57 197.17 414 197.65 413.39 198.13 412.78 198.57 412.22 199.02 411.65 199.47 411.08 197.78 409.74 198.22 409.17 198.67 408.61 199.05 408.13 197.32 406.84 195.63 405.49 193.95 404.12 192.28 402.75 192.35 402.66 191.19 401.74 190.66 401.31 188.97 399.97 188.53 400.53 187.65 399.84 187.33 399.58 187.15 399.42 186.95 399.25 185.8 398.57 185.74 398.53 184.81 397.97 183.83 397.38 183.68 397.29 182.12 396.35 181.91 396.22 179.97 395.08 178.55 394.51 177.96 394.27 178.25 393.33 176.8 392.74 176.25 392.51 175.7 392.29 174.24 391.69 173.57 391.42 172.64 391.01 172.36 391.96 171.75 392.42 171.35 392.28 171.77 391.64 172.49 390.06 171.86 389.4 172.24 388.85 173.68 387.11 174.06 386.74 159.09 374.92" stroke="black"/>
<path d="M 234.32 240.23 234.67 239.6 235.9 240.28 237.13 240.96 238.38 241.66 239.61 242.35 239.27 242.97 240.99 243.92 240.62 244.64 242.42 245.64 242.96 245.93 243.01 245.99 243.11 246.1 243.27 246.17 243.63 246.37 243.64 246.28 243.79 245.89 245.02 244.59 245.76 244.12 246.34 243.64 246.8 243.1 247.32 242.24 247.89 241.21 248.17 240.4 248.49 239.61 248.79 238.97 249.14 238.29 249.51 237.66 249.99 237.18 251.62 235.68 253.04 234.69 253.67 234.3 254.18 233.68 254.36 233.25 254.33 232.87 254.51 232.02 254.63 230.46 254.56 227.8 253.86 225.29 254.77 224.74 255.01 224.58 255.02 224.57" stroke="black"/>
<path d="M 255.02 224.57 255.11 224.73 255.39 225.36 255.87 226.45 257.46 226.44 259.27 226.44 259.36 226.44 259.64 226.44 260.33 227.09 260.71 227.45 262.46 229.56 262.48 229.58 264.24 230.8 264.29 230.84 264.63 231.2 265.44 231.52 266.17 231.81 266.3 231.91 267.16 232.52" stroke="black"/>
<path d="M 267.16 232.52 267.18 232.6 268.18 235.84 268.66 237.79 266.46 239.95 264.97 240.72 264.24 242.24 263.08 243.89 262.81 244.28 262 244.94 261.08 246.02 260.81 246.3 260.54 246.58 260.3 246.84 260.67 247.12 260.83 247.25 262.15 248.54 261.87 248.84 261.31 249.45 260.8 250 260.34 250.5 259.87 251.01 259.37 251.55 258.86 252.1 258.52 252.44 259.08 253.62 258.86 253.86 259.58 254.64 260.14 255.14 260.53 255.74 261.05 256.24 261.58 256.73 262.09 257.3 262.51 257.69 263.36 258.46 264.2 259.08 265.57 259.46 266.53 259.65 266.88 259.67 267.01 259.63 266.85 259.93 267.6 260.08 268.37 260.24 269.1 260.4 269.85 260.55 269.02 261.91 267.47 264.42 266.48 266.03 265.29 267.95 264.87 268.64 263.4 271.02 261.99 273.31 261.97 273.34 262.58 273.72 261.62 275.28 261.19 275.97 261.04 276.02 260.83 277.45 260.86 277.51 260.93 277.61 261.28 277.9 261.34 277.97 261.37 278.01 261.41 278.1 261.42 278.16 261.43 278.25 261.42 278.29 261.31 279.11 261.26 279.42 261.2 279.85 260.8 279.95 257.38 280.83 257.3 281.33 257.21 281.96 256.53 281.84 255.78 281.9 255.02 282.1 254.24 282.33 253.5 282.5 253.41 283.11 254.13 283.22 253.86 284.98 253.84 285.14 253.55 287.01 253.27 288.88 253.98 288.99 253.55 291.85 253.77 291.99 254.88 292.66 255.15 292.85 255.3 292.88 255.54 292.94 256.21 293.22 256.96 293.4 257.66 293.51 258.36 293.76 258.4 293.8 259.01 294.09 260.46 294.6 260.42 294.67 260.43 294.78 260.48 295.04 260.86 295.12 260.83 295.27 260.82 295.41 260.83 295.48 260.85 295.57 261.44 296.87 261.87 297.33 262.23 297.72 262.22 297.82 262.19 297.87 263.09 298.34 263.39 298.48 267.65 300.08 267.54 299.68" stroke="black"/>
<path d="M 299.08 148.95 298.57 150.57 298.18 150.53 296.14 154.38 296.01 154.59 296.45 154.85 295.75 155.97 294.97 157.06 294.42 157.57 293.87 158.05 292.23 159.35 291.14 160.13 289.76 161.06" stroke="black"/>
<path d="M 289.76 161.06 289.34 160.38 288.72 160.85 288.18 161.27 288.07 161.35 287.57 161.74 286.88 162.28 285.89 163.43 284.87 164.61 284.36 165.1 283.39 166.02 283.08 165.85 282.26 165.89 282.73 164.82 283.07 164.05 282.57 163.65 282.04 165 281.71 165.8 281.59 165.78 280.74 165.65 279.93 165.46 279.02 165.18 278 165.37 278.27 164.88 277.38 164.37 276.55 163.91 275.94 164.95 275 164.99 274.22 164.97 273.66 164.97 272.98 164.96 272.04 164.93 270.15 167.71 269.41 167.57 268.31 167.14 267.85 167.38 266.56 168.14 264.93 169.07 264.93 168.91 265.1 168.72 265.19 168.57 264.95 168.64 264.68 168.79 264.49 168.95 264.36 168.99 263.99 169.79 264.57 169.9 263.87 172.96 263.76 173.23 262.81 174.88 262.47 175.02 262.1 175.19 262.46 175.48 262.69 176.34 261.16 178.1 260.43 179.28 260.14 179.75 259.84 180.22 259.64 180.54 260.37 180.77 260.99 181.06 260.61 181.44 259.53 182.76 259.47 182.87 258.29 182.87 257.2 182.37 256.95 182.23 256.57 182.01 256.32 181.95 256.08 181.82 255.96 181.7 255.71 181.55 255.24 182.3 255.24 182.3 255.2 182.36 255.18 182.39 255.08 182.62 255.06 182.65 255.06 182.66 255.06 182.66 255.04 182.7 254.49 183.92 254.29 184.84 254.11 185.64 254.04 185.73 254.01 185.77 254 185.77 253.96 185.83 253.74 186.11 253.61 186.37 253.39 187.36 253.42 187.77 253.39 187.86 253.26 188.38 253.25 188.41 253.22 188.46 251.88 191.42 251.42 192.44 251.4 192.61 251.31 193.32 251.11 194.98 251.19 196.81 251.37 199.23 251.37 199.3 251.39 199.58 251.42 199.95 251.47 200.02 251.7 200.33 251.75 200.39 251.75 200.41 251.8 200.46 251.78 201.65 251.78 202.16 251.8 202.27 251.8 202.49 251.79 202.57 251.72 202.82 251.7 202.88 251.69 202.93 251.67 203.02 251.65 203.1 251.66 203.16 251.76 203.77 251.78 203.91 251.81 204.15 251.96 204.73 251.93 204.85 251.88 205.13 251.88 205.16 251.88 205.54 251.92 205.78 251.96 206.11 251.96 206.9 251.96 206.96 252 207.13 252.03 207.26 252.1 208.75 252.11 208.92 252.11 209.02 252.11 213.45 252.1 213.55 252.04 213.8 252.04 213.85 251.89 214.24 251.88 214.26 251.88 214.28 251.96 214.47 251.99 214.54 252.11 214.87 251.8 216.92 252.31 219.9 252.42 220.55 252.44 220.58 252.96 221.28 253.42 222.07 253.56 222.3 253.82 222.71 255.02 224.57" stroke="black"/>
<path d="M 250.8 145.19 257.59 148.31 257.73 148.37 257.84 148.42 257.95 148.48 258.93 148.62 259.41 148.68 260.21 149.21 260.27 149.25 260.33 149.29 261.55 150.92 262.08 151.07 262.23 151.11 263.47 151.47 263.97 151.61 265.09 151.93 265.11 151.84 265.12 151.81 265.15 151.68 265.15 151.66 265.32 150.92 265.47 150.8 267.39 149.29 267.67 148.79 268.01 148.17 268.95 148.44 269.07 148.27 269.33 147.93 270.32 146.61 271.19 145.44 272.38 144.08 273.68 142.59 274.85 141.27 275.66 140.34 276.38 140.61 276.89 140.8 277.59 140.96 278.78 141.26 278.95 141.3 279.57 141.45 280.06 141.57 280.84 141.89 280.97 141.85 282.23 142.09 283.09 142.31 283.83 142.5 284.56 142.68 285.29 142.87 286.33 143.11 286.69 142.97 288.16 143.75 289.68 144.1 290.52 144.26 291.17 144.69 292.15 142.98 292.61 142.14 293.65 140.24 293.79 140.54 293.96 142.85 293.87 143.93 293.56 145.25 294.3 145.42 295 145.58 295.71 145.74 296.21 145.85 296.12 147.36 296.01 147.49 296.68 147.4 297.44 147.3 298.33 147.2 299.1 147.18 299.62 147.21 299.08 148.95" stroke="black"/>
<path d="M 299.08 148.95 299.49 149.09 299.69 149.15 299.73 149.18 300.09 149.29 300.24 149.34 299.69 151.08 299.6 151.87 299.56 152.17 299.52 154.26 299.37 156.06 299.39 157.93 300.36 157.92 301.16 157.92 301.94 157.91 301.9 159.74 302.67 159.76 302.72 158.1 302.72 157.91 303.44 157.93 304.16 157.95 304.88 157.96 305.61 157.98 306.38 158 307.16 158.02 307.88 158.04 307.83 159.89 308.56 159.9 309.28 159.92 310 159.94 310.78 159.96 311.56 159.97 312.28 159.99 313 160.01 313.72 160.03 314.44 160.04 315.16 160.06 315.12 161.93 315.34 161.6 315.78 161.04 315.8 161.42 315.87 161.76 316.1 161.42 316.63 161.14 317.32 160.08 318.1 160.13 318.82 160.15 319.55 160.17 320.38 160.19 320.67 160.15 320.55 160.52 321.59 160.85 321.61 159.85 321.9 159.77 322.35 160.08 323.04 160.55 323.44 160.83 323.8 161.08 324.5 161.56 325.17 162.02 325.58 162.31 325.99 162.6 329.29 165.08 329.82 165.49 331.33 166.35 331.88 166.71 332.06 166.9 332.17 167.32 332.3 167.68 332.51 168.16 332.58 168.38 332.66 168.56 333.94 168.02 334.57 167.72 337.84 166.37 338.29 165.97 339.12 165.23 338.62 164.9 338.25 163.96 338.01 160.14 337.9 159.38 337.21 158.98 336.94 158.85 337.23 158.54 335.67 154.45 337.35 148.49 338.26 145.29 338.35 141.9 338.69 141.62 337.9 140.47 336.61 140.16 335.71 139.84 334.95 138.74 335.09 137.42 335.1 137.46 335.11 137.5 335.12 137.54 335.16 137.52 335.28 137.48 335.3 137.48 335.41 137.44 335.43 137.43 335.47 137.42 335.47 137.41 335.46 137.4 335.44 137.33 335.38 137.25 335.37 137.21 335.38 137.14 335.39 137.11 335.4 136.94 335.41 136.89 335.42 136.86 335.46 136.85 335.49 136.85 335.61 136.86 335.67 136.86 335.77 136.73 335.79 136.66 335.81 136.62 335.81 136.49 335.8 136.4 335.74 136.35 335.7 136.31 335.67 136.28 335.68 136.18 335.71 136.06 335.75 136.09 335.9 136.19 335.93 136.21 336.25 136.32 336.89 136.54 337.23 136.66 337.44 136.73 338.42 137.07 338.45 137.08 338.54 137.12 338.58 137.13 338.59 137.13 338.65 137.16 339.02 137.29 339.18 137.34 339.29 137.38 339.35 137.41 339.58 137.48 340.03 137.61 340.05 137.61 340.05 137.61 340.71 137.79 340.81 137.81 340.9 137.86 341.12 137.98 341.19 138.02 341.38 138.07 341.58 138.12 341.79 138.23 341.84 138.26 341.92 138.3 342.01 138.35 342.99 138.58 343.07 138.6 343.09 138.6 343.1 138.61 343.85 138.87 344.02 138.93 344.91 139.22 345.04 139.27 345.06 139.28 345.15 139.32 345.18 139.33 345.19 139.33 345.93 139.63 345.94 139.64 346.3 139.72 346.87 139.84 347.15 139.96 347.75 140.23 347.75 140.23 348.65 140.53 349.16 140.67 349.41 140.74 349.46 140.75 349.48 140.76 349.49 140.76 349.88 140.83 349.9 140.84 350.03 140.88 350.13 140.92 350.34 140.99 351.26 141.31 351.3 141.33 352.11 141.64 352.32 141.72 354.11 142.35 354.87 142.63 355.6 142.88 355.63 142.89 355.79 142.89 356.4 143.08 356.42 143.08 357.51 143.47 357.93 143.6 358.13 143.66 358.98 143.98 364.47 145.82 366.08 146.35 366.19 146.38 366.2 146.38 366.22 146.39 366.3 146.42 366.74 146.56 367.01 146.65 367.18 146.7 368 146.96 371.11 148.04 383.52 152.34 387.46 153.73 392.36 155.46 393.45 155.85" stroke="black"/>
<path d="M 267.16 232.52 276.91 236.23 281.72 238.02 282.24 238.22 282.25 238.21 284.15 230.72 285.21 230.9 285.65 230.62 286.06 230.36 289.17 233.28 293.17 234.32 295.57 235.75 296.54 236.44 298.98 239.92 299.02 239.98 299.08 239.84 299.78 238.17 299.8 238.1 302.33 235.09 305.13 231.73 305.41 231.41 312.5 229.07 313.77 228.66 317.73 228 319.74 227.67 319.71 227.61 319.63 227.37 318.6 224.62 318.91 222.26 320.44 216.88 320.96 215.01 321.23 213.99 323.68 207.22 321.13 200.46 321.08 200.41 321.05 200.37 321.07 200.36 321.11 200.36 321.09 200.31 321.01 200.17 320.98 200.18 320.88 199.95 320.88 199.94 320.78 199.73 320.79 199.73 320.81 199.73 320.89 199.72 320.73 199.61 320.81 199.58 320.81 199.47 320.82 199.36 320.59 199.42 320.51 199.3 320.3 199.04 319.71 199.06 318.83 199.23 317.22 198.68 316.04 198.21 314.62 197.64 313.43 197.17 312 196.59 311.53 196.71 310.9 196.45 309.49 195.88 308.48 195.17 308.21 194.74 309.23 194.6 309.09 193.83 306.79 194.16 306.71 193.54 306.63 192.6 306.07 192.57 305.93 192.56 305.72 192.55 305.06 192.59 304.75 190.22 304.74 190.11 304.47 188.06 304.46 188.01 304.36 187.76 304.06 186.95 303.87 186.48 302.78 187.05 302.56 187.17 302.46 187.22 302.02 187.46 301.81 187.21 300.81 185.97 300.27 186.41 299.74 186.86 299.37 187.51 298.81 186.82 298.17 186.48 297.65 187.17 296.73 186.73 296.28 186.51 295.13 185.96 294.54 185.79 294.08 185.62 293.53 185.39 294.19 183.99 294.21 183.95 294.8 182.67 294.82 182.47 294.85 182.24 294.89 182.01 294.93 181.8 295.01 181.55 295.09 181.3 295.17 181.1 295.74 179.62 295.72 177.44 296.78 174.99 296.1 174.22 294.75 174.3 294.58 172.91 294.61 172.36 294.11 172.44 291.64 171.05 291.58 171 291.55 170.86 291.52 170.72 291.45 170.28 291.4 170.1 291.38 169.94 291.36 169.75 291.35 169.53 291.36 169.34 291.38 169.17 291.39 169.12 291.54 168.27 291.56 168.08 291.66 167.25 289.05 162.73 288.45 162.01 288.65 161.87 289.76 161.06" stroke="black"/>
<path d="M 497.26 75.34 499.15 74.82 500.75 74.37 504.8 73.21 505.22 73.08 505.95 72.87 506.68 72.66 508.71 72.09 514.32 70.51 514.78 70.38 516.8 69.82 519.44 69.09 527.35 66.89 529.99 66.16 531.22 65.81 534.91 64.79 536.15 64.45 536.36 64.39 537 64.21 537.21 64.15 538.31 63.84 541.63 62.92 542.73 62.62 544.19 62.21 548.56 61 550.01 60.59 552.53 59.89 560.1 57.79 562.63 57.09 564.27 56.64 569.2 55.28 570.84 54.83 574.07 53.94 583.75 51.28 584.28 51.14 586.97 50.38 593.06 48.68 611.3 43.59 617.39 41.89 619.56 41.29 626.07 39.47 628.24 38.86 629.41 38.53 632.93 37.55 634.1 37.22 634.53 37.1 635.81 36.75 636.23 36.63 642.73 34.81 662.24 29.37 668.74 27.55 669.63 27.33 672.3 26.66 673.19 26.43 673.4 26.38 674.04 26.22 674.25 26.16 674.91 26 676.86 25.51 677.51 25.35 678.06 25.15 679.73 24.56 680.28 24.37 692.26 21.16 728.18 11.53 740.15 8.32 740.17 41.74 740.19 41.74 740.19 91.76 740.26 91.76 740.11 99.08 741.33 102.23 744.6 103.79 748.96 105.58 751.79 106.97 752.21 107.17 754.09 108.02 754.37 108.28 759.11 110.56 762.55 112.17 766.13 113.24 770.37 114.23 771.6 114.52 774.41 115.97 775.25 116.01 777.38 116.13 778.41 116.25 779.44 116.38 780.32 116.41 781.06 116.5 782.48 117.17 784.11 117.97 784.37 118.08 784.8 117.94 785.43 117.46 785.75 117.14 786.36 116.7 786.66 116.54 786.95 116.52 787.25 116.59 787.41 116.67 787.41 116.86 787.31 117.09 787.08 117.37 786.75 117.51 786.5 117.58 786.23 117.66 785.89 117.85 785.58 118.05 785.51 118.21 785.7 118.36 785.97 118.63 786.06 118.93 786.01 119.4 785.93 119.84 790.37 122.27 790.55 122.61 790.77 122.96 792.94 123.84 793.39 124.03 794.31 124.29 795.46 125.18 796.96 125.1 798.8 125.15 799 125.43 798.68 125.66 797.02 125.4 797 126.01 796.46 126.05 796.35 126.63 795.54 126.65 795.25 126.91 794.81 126.98 794.41 127.67 794.31 127.89 794.19 128.75 793.99 128.58 793.93 129.06 793.53 128.91 793.38 129.67 792.88 129.9 792.44 130.03 792.55 131.29 792.8 133.38 792.51 133.4 792.2 133.42 791.89 133.41 791.17 133.22 790.8 133.12 790.65 133.01 790.47 132.89 790.31 132.79 790.09 132.75 789.91 132.73 789.45 132.65 789.39 132.64 789.2 132.6 788.93 132.55 788.85 132.63 788.64 132.84 788.39 133.01 787.77 133.31 787.2 133.74 786.93 134.09 786.47 134.76 786.21 135.26 785.77 135.49 785.25 135.71 784.3 135.84 783.99 136.24 783.63 136.73 783.31 137.25 782.87 137.96 782.75 139.01 782.59 139.77 782.8 141.23 783.31 142.77 783.57 142.75 783.64 143.09 783.84 143.74 784.17 144.79 784.32 145.41 784.32 145.69 783.98 146.16 782.98 147.54 782.35 148.39 782.26 148.37 782.15 148.33 782.03 148.29 781.97 148.36 781.82 148.58 781.72 148.76 782.06 149.01 781.9 149.61 781.62 150.47 781.46 150.96 781.29 151.21 781.21 151.31 781.16 151.41 781 151.6 780.7 151.89 780.35 152.05 780.21 152.12 780.04 152.25 779.93 152.38 779.83 152.5 779.73 152.68 779.65 152.87 779.59 153.05 779.57 153.28 779.57 154.1 779.6 154.27 779.79 154.92 779.61 156.5 779.58 156.64 779.48 157.11 779.46 157.18 779.41 157.33 779.36 157.48 779.23 158.03 779.04 158.45 778.53 159.5 777 161.26 777.24 161.5 777.27 161.54 777.31 161.69 777.4 162.18 777.44 162.45 777.5 162.61 777.81 163.26 777.91 163.54 777.93 163.68 777.92 163.85 777.89 164.23 777.88 164.39 777.87 164.58 777.94 164.76 778.21 165.24 778.45 165.69 778.84 166.39 778.89 166.48 779.71 166.9 779.91 167.02 780.94 167.56 781.07 167.63 781.11 167.65 781.21 167.7 781.46 167.82 781.67 167.93 781.92 168.13 782.12 168.39 782.35 168.65 782.57 168.88 783 169.38 783.2 169.59 783.33 169.67 783.59 169.82 783.8 169.96 783.97 170.08 784.15 170.23 784.28 170.36 784.46 170.57 784.52 170.67 784.33 170.76 784.12 170.84 783.87 170.88 783.44 170.93 783.26 170.96 783.09 171.03 781.9 171.58 781.77 171.63 781.63 171.66 781.4 171.67 781.08 171.64 780.51 171.57 780.18 171.54 779.42 171.46 779.11 171.44 778.2 171.54 777.55 171.63 777.37 171.7 777.25 171.82 777.14 171.97 777 172.17 776.9 172.35 776.85 172.54 776.83 172.73 776.86 172.93 776.92 173.1 776.99 173.25 777.07 173.41 777.14 173.52 777.22 173.63 777.55 173.94 777.76 174.06 778.08 174.22 778.3 174.33 778.43 174.42 778.56 174.53 778.66 174.69 778.75 174.89 778.8 175.05 778.82 175.29 778.8 175.48 778.76 175.65 778.7 175.83 778.55 176.07 778.43 176.23 778.22 176.46 777.95 176.75 777.81 176.86 777.48 177.16 777.28 177.4 777.2 177.66 777.19 177.93 777.23 178.16 777.23 178.23 777.26 178.32 777.28 178.46 777.3 178.67 777.44 179.62 777.09 179.69 776.24 179.92 775.36 180.16 774.64 180.36 774.27 180.47 773.49 180.7 772.59 180.98 772 181.13 771.41 181.21 770.93 181.27 770.36 181.26 770.07 181.9 769.96 182.15 769.84 182.21 769.61 182.37 769.46 182.45 769.39 182.54 769.18 182.77 768.86 183.02 768.91 183.45 769.01 183.66 769.63 184.39 769.73 184.6 769.74 184.77 769.71 184.98 769.66 185.26 771.19 185.16 771.28 186.27 771.31 186.82 771.31 187.2 771.24 188.27 770.86 188.19 770.22 188.03 769.52 188.12 769.31 188.17 768.53 188.39 767.88 188.32 767.6 188.41 767.2 188.59 767.05 188.61 766.5 188.66 764.86 188.76 764.63 188.79 763.99 188.83 763.66 188.86 763.39 188.84 763.18 188.77 763.02 188.66 762.91 188.55 762.74 188.38 762.55 188.13 762.27 187.83 761.49 187.36 761.11 187.15 760.94 187.47 760.84 187.67 760.77 187.97 760.57 188.3 760.36 188.17 760.13 188.12 759.99 188.13 759.79 188.18 759.62 190.79 759.53 191.72 760.8 192.26 762.73 193.14 762.98 193.24 764.41 193.85 764.67 193.97 766.43 194.69 766.56 194.74 766.81 194.87 768.47 195.6 768.91 195.79 769.03 195.83 769.14 195.88 769.34 195.96 770.13 196.3 771.13 196.74 771.76 197.04 772.33 197.3 772.17 197.3 772 197.29 771.86 197.31 771.68 197.35 771.33 197.51 771.53 198.35 770.84 198.78 770.49 199.23 770.04 199.71 769.55 200.34 768.94 201.05 768.87 201.14 767.76 202.46 767.1 203.34 766.63 204.07 766.44 204.26 766.24 204.45 765.98 204.68 765.51 205.14 765.06 205.59 763.92 206.95 763.59 207.37 762.88 208.37 762.45 208.79 762.32 208.9 761.81 209.3 761.08 209.83 760.34 210.18 759.49 210.48 758.81 210.65 760.1 211.28 760.4 212.15 760.46 212.58 760.41 213.52 760.4 213.93 760.37 214.74 760.2 216.9 760.16 217.69 760.18 217.87 760.26 218.31 760.32 218.6 760.38 218.98 760.46 219.39 760.84 221.49 761.07 222.78 760.63 222.78 756.38 223.13 755.69 223.29 753.24 223.52 752.94 223.66 752.55 223.67 752.13 223.68 751.83 223.7 751.61 223.71 749.48 223.91 747.4 224.19 746.19 224.19 744.8 224.32 741.71 224.6 741.65 224.61 741.57 233.46 741.56 233.55 741.56 233.62 741.54 233.74 741.55 233.82 741.65 234.03 741.59 239.22 741.58 241.84 741.58 241.87 741.44 242.96 741.41 243.87 741.41 244.07 741.41 244.58 737.59 245.69 737.41 245.72 736.55 246.11 736.34 246.2 733.12 247.08 730.87 247.63 729.58 248.2 729.48 248.26 729.44 248.28 729.35 248.33 728.58 248.5 728.44 248.53 728.32 248.56 727.97 248.63 727.86 248.63 727.79 248.63 727.72 248.63 727.36 248.63 727.29 248.66 726.55 249.12 726.1 249.15 725.98 249.13 725.86 249.16 725.74 249.2 725.5 249.34 725.41 249.39 724.78 249.73 724.02 249.84 723.77 249.88 721.85 250.58 721.54 250.74 718.29 251.66 717.5 251.88 717.13 251.98 716.94 252.04 713.15 253.12 712.53 253.3 712.16 253.43 712.1 253.45 712.01 253.49 711.48 253.68 711.39 253.71 711.2 253.78 710.84 253.91 710.73 253.93 710.65 253.94 710.47 253.99 709.54 254.21 709.41 254.26 709.33 254.29 709.2 254.34 708.75 254.51 708.68 254.54 708.38 254.64 708.15 254.72 707.41 254.95 707.35 254.97 707.23 255 706.31 255.24 704.89 255.77 704.75 255.81 704.3 255.96 704.09 256.02 703.35 256.26 703.24 256.29 702.67 256.46 702.3 256.57 698.27 257.75 696.01 258.42 695.84 258.47 695.66 258.52 691.84 259.68 691.77 259.7 691.58 259.76 691.32 259.84 690.98 259.94 690.84 259.99 690.72 260.02 688.79 260.72 688.61 260.79 688.6 260.78 688.53 260.81 688.28 260.91 688.04 261 687.19 261.31 687.17 261.3 686.87 261.22 686.82 261.2 686.75 261.23 686.39 261.35 685.71 261.6 685.59 261.64 684.94 261.87 684.81 261.91 684.49 261.97 684.45 261.98 684.28 262.01 684.26 262.06 684.06 262.09 683.81 262.22 681.66 262.77 681.56 262.79 681.35 262.85 680.94 262.95 676.23 264.32 673.11 265.23 669.5 266.29 668.24 266.65 668.12 266.68 667.99 266.72 667.76 266.78 667.18 266.99 667.04 267.05 666.89 267.1 666.45 267.26 666.38 267.29 666.15 267.29 661.86 268.68 658.9 269.63 658.5 269.76 658.11 269.88 656.97 270.24 656.34 270.43 655.67 270.64 649.92 272.43 649.48 272.56 649.29 272.61 649.03 272.68 643.95 274.08 643.9 274.1 643.79 274.14 643.71 274.16 642.34 274.59 635.66 276.72 633.74 277.23 632.43 277.73 631.18 278.02 631.57 280.36 631.73 281.39 631.82 281.94 631.89 282.39 631.92 282.61 631.99 282.96 632.04 283.23 632.08 283.49 632.14 283.72 632.55 286.89 632.58 287.13 632.59 287.15 632.59 287.18 632.65 287.36 632.72 287.69 632.8 288.2 632.92 288.91 632.93 289.02 632.94 289.03 632.94 289.04 632.98 289.28 633 289.44 633.01 289.53 633.03 289.62 633.05 289.76 633.08 289.97 633.09 290.04 633.16 291.13 633.11 291.49 633.35 292.43 633.28 293.19 633.32 294.1 633.27 294.12 633.23 294.14 633.23 294.19 633.43 294.92 633.09 295.06 632.89 295.12 632.78 295.17 632.14 295.38 632.03 295.41 631.97 295.42 631.83 295.47 631.15 295.61 629.86 295.87 629.3 295.97 629.23 295.98 628.99 296.05 628.59 296.12 628.04 296.24 627.48 296.35 626.98 296.43 626.08 296.57 625.5 296.68 624.84 296.81 624.66 296.84 624.18 296.93 623.21 296.13 623.19 296.17 623.11 296.29 622.92 296.47 622.69 296.66 622.43 296.89 622.02 297.23 621.99 297.26 621.77 297.45 621.03 297.6 620.62 297.68 619.85 297.82 619.31 297.94 618.83 298.05 617.95 298.25 617.82 298.28 617.48 298.32 617.41 298.37 617.35 298.38 616.85 298.48 615.78 298.75 615.39 298.85 615.13 298.93 615.1 298.81 614.94 297.89 614.86 297.35 614.79 296.91 614.7 296.45 614.65 296.27 614.63 296.17 614.56 295.96 614.53 295.84 614.42 295.56 614.07 296.42 613.43 297.58 613.19 298.05 612.88 298.57 611.49 298.03 610.55 297.66 609.9 297.43 609.8 297.39 608.83 296.83 608.14 296.32 607.35 295.65 606.94 295.25 606.93 295.55 606.95 296.29 606.99 296.79 607.05 297.53 607.13 298.19 607.16 298.39 606.57 298.38 603.88 298.23 603.55 298.21 603.39 298.2 603.27 298.21 602.68 297.95 602.61 297.96 601.91 298 601.76 297.99 601.04 298.11 598.05 297.81 596.12 297.79 592.44 297.59 592.04 297.57 590.81 297.5 590.64 296.76 590.42 295.3 590.31 294.59 590.19 293.93 590.11 293.65 590.09 293.44 590.01 292.69 589.86 292 589.73 291.52 589.72 291.31 589.69 290.69 589.64 290.07 589.29 289.19 589.24 288.84 589.31 288.77 588.94 287.58 588.89 287.3 588.82 286.45 588.58 286.35 587.66 286.48 586.54 286.57 586.43 286.55 586.24 286.55 584.62 286.39 582.22 286.5 581.36 286.35 580.97 286.38 580 286.44 579.33 286.07 576.5 286.45 576.4 286.44 574.14 286.34 573.9 286.35 571.83 286.45 569.52 286.34 567.83 286.25 566.51 286.25 565.22 286.24 562.59 286.14 559.13 286.15 558.72 286.14 556.95 286.13 556.83 286.12 555.86 286.04 553.2 285.95 550.76 285.84 549.84 285.85 548.96 285.86 548.86 285.86" stroke="black"/>
<path d="M 548.86 285.86 549.13 286.71 549.23 287.04 549.33 287.42 549.58 288.39 549.69 288.89 549.79 289.32 549.86 289.71 550 290.62 550.16 291.62 550.18 291.83 550.3 292.75 550.42 293.48 550.55 294.16 550.67 294.71 550.96 295.78 551.12 296.35 551.22 296.72 551.27 296.89 551.71 298.25 552.13 299.45 552.57 300.6 552.65 300.8 552.95 301.53 553.43 302.67 553.56 302.99 553.85 303.62 553.88 303.71 554.1 304.1 554.35 304.63 554.42 304.78 554.77 305.44 554.84 305.58 555.07 306.07 555.32 306.53 555.45 306.73 555.61 307.03 555.78 307.34 555.87 307.5 555.95 307.66 556.31 308.26 556.5 308.54 556.84 309.07 557.54 310.15 557.98 310.85 558.48 311.66 558.66 311.96 558.75 312.11 559.22 312.95 559.26 313.02 559.8 314 560.3 314.93 560.77 315.84 561.52 317.34 562.1 318.57 562.3 319.01 563.18 320.98 563.66 321.97 563.77 322.2 563.24 322.32 562.8 322.46 562.43 322.64 562.11 322.78 561.36 323.12 561.16 323.2 560.98 323.27 560.81 323.32 560.34 323.45 559.95 323.52 559.56 323.55 559.47 323.56 559.66 324.05 559.77 324.59 560.04 326.32 560.31 328.02 560.34 328.21 560.38 328.42 560.47 328.87 560.53 329.22 560.62 329.45 560.75 330.08 560.81 330.35 561.09 331.46 561.63 332.82 562.32 334.52 562.6 335.23 563.15 336.57 563.42 337.22 563.87 338.31 564.6 338.27 565.8 338.21 566.03 338.2 566.83 338.15 567.38 338.13 567.82 338.1 568.09 338.08 569.27 338.01 569.57 337.99 569.93 337.97 570.49 337.89 571.05 337.82 571.29 337.79 571.46 337.76 573.53 337.37 576.04 336.87 576.22 336.84 576.54 336.78 576.95 336.7 577.4 336.62 578.05 336.56 579.05 336.5 580.88 336.34 581.98 336.26 582.78 336.32 583.24 336.39 583.48 336.57 583.49 336.63 583.57 336.67 584.25 336.93 585.05 337.26 585.32 337.44 585.97 337.99 586.04 337.9 586.39 338.21 586.8 338.56 587.13 338.78 587.43 338.95 587.55 339.01 587.77 339.11 587.94 339.17 587.93 339.23 587.82 339.79 587.74 340.29 587.72 340.43 587.65 340.94 587.49 342.06 587.39 343.28 587.35 343.72 587.34 344.07 587.3 345.36 587.32 345.98 587.34 346.85 587.36 347.38 587.38 347.63 587.59 349.79 587.76 350.93 588.05 352.46 588.16 352.91 588.54 354.37 588.72 355.08 588.5 355.11 588.01 355.18 587.16 355.31 584.96 355.67 582.37 356.23 581.91 356.34 582 356.79 582.01 356.86 582.02 356.95 582.06 357.1 582.27 358.05 582.47 359.13 582.62 359.94 582.4 359.8 582.38 359.93 582.34 360.18 582.59 362.75 582.85 365.42 581.58 365.48 580.82 365.52 580.14 365.55 579.42 365.59 579.07 365.6 578.72 365.61 579.06 366.9 579.2 367.41 579.44 368.3 579.98 369.41 579.52 370.02 580.44 370.83 580.51 371.13 583.11 381.99 583.28 382.67 583.26 383.41 583.14 385.01 583.08 385.8 583.8 385.34 583.99 385.24 584.7 384.88 585.01 384.72 585.22 384.68 585.65 384.58 585.98 384.51 586.15 384.47 587.37 384.35 588.34 384.12 589.83 383.05 590.02 382.97 590.12 382.37 590.59 382.24 591.91 383.4 592.74 384.04 593.44 384.44 593.76 384.62 593.94 384.44 594.13 383.97 594.28 381.8 595.74 381.88 595.62 382.53 595.53 382.67 595.12 384.2 595.12 384.48 595.28 384.64 595.51 385.66 595.5 389.38 595.57 392.92 595.57 394.37 595.57 395.81 595.54 402.67 595.49 407.2 595.44 408.65 595.49 409.67 595.57 411.47 595.55 413.53 595.59 413.63 595.49 417 595.95 423.25 595.55 424.98 595.59 426.66 595.6 430.99 595.58 432.1 595.58 432.26 595.52 434.42 595.57 441.67 595.63 441.66 595.94 479.08 595.51 511.18 594.32 511.6 583.22 510.29 583.15 510.28 574.44 509.26 570.25 508.77 561.42 506.9 545.49 503.53 543.5 503.11 526.45 501.36 488.28 497.45 485.41 497.44 428.78 497.42 425.68 497.41" stroke="black"/>
<path d="M 425.68 497.41 392.6 497.97 377.54 498.22 374.32 498.6 374.18 498.61 371.24 498.96 367.08 499.45 365.87 499.59 359.05 501.62 350.3 504.21 339.03 507.56 333.47 509.2 330.62 510.63 324.52 513.67 311.44 520.19 308.67 522.47 307.02 523.84 299.78 529.8 298.54 530.13 294.6 531.17 290.71 536.66 290.41 537.11 290.38 537.15 287.02 542.61 287.02 542.61 243.17 510.07 238.44 506.51 238.11 506.59 234.54 507.43 232.78 507.84 205.22 514.22 167.63 522.92" stroke="black"/>
<path d="M 159.09 374.92 159.09 374.92 159.24 374.58 159.26 374.54 159.42 374.16 159.81 373.26 160.2 372.35 160.52 371.61 160.94 370.68 161.19 370.14 161.2 370.12 161.46 369.68 161.58 369.47 161.74 369.21 161.88 368.88 162.39 367.79 162.94 366.57 163.37 365.63 164.68 362.75 165.67 360.59 166.56 358.64 167.13 357.38 169.43 352.34 172.37 345.89 172.43 345.76 172.44 345.73 173.52 343.36 174.16 342.02 174.25 341.82 179.79 330.12 180.03 328.37 180.46 325.22 180.81 322.69 181.12 320.46 181.63 316.82 181.75 315.95 182.01 314.04 182.65 309.4 182.68 309.18 183.11 306.12 183.39 304.6 183.41 304.47 183.45 304.24 183.75 302.24 183.76 302.19 184.02 300.83 184.06 300.62 184.3 299.3 184.76 296.84 185.1 294.97 185.44 293.18 185.95 290.38 186.09 289.64 186.25 288.8 186.81 285.79 186.9 285.31 187.08 284.32 187.93 280.02 188.08 279.25 189.38 272.66 189.7 272.03 190.45 270.53 191.14 269.13 191.43 268.56 192.4 266.59 192.44 266.51 192.66 266.08 192.92 265.56 193.62 264.3 195.47 260.95 196.07 259.89 196.65 258.83 198.91 254.71 198.95 254.63 199.8 252.94 200.29 251.98 200.29 251.82 201.06 250.36 201.68 249.19 201.98 248.63 203.19 246.5 203.27 246.36 203.99 245.09 204.7 243.84 205.44 242.54 206.13 241.23 206.41 240.71 206.65 240.26 207.68 238.36 209.09 235.77 210.52 233.13 210.52 233.13 211.58 231.18 211.55 231.17 211.57 231.12 211.94 230.48 213.29 228.13 213.4 227.93 214.88 225.34 215.42 224.41 216.28 222.9 217.62 220.56 219.26 217.69 221.8 212.8 222.14 212.15 M 163.88 339.97 163.66 339.64 163.77 339.6 163.8 339.58 163.78 339.49 163.73 339.46 163.71 339.42 163.7 339.29 163.68 339.14 163.75 339.02 163.8 338.99 163.96 339.01 164.21 338.99 164.44 338.98 164.59 338.95 164.75 339.03 165.18 339.24 165.53 339.41 165.77 339.56 165.97 339.68 166.14 339.84 166.23 339.92 166.24 339.93 166.28 339.97 166.29 339.98 166.35 340.06 166.44 340.21 166.48 340.31 166.52 340.43 166.55 340.57 166.55 340.88 166.52 341.01 166.5 341.18 166.44 341.3 166.33 341.41 166.2 341.51 166.02 341.56 165.88 341.63 165.74 341.59 165.57 341.51 165.36 341.43 165.13 341.29 164.94 341.14 164.73 341.02 164.53 340.89 164.42 340.79 164.28 340.67 164.21 340.51 164.07 340.29 163.88 339.97 M 168.99 329.63 168.97 329.54 169.01 329.47 169.12 329.41 169.2 329.38 169.3 329.36 169.41 329.38 169.46 329.42 169.55 329.48 169.64 329.5 169.71 329.55 170.53 330.78 170.63 330.81 170.68 330.88 170.65 330.94 170.56 331 170.45 331.06 170.43 331.07 170.34 331.12 170.16 331.15 170.04 331.17 169.86 331.17 169.77 331.13 169.72 331.06 169.69 330.95 169.64 330.88 169.59 330.85 169.54 330.9 169.51 330.95 169.46 331.01 169.39 331.02 169.37 331 169.13 330.75 169.51 330.75 169.46 330.66 169.35 330.58 169.25 330.48 169.17 330.41 169.14 330.29 169.12 330.19 169.12 330.11 169.17 329.99 169.16 329.92 169.09 329.88 169.03 329.85 169.02 329.74 168.99 329.63" stroke="black"/>
<path d="M 167.63 522.92 167.63 522.92 155.74 525.71 155.53 525.77 145.41 528.36 139.93 529.78 136.31 530.63 136.3 530.63 129.71 532.17 129.57 532.2 129.09 532.32 127.41 532.71 124.27 533.42 117.36 534.92 104.32 537.74 99.27 538.84 94.64 539.84 89.45 541 84.82 542.03 83.19 542.39 76.8 543.73 75.07 544.13 74.13 544.35 46.12 550.47 46.08 550.48 41.42 551.48 33.29 553.29 25.06 555.07 24.76 555.13 19.28 552.3 17.25 551.25 15.13 550.14 12.86 548.94 9.32 547.08 9.07 546.95 8.3 546.55 8.18 546.49 8.06 546.42 8.03 546.41 5.95 545.31 5.55 545.11 5.44 545.05 5.19 544.5 4.69 543.41 2.97 539.41 2.82 539.08 2.36 538.02 1.05 535.23 1 535.13 1 532.75 1 532.44 1 532.2 1 532.17 1 531.84 1 531.32 1 530.01 1 529.39 1.39 526.14 1.41 526.01 1.47 525.49 1.55 524.84 1.61 524.32 1.64 524.26 1.71 524.06 2.46 521.96 2.62 521.51 3.11 520.12 3.43 519.22 3.77 518.28 4.03 517.54 4.29 516.81 4.59 516.43 5.65 515.56 6.71 514.68 11 511.14 11 511.12 10.99 510.82 10.99 510.8 10.98 510.48 10.74 507.7 10.71 507.39 9.86 503.39 8.91 498.94 7.82 492.27 7.51 490.03 8.54 486.92 8.59 486.78 8.76 486.26 9.97 482.6 16.27 477.99 21 474.1 21.2 473.94 21.4 473.77 21.69 473.55 21.7 473.54 21.86 473.39 22.04 473.25 22.58 473.31 23.1 473.37 23.12 473.37 23.58 473.42 24.05 473.48 24.69 473.57 25.34 473.67 26.45 473.84 27.55 474.01 32.25 474.72 32.33 474.61 33.45 473.08 33.46 473.06 33.55 472.94 33.64 472.81 34.07 472.23 34.5 471.65 34.65 471.44 37 463.42 37.56 461.51 38.1 459.68 38.12 459.61 38.19 459.38 38.81 457.27 39.49 454.94 40.01 452.42 40.03 452.28 40.04 452.23 40.05 452.14 40.6 448.69 41.16 445.25 41.54 442.83 43.12 439.52 43.55 438.63 44.49 437.19 46.75 433.73 46.75 433.7 46.77 432.97 46.79 432.24 46.82 431.36 46.83 431.04 43.45 425.21 43.49 424.56 43.98 416.97 44.43 414.88 44.51 414.5 44.95 412.47 43.95 408.49 43.51 406.73 43.7 405.89 44.3 403.28 44.5 402.39 44.59 400.98 44.65 399.98 45.2 399.27 45.61 398.75 46.02 398.23 48.35 395.39 48.61 395.08 48.69 394.99 49.06 394.32 49.44 393.64 49.57 393.4 49.67 393.22 49.68 393.21 49.71 393.15 49.72 393.13 51.38 391.1 53.06 389.06 53.68 388.3 54.3 387.54 54.66 387.17 55.02 386.79 55.17 386.62 55.33 386.45 55.75 386.11 55.78 386.08 56.37 385.6 56.53 385.47 57.41 384.7 60.67 384.22 61.32 384.31 62.45 384.48 63.58 384.65 63.77 384.67 68.95 385.42 75.79 386.4 75.9 386.41 75.95 386.42 76.04 386.43 77.45 386.67 78.44 386.83 78.65 386.86 78.86 386.9 79.84 387.06 82.08 387.4 85.25 387.88 89.96 388.6 90.86 388.5 91 388.47 95.6 387.4 95.67 387.38 97.13 387.04 98.75 386.97 100.12 386.91 101.56 386.82 103.54 386.7 104.66 386.27 104.87 386.18 105.09 386.1 106.19 385.68 107.3 385.25 110.5 384.24 113.7 383.23 115.48 382.67 115.51 382.66 118.32 382.61 118.43 382.61 119.3 382.59 122.98 382.52 127.65 382.44 127.98 382.43 129.89 381.21 130.41 380.88 132.84 379.33 133.31 379.03 140.64 378.9 142.82 378.86 145.01 378.81 157.16 378.87 158.02 377.2 158.08 377.07 158.23 376.75 158.25 376.73 158.27 376.69 158.9 375.38 159.09 374.92" stroke="black"/>
<path d="M 222.14 212.15 222.48 211.5 222.53 211.4 222.92 210.65 224.48 207.64 224.56 207.52 225.09 206.63 225.62 205.74 225.96 205.16 226.09 204.95 226.16 204.85 226.31 204.59 226.74 203.86 226.78 203.81 227.88 201.96 228.24 201.35 228.88 199.42 229.57 197.32 229.77 196.74 230.75 193.76 231.76 190.72 231.93 190.19 232.52 188.41 234.12 183.55 235.31 179.94 235.69 178.92 236.7 176.52 236.8 176.28 237.02 175.75 239.28 170.11 239.61 169.3 240.08 168.21 241.51 165.17 241.98 164.16 243.06 161.81 243.58 160.67 243.66 160.51 243.85 160.1 244.62 158.48 245.18 157.22 245.89 155.74 246.38 154.64 246.81 153.72 247.16 153.02 247.29 152.75 247.45 152.4 250.8 145.19" stroke="black"/>
<path d="M 250.8 145.19 250.9 144.98 250.92 144.94 250.92 144.94 252.4 141.77 253.86 138.62 254.01 138.11 254.15 137.67 254.16 137.61 254.17 137.6 254.35 136.97 255.04 134.68 255.69 132.53 255.85 132 255.91 131.81 255.94 131.7 255.95 131.67 256.38 130.29 256.86 128.67 257.06 127.99 257.55 126.27 257.6 126.09 257.76 125.58 258.15 124.34 258.23 124.11 258.46 123.39 258.6 122.9 258.87 121.98 259.51 119.77 259.51 119.77 260.66 115.93 261.34 113.78 261.49 113.3 262.1 112.08 262.33 110.89 262.56 109.71 262.63 109.36 262.67 109.35 262.84 109.31 263.02 109.26 263.14 107.8 263.19 107.31 264.8 101.82 266.05 96.5 267.33 91.05 268.64 85.05 268.67 84.92 269.67 80.88 269.67 80.86 270.4 77.92 270.4 77.9 270.62 77.04 270.64 76.95 270.67 76.83 270.78 76.37 271.18 74.78 271.19 74.72 272.09 71.46 273.02 68.08 273.02 68.07 273.29 67.12 273.45 66.52 273.6 65.98 273.64 65.82 273.7 65.62 274.32 63.37 277.7 51.08 278.06 49.68 278.12 49.41 278.4 48.3 278.68 47.19 278.81 46.68 278.88 46.4 278.93 46.22 278.96 46.1 278.98 46.02 278.99 45.97 279 45.93 279 45.92 279.01 45.9 279.47 44.06 281.39 28.29 281.7 20.05 289 21.37 289.22 21.48 289.39 21.53 289.49 21.56 291.76 22.07 292.18 22.19 292.46 22.23 292.62 22.25 292.71 22.26 292.86 22.55 292.97 22.64 293.05 22.6 293.11 22.6 293.83 22.73 294.08 22.77 294.28 22.83 294.33 22.81 294.79 23.01 295.58 23.34 295.86 24.12 295.95 24.11 296.25 24 296.3 23.92 296.55 23.62 296.62 23.59 296.65 23.57 296.81 23.57 297.02 23.6 297.1 23.57 297.8 23.85 298.41 24.25 299.71 24.83 300.67 25.14 300.74 25.16 301.74 25.35 303.29 25.88 304.73 26.38 307.04 27.18 308.28 27.48 308.34 27.49 308.52 27.49 308.69 27.13 308.77 26.99 309.17 25.96 309.38 25.45 309.93 23.93 310.41 22.93 311.15 21.4 312.08 19.76 312.14 19.65 312.16 19.61 312.31 19.26 312.54 18.61 312.73 18.07 312.87 17.51 313.07 16.63 313.17 16.36 313.38 15.92 313.43 15.83 314.1 14.64 314.62 13.85 314.76 13.63 315.33 12.77 315.54 12.45 315.61 12.34 315.85 11.97 316.33 11.18 316.66 10.41 316.82 10.02 316.94 9.59 317 9.35 317.05 8.87 317.19 7.86 317.3 6.97 317.6 5.03 317.97 3.09 318.18 2.54 318.25 2.38 318.51 2.03 318.75 1.8 319.4 1.18 319.55 1.02 319.72 1.02 319.73 1 319.89 1.05 320.14 1.14 321.28 1.54 322.95 2.12 326.76 3.19 326.8 3.04 327.75 2.9 328.03 2.77 328.38 2.61 328.67 2.47 328.99 2.32 329.01 2.32 329.22 2.26 329.94 4.12 330.15 4.17 331.23 4.2 334.73 5.28 335.41 5.49 335.34 5.57 335.19 5.85 335.08 6.09 334.98 6.3 334.89 6.42 334.76 6.55 334.59 6.78 334.47 7.02 334.4 7.16 334.22 7.5 334.18 7.61 334.14 7.76 334.19 7.86 334.29 8.07 334.32 8.13 334.36 8.24 332.71 11.02 332.25 11.16 332.18 11.18 331.63 11.28 331.23 11.36 331.07 11.68 331.01 11.82 331.33 11.94 331.51 12.01 332.44 12.34 332.47 12.4 332.49 12.36 333.02 12.56 333.32 12.66 333.33 12.74 333.27 13.09 333.24 13.23 333.23 13.28 333.16 13.84 333.15 13.97 333.08 14.08 333.03 14.11 333.06 14.35 333.11 14.5 333.25 14.81 333.32 14.96 333.37 15.07 333.56 15.42 333.79 15.7 333.94 16.04 334.06 16.5 334.07 16.68 334.08 17.05 334.8 16.96 335.24 16.91 335.76 16.87 336.01 16.87 336.14 16.86 336.94 16.86 337.59 16.9 338.02 16.92 338.54 17 338.78 17.06 338.9 17.12 339.03 17.26 339.13 17.4 339.22 17.64 339.28 17.9 339.32 18.1 339.4 18.23 339.65 18.47 339.81 18.63 340.23 19.09 340.46 19.43 340.6 19.64 340.98 20.29 341.14 20.78 341.26 21.16 341.38 21.42 341.47 21.56 341.53 21.64 341.69 21.79 341.8 21.94 341.83 22.04 341.83 22.18 341.8 22.49 341.8 22.59 341.8 22.66 341.81 22.79 341.88 22.97 342.26 23.38 342.47 23.63 342.76 22.9 342.88 22.64 343.01 22.41 343.45 21.58 343.73 21.15 344.04 20.62 344.18 20.54 344.24 20.43 344.82 19.45 344.96 19.53 345.07 19.65 345.22 19.88 345.3 19.94 345.45 19.93 345.64 19.97 345.79 20.04 346.63 18.69 346.93 18.18 347.24 17.57 348.15 16.17 348.15 16.17 348.76 14.91 349.37 13.84 349.6 13.44 350.67 11.39 351.3 10.77 351.18 10.62 351.49 10.26 351.69 10.43 352.26 9.83 352.13 9.72 354.01 7.63 355.02 9.18 355.15 9.78 355.33 10.63 355.74 12.51 355.01 12.82 355.02 13.38 355.05 13.46 355.22 13.78 355.36 13.97 355.46 14.03 355.62 14.12 355.74 14.15 355.84 14.22 355.9 14.26 356.02 14.45 356.06 14.47 356.1 14.51 356.14 14.59 356.16 14.71 356.2 14.78 356.26 14.82 356.29 14.86 356.4 14.93 356.55 15.06 356.61 15.18 356.68 15.14 356.75 15.06 356.83 15.27 356.83 15.31 356.77 15.43 356.9 15.62 356.93 15.66 356.96 15.7 357.01 15.77 357.11 15.87 357.21 15.96 357.26 16 357.44 16.11 357.62 16.21 357.96 16.36 359.41 14.15 359.99 13.22 360.23 12.85 361.06 11.61 361.49 10.93 362.52 9.3 362.99 8.64 362.65 8.36 362.58 8.28 362.54 8.21 362.52 8.14 362.52 8.03 362.55 7.85 362.6 7.73 362.73 7.48 363.08 6.92 363.3 6.53 363.76 5.91 364.03 5.57 364.7 4.66 364.74 4.59 364.81 4.56 364.88 4.57 365.08 4.7 365.43 4.93 365.51 4.97 365.83 4.48 366.5 5.03 366.97 6.68 367.29 7.1 367.42 7.3 367.53 7.56 367.58 7.7 367.61 7.77 367.96 8.21 368.14 8.43 368.22 8.64 368.35 8.78 368.69 9.1 369.07 9.4 369.86 10.03 369.55 10.72 370.68 11.76 370.99 11.99 371.34 12.19 371.44 12.26 371.48 12.31 371.55 12.43 371.58 12.55 371.59 12.68 371.57 12.98 371.98 13.25 372.07 13.33 372.16 13.43 372.29 13.66 372.7 14.32 372.95 14.09 373.27 14.6 374.02 15.78 374.2 15.86 375.02 16.57 375.02 16.62 375.04 16.77 375.1 16.94 375.4 17.82 375.53 18.24 375.67 18.64 375.72 18.81 375.79 19.16 375.8 19.32 375.8 19.43 375.77 19.54 375.71 19.65 375.63 19.73 375.53 19.79 374.88 20.01 374.94 20.68 374.97 20.79 375.05 20.98 375.16 21.3 375.26 21.66 375.48 21.58 376.07 21.3 376.57 21.19 376.76 21.69 377.35 22.59 378.85 24.94 381.24 27 381.68 27.29 381.78 27.44 381.88 27.55 382.32 27.91 383.84 28.06 384.15 28.81 384.83 28.91 384.84 28.92 384.87 28.94 385.18 28.9 385.31 28.9 385.39 28.93 386.04 29.51 386.1 29.57 386.13 29.63 386.16 29.71 386.19 29.87 386.18 30.03 386.2 30.1 386.22 30.16 386.32 30.26 386.42 30.32 386.83 30.41 386.94 30.45 387.05 30.51 387.2 30.64 387.34 30.8 387.45 30.87 387.52 30.91 387.66 30.95 387.96 30.96 388.3 30.96 388.43 30.97 388.65 31.03 388.75 31.11 388.86 31.3 389.2 31.78 389.5 32.2 389.71 32.51 389.92 32.78 389.97 32.84 390.02 32.88 390.13 32.89 390.24 32.89 390.5 32.82 390.85 32.77 391.15 32.78 391.34 32.81 391.45 32.85 391.58 32.92 391.71 33 391.95 33.28 392.12 33.6 392.6 34.61 392.65 34.83 392.8 35.49 392.82 35.56 392.98 35.79 393.23 36.01 394.11 36.52 394.4 36.73 394.94 37.36 394.99 37.43 395.07 37.53 395.4 38 395.5 38.28 395.74 39.13 395.86 39.51 395.91 39.79 395.95 40.11 396.12 41.36 396.12 41.56 396.05 41.74 396.02 41.82 396 41.85 395.79 42.02 395.63 42.13 395.54 42.33 395.53 42.51 395.54 42.55 395.55 42.59 395.56 42.62 395.64 42.83 395.71 43.04 395.73 43.1 395.73 43.11 396 43.26 396.06 43.31 396.18 43.39 396.3 43.49 396.34 43.65 396.36 43.9 396.34 44.51 396.26 44.66 396.09 44.88 395.99 45.22 395.99 45.36 395.99 45.57 396.13 45.97 396.22 46.33 396.47 46.93 396.49 47.08 396.45 47.41 396.41 47.63 396.45 47.86 396.75 48.43 396.79 48.55 396.87 48.86 396.88 49.18 396.85 49.26 396.78 49.31 396.45 49.34 396.41 49.37 396.39 49.46 396.4 49.56 396.47 49.66 396.64 49.74 396.81 49.84 396.86 49.95 396.91 50.24 397 50.72 396.99 50.92 396.95 51.05 396.81 51.21 396.55 51.41 396.45 51.55 396.42 51.74 396.49 51.9 396.78 52.2 396.85 52.38 396.86 54.13 396.84 54.52 396.88 54.67 397.01 54.8 397.21 55.04 397.28 55.23 397.27 55.49 397.21 55.73 397.11 56.06 397.04 56.3 397 56.47 397.01 56.69 397.2 56.95 397.5 57.18 397.6 57.26 397.96 57.45 398.42 57.58 398.51 57.59 398.65 57.6 399.01 57.62 399.19 57.65 399.34 57.77 399.49 57.94 399.68 58.11 399.91 58.16 400.16 58.17 400.4 58.08 400.6 57.84 400.8 57.58 400.91 57.22 400.98 57.13 401.05 57.09 401.21 57.13 401.37 57.25 401.52 57.29 401.61 57.29 401.81 57.23 401.92 57.15 402.08 56.99 402.15 56.93 402.19 56.81 402.31 56.62 402.38 56.6 402.43 56.61 402.51 56.67 402.57 56.8 402.65 57.12 402.69 57.22 402.75 57.3 402.8 57.3 403.21 57.34 403.48 57.38 403.57 57.4 403.67 57.46 403.75 57.54 403.82 57.58 403.86 57.6 403.9 57.62 404.09 57.63 404.33 57.65 405.59 57.76 405.71 57.78 405.91 57.91 406.11 58.01 406.31 58.07 406.39 58.14 406.44 58.24 406.47 58.33 406.52 58.48 406.58 58.61 406.59 58.64 406.57 59.44 406.59 59.59 406.64 59.68 406.81 60.03 406.77 60.39 406.8 60.6 406.87 60.89 406.97 61.22 407.06 61.64 407.1 61.79 407.14 61.97 407.14 62.14 407.08 62.25 407.45 62.27 407.56 62.31 409.45 63.15 410.24 63.46 410.93 63.74 411.33 63.92 411.49 63.98 412.24 64.31 413.67 64.93 413.82 64.99 414.53 65.15 415.02 65.37 415.16 65.36 415.24 65.49 415.52 65.66 416.69 66.19 416.65 66.08 416.73 66.12 418.29 66.87 418.39 66.65 418.65 66.23 419.11 65.64 419.79 64.75 420.22 64.13 420.6 63.62 420.75 63.42 420.89 63.19 420.96 63.15 421.17 63.04 421.19 62.98 421.21 62.87 421.27 62.82 421.37 62.8 421.55 62.71 421.89 62.45 422.19 62.25 422.31 62.2 422.48 62.15 422.66 62.11 422.84 62 422.99 61.88 423.07 61.85 423.05 61.83 423.23 61.68 423.38 61.52 423.5 61.4 423.65 61.37 423.74 61.34 423.79 61.28 423.84 61.2 424.18 60.81 424.4 60.36 424.42 60.31 424.73 59.63 424.97 58.67 425.36 57.82 425.41 57.74 425.47 57.65 425.66 57.31 425.94 57.06 426.17 56.74 426.22 56.64 426.24 56.52 426.39 56.05 426.48 55.8 426.55 55.62 426.65 55.43 426.78 55.23 427.28 54.61 427.48 54.23 427.49 54.09 427.47 54 427.43 53.92 427.44 53.79 427.47 53.65 427.55 53.47 427.58 53.42 427.64 53.34 427.79 53.23 427.92 53.17 427.99 53.11 428.04 53.01 428.04 52.92 427.98 52.87 427.94 52.84 427.86 52.7 426.5 53.89 426.33 54.06 425.65 54.6 425.25 54.87 424.74 55.16 424.63 55.22 424.26 55.39 424.2 55.42 423.9 55.54 423.8 55.58 423.26 55.75 423.51 55.06 423.51 55 423.57 54.92 423.58 54.84 424.41 53.62 425.4 52.37 425.72 51.35 425.8 51.21 426.57 49.65 428.92 45.09 428.96 44.92 428.98 44.87 429.03 44.97 429.66 42.32 429.91 41.83 431.41 39.53 431.83 38.73 431.88 38.63 431.88 38.8 432.66 37.53 433.53 36.44 435.91 35.42 436.07 35.37 438.54 34.59 441.09 33.57 441.08 33.5 441.04 33.41 441 33.34 440.87 33.12 440.81 32.99 440.76 32.92 440.74 32.86 440.74 32.77 440.74 32.69 440.76 32.62 440.76 32.38 440.74 32.26 440.68 32.13 440.59 31.82 440.59 31.71 440.63 31.65 440.65 31.62 440.87 31.39 441.33 30.62 441.4 30.37 441.5 29.84 441.79 29.31 441.9 29.04 441.91 29.01 442 28.77 442.04 28.62 442.06 28.32 442.06 28.06 442.02 27.96 441.95 27.88 441.92 27.79 443.92 27.89 443.75 28.2 443.47 28.61 443.35 28.8 443.15 29.2 442.97 29.57 442.78 30.03 442.98 30.09 443.47 30.19 444.08 30.35 444.36 30.41 444.6 30.45 445.21 30.61 445.7 30.72 446.01 30.83 445.91 31.56 445.93 31.93 447.27 32.87 447.45 33 447.7 33.17 448.07 33.43 448.35 33.57 449.86 34.67 451.02 35.18 452.57 36.26 453.23 36.43 453.66 36.56 454.03 36.68 455.57 37.45 455.69 37.52 455.83 37.59 455.92 37.64 456.4 37.9 456.5 37.96 456.65 37.96 458.47 38.83 458.76 38.97 458.79 38.98 459.41 39.18 462.91 40.2 463.08 40.47 463.45 41.04 463.56 41.21 463.61 41.26 463.82 41.48 463.83 41.49 463.86 41.51 463.86 41.52 468.88 46.61 470.28 48.02 471.67 49.43 497.25 75.34 497.26 75.34" stroke="black"/>
</g>
</svg>