<?xml version="1.0"?>
<svg xmlns="http://www.w3.org/2000/svg" version="1.2" baseProfile="tiny" width="800" height="883" viewBox="0 0 800 883" stroke-linecap="round" stroke-linejoin="round">
<g id="assembly" fill="none" stroke="black" stroke-width="1">
<path d="M 307.38 715.9 314.69 716.26 316.24 716.33 352.8 717.75 362.47 690.02 364.41 694.06 365.84 694.21 369.06 688.17 370.43 681.96 368.17 678.33 374.17 674.67 379.72 671.29 385.86 667.51 391.74 663.88 397.49 660.34 403.3 656.8 409.15 653.23 419.82 671.1 422.89 672.71 435.61 670.57 436.81 670.37 442.86 669.38 443.64 669.25 450.27 668.2 457.29 667.02 465.97 665.43 471.91 664.56 478.9 663.02 485.44 661.4 492.31 657.72 498.17 654.27 504.06 650.78 509.89 647.2 522.18 641.07 518.07 635.12 514.22 629.5 510.28 623.85 508.58 621.48 506.31 618.24 502.33 613.72 500.89 611.65 498.25 607.11 494.44 601.21 490.64 594.27 487.76 584.41 498.11 570.84 494.8 569.25 491.97 567.89 480.54 562.65 478.91 555.05 478.8 552.03 477.98 547.77 478.06 539.63 478.43 537.61" stroke="black"/>
<path d="M 478.43 537.61 478.7 536.13 478.15 534.96 493.91 536.84 497.29 530.39 501.94 523.73 500.24 522.7 502.05 521.91 520.03 515.36 524.61 513.57 524.84 512.96 529.83 510.37 530.45 511.93 537.1 529.12 544.03 546.11 544.88 546.52 555.96 539.08 567.25 530.82 573.46 526.54 574.6 525.73 583.44 523.74" stroke="black"/>
<path d="M 235.97 286.32 234.12 286.58 231.32 286.98 230.68 287.06 225.4 287.82 224.19 287.98 226.22 302.86 232.72 301.94 235.45 301.53 239.6 300.93 242.69 321.3 239.08 334.74 245.25 338.29 251.17 341.52 256.52 344.52 252.6 358.83 246.74 375.96 245.18 380.62 251.75 382.91 248.19 393.41 246.57 398.22 244.41 404.75 247.55 405.87 252.12 407.45 254.91 408.43 262.54 411.74 260.29 413.46 264.67 418.82 262.59 431.17 268.63 432.08 267.51 441.59 266.22 456.34 273.31 448.4 273.42 449.88 273.05 456.77 279.75 455.07 284.49 454.08 288.21 456.13 288.1 460.45 287.89 467.31 287.7 474.16 300.8 474.55 300.61 481.4 300.47 486.05 300.17 497.58 306.93 496.11 306.82 499.67 307.59 499.73 309.27 500 310.17 500.23 311.99 500.89 313.04 501.39 313.71 501.78 320.39 504.08 327 504.95 331.18 504.81 333.84 504.62 333.88 497.58" stroke="black"/>
<path d="M 333.88 497.58 351.06 497.65 354.64 504.37 360.61 506.67 361.98 507.3 366.5 508.51 376.69 509.38 378.32 509.42 379.78 509.64 381.43 510.11 382.5 510.56 388.9 513.68" stroke="black"/>
<path d="M 388.9 513.68 404.14 527.62 407.19 531.04 411.73 536.02 416.16 540.91 418.88 538.28 414.35 533.52 419.67 528.34 426 531.37 427.65 529.02 429.34 529.87 434.73 532.42 439.99 535.33 446.95 538.75 448.67 539.6 451.49 541.21 456.42 539.48 457.2 539.96 458.77 540.12 460.51 539.35 462.56 538.12 466.49 537.82 468.85 536.89 470.28 536.57 471.37 536.85 472.15 536.86 475.77 537.19 478.43 537.61" stroke="black"/>
<path d="M 330.01 205.17 331.74 217.85 338.39 216.92 344.97 216.01 351.75 215.07 358.51 214.14 365.25 213.21 367.68 230.68 374.43 229.72 381.2 228.8 387.95 227.86 392.68 227.21 394.71 226.93 401.46 225.95 408.25 225.16 416.16 223.37 421.01 224.41 421.96 224.61 424.2 240.94 431.34 242.75 438.47 244.42 445.58 246.12 452.98 247.85 454.1 256.04 455.97 269.59 456.5 273.48 462.71 290.65 466.68 290.2 470.37 289.7 473.16 289.32 475.24 304.4 475.59 306.87 482.06 305.97 488.69 305.07 490.73 319.95 496.52 337.37 502.34 334.25 509.18 331.83 516.43 329.28 525.13 350.76 527.82 354.06" stroke="black"/>
<path d="M 527.82 354.06 520.63 356.87 513.66 359.59 514.32 361.09 531.8 359.18 522.94 363.43 525.53 369.14 527.53 373.83 521.09 376.4 514.82 378.84 510.4 380.59 508.55 381.3 500.65 384.44 499.99 379.09 494.08 381.69 486.57 384.84 484.14 378.45 474.26 380.12 475.02 384.89 460.38 376.43 457 382.22 453.7 387.9 439.94 379.83 437.25 386.03 424.65 378.6 421.23 384.41 407.12 376.01 408.33 375.84 405.55 355.57 398.78 356.52 396.08 336.93 389.32 337.86 382.55 338.79 375.8 339.73 369.04 340.67 362.3 341.6 355.53 342.55 348.76 343.5 342 344.43 335.26 345.38 328.49 346.31 331.2 365.88 337.62 365 339.72 381.44 332.96 382.45 326.39 383.44 324.22 366.86 321.75 347.23 315 348.16 308.29 349.07 301.75 350 301.01 350.1 296.36 350.75 299.57 358.2 302.96 361.23 303.91 367.15 305.01 369.45 305.7 372.18 302.77 370.6 312.37 388.76 309.97 389.35 308.78 389.71 307.35 389.7 304.5 390.22 297.92 391.12 300.4 408.18 306.87 407.08 310.09 406.18 311.17 405.87 313.43 405.24 315.71 404.82 320.32 404.11 328.06 424.33 331.21 431.39 338.83 430.21 339.93 437.38 341.36 444.68 344.65 451.19 345.78 460.39 342.74 459.58 346.11 468.14 346.88 470.15 352.61 485.18 348.39 486.23 345.29 486.7 333.84 490.19 333.88 491.06 333.88 497.58" stroke="black"/>
<path d="M 388.9 513.68 390.95 510.92 398.33 503.79 393.74 504.7 392.97 505.36 389.88 507.45 389.35 507.76 388.82 507.86 388.41 507.83 388 507.72 387.34 507.24 387 506.66 386.91 506.34 387.09 504.19 389.34 480.18 388.52 476.57 400.4 474.02 396.17 473.08 410.87 457.4 421.54 446.12 423.09 447.63 425.95 444.87 429.32 441.65 432.17 435.16 438.71 442.02 448.42 432.85 452.81 437.56 463.96 427.9 467.16 435.73 473.59 433.85 476.77 444.72 483.06 442.87 492.89 439.97 494.76 446.43 507.01 442.86 508.79 449.4 510.04 453.46 513.67 452.38 516.85 451.41 523.38 449.42 529.92 447.37 536.37 445.3 548.51 436.65 553.49 448.1 556.77 455.65 560.18 452.66 565.69 448.46 570.96 444.25 576.87 450.54 581.55 454.96 578.7 458.04 596.67 465.68 599.22 459.64 610.03 464.48 610.84 457.43 612.41 455.19 613.76 451.53 610.39 450.04 607.83 445.44 606.88 443.42 608.28 441.52 609.45 442.08 615.49 445.09 617.54 438.71 622.32 440.64 630.87 437.37 628.37 430.98 625.9 424.61 623.41 418.25 620.91 411.79 618.4 405.45 615.95 399.07 613.47 392.69 610.99 386.33 608.5 380.01 605.46 373.64 602.93 368.05 602.55 367.41 602.14 365.99 599.84 360.14 597.33 353.78 594.86 347.4 592.27 340.81 589.23 332.94 586.26 325.33 565 333.67 543.72 342.05 545.7 347.12 539.48 349.5 533.01 352.03 527.82 354.06" stroke="black"/>
<path d="M 583.44 523.74 586.73 532.27 589.2 538.64 591.69 545.03 594.18 551.39 596.68 557.77 616.41 550 628.91 545.07 645.02 538.73 661.4 532.33 663.86 538.68 665.47 545.32 665.89 552.62 669.89 558.38 673.82 564.19 676.29 570.57 678.78 576.95 681.26 583.33 683.74 589.69 686.23 596.08 702.35 589.74 704.83 596.11 712.04 593.3 716.99 606.04 709.82 608.86 712.3 615.23 714.83 621.57 717.26 627.99 719.75 634.37 722.23 640.76 724.69 647.08 727.15 653.49 730.19 660.44 737.56 665.56 744.01 670.88 749.45 676.02 754.15 680.75 763.86 690.57 769.47 695.99 774.44 696.65 775.52 698.04 776.92 699.85 799 712.51 786.4 719.01 785.06 716.43 770.1 729.03 765.24 733.17 760.99 736.48 768.96 745.92 761 749.18 749.66 752.4 748.93 752.93 735.12 762.94 739.67 765.29 742.45 766.76 743.86 767.5 749.57 785.22 750.17 787.02 753.07 795.78 759.54 793.65 764.58 808.77 769.02 822.24 763.39 826.88 772.54 833.14 772.84 835.66 771.56 836.2 767.11 837.68 764.11 838.54 762.25 839.91 761.21 840.53 756.11 844.03 750.52 848.08 744.86 852.16 739.07 856.38 733.55 860.45 727.98 865.61 722.27 870.72 716.7 875.06 711.14 877.93 710.04 878.38 704.83 879.83 703.77 880.05 699.13 880.78 692.93 881.42 685.97 881.66 682.36 881.71 668.15 882 666.91 878.2 664.8 871.97 662.73 865.68 660.67 859.48 658.6 853.22 656.37 846.67 661.83 844.01 645.17 831.75 647.44 818.09 629.69 815.53 619.09 812.79 596.21 810.67 590.02 809.81 583.51 808.83 576.87 807.95 574.44 807.1 571.86 807.15 562.17 805.75 559.3 805.35 557.03 805.03 551.65 804.21 538.34 803.04 534.41 803.59 527.62 804.31 525.13 781.25 518.5 781.95 517.42 771.74 510.84 771.87 511.99 782.65 505.53 783.35 506.72 790.71 509.31 806.3 502.07 807.08 496.33 807.72 495.43 807.82 490.61 808.35 483.97 809.08 477.32 809.8 470.67 810.52 463.76 811.26 456.85 812 449.81 812.8 444.5 795.15 443.48 793 441.89 787.03 440.12 781.4 437.2 772.82 436.81 771.44 409.56 774.47 407.64 774.46 410.22 776.18 404.26 777.78 397.6 779.94 391.49 781.72 385.25 783.68 383.17 776.85 376.26 776.54 369.14 775.87 362.83 777.86 356.53 779.85 360.17 791.51 353.91 793.48 347.42 795.49 340.92 797.5 336.25 798.97 334.69 801.07 329.79 807.89 323.96 817.81 322.33 815.08 318.93 814.58 321.14 810.95 315.43 793.36 311.29 780.58 304.8 782.72 297.88 784.99 296.12 780.27 295.57 778.85 293.45 773.24 291.34 767.57 288.93 761.16 285.73 755 282.46 748.88 299.1 743.29 296.95 736.81 288.83 732.24 281.15 727.92 273.32 730.26 272.26 727.54 269.86 721.41 266.88 713.8 269.87 713.96 275.9 714.28 288.05 714.93 292.27 715.14 298.7 715.48 300.99 715.63 307.38 715.9" stroke="black"/>
<path d="M 307.38 715.9 303.65 703.19 298.22 693.46 292.16 695.45 285.92 697.47 280.69 699.15 274.15 700.91 264.39 702.83 262.79 695.34 256.34 699.42 250.46 703.29 247 687.9 240.5 689.01 228.55 691.05 227.44 684.59 226.31 678.09 224.76 669.04 235.87 666.89 242.33 665.62 240.98 659.18 239.46 652.04 235.93 638.34 241.43 633.87 240.48 631.83 238.93 625.69 238.04 618.82 209.98 620.29 209.6 613.47 203.16 614.27 193.53 615.08 193 604.08 188.74 603.65 179.88 612.69 178.83 612.25 175.47 614.2 170.43 616.01 165.17 606.37 161.4 601.14 137.71 586.87 140.26 564.74 128.3 562.06 129.56 558.98 129.48 558.11 107.2 551.8 109.14 545.03 110.99 538.52 112.86 531.95 130.66 536.91 135.08 537.96 136.08 537.6 136.91 537.39 138.07 537.21 139.56 537.16 141.28 537.36 142.85 537.8 143.84 538.22 144.54 536.98 141.73 535.72 133.23 531.25 133.55 530.78 133.57 529.84 130.17 526.1 126.14 521.72 120.58 509.44 120.38 508.56 120.31 507.95 120.35 506.63 120.63 505.24 117.07 504.42 116.58 501.94 116.51 500.93 116.89 500.24 117.07 496.23 120.26 475.2 127.01 476.23 133.74 477.26 140.49 478.27 143.18 460.57 149.92 461.6 152.64 443.71 155.3 426.13 154.79 424.75 156.01 421.78 157.89 409.07 158.05 407.96 160.33 392.97 160.48 391.97 160.81 389.79 160.97 388.78 161.61 384.61 162.07 381.56 155.7 378.08 156.07 375.65 156.45 373.09 154.1 373.19 152 373.42 153.2 363.48 151.07 363.16 150.19 363.03 148.72 362.8 146.51 362.46 144.31 362.13 137.35 360.65 130.48 362.23 123.33 364.02 120.02 385.78 117.59 401.78 110.84 400.76 104.09 399.72 97.35 398.7 99.79 382.68 93.03 381.65 86.08 380.59 86.98 374.67 87.67 369.97 88.42 364.91 89.78 355.92 90.69 349.83 91.54 344.16 91.73 339.37 93.71 332.88 84.91 335.44 82.3 335.87 79.12 336.06 78.68 336.07 78.62 332.68 73 328.63 67.48 324.55 78.17 307.14 72.37 303.55 66.54 299.94 60.71 296.32 50.95 312.3 45.44 308.21 38.42 319.61 32.83 315.69 26.23 326.08 31.97 330.1 25.26 340.55 18.6 337.15 12.31 334.05 6.58 330.31 1 326.4 9.44 314.29 16.48 304.21 10.97 300.33 5.28 296.33 13.39 285 19.45 289.35 28.75 276.55 32.03 272.04 33.81 269.59 38.99 262.47 32.06 258.16 36.73 251.05 38.4 248.52 41.64 243.61 42.54 244.16 46.24 246.46 49.14 248.24 55.66 252.32 61.48 255.94 52.4 270.73 58.2 274.34 67.29 259.52 73.14 263.14 64.02 277.94 69.82 281.55 75.64 285.13 81.46 288.73 87.28 292.33 93.08 295.92 98.89 299.52 104.7 303.11 113.76 288.28 127.28 266.23 121.48 262.62 135.37 240.09 141.17 243.71 146.98 247.31 152.76 250.91 161.02 237.53 162.59 248.05 164.48 258.19 170.18 261.73 167.49 266.06 156.31 284.23 142.76 306.23 133.65 321.06 143.03 318.92 151.23 318.6 158.73 319.56 160.24 316.91 173.72 295.03 179.53 298.65 181.09 296.1 193.54 276.11 187.68 272.52 196.94 257.69 202.94 247.85 208.75 251.44 214.55 255.01 218.2 257.28 220.34 258.61 225.3 261.48 231.67 263.93 233.18 264.37 234.13 264.64 237.36 266.05 236.52 278.38 235.97 286.32" stroke="black"/>
<path d="M 235.97 286.32 237.3 286.14 244.47 285.15 250.96 284.24 257.4 283.36 259.52 298.22 266.1 297.31 268.02 297.03 270.19 296.93 271.78 296.57 273.85 296.58 275.29 295.63 279.02 295.5 276.94 280.63 275.13 280.96 278.17 268.88 280.38 260.24 282.43 260.23 289 259.56 295.76 258.63 302.52 257.69 300.11 240.19 293.44 239.98 289.77 240.92 301.39 224.41 307.97 213.79 313.56 207.65 318.24 202.21 319.7 202.4 325.98 204.7 330.01 205.17" stroke="black"/>
<path d="M 330.01 205.17 331.28 203.91 333.81 202.65 336.92 202.02 343.72 200.61 347.34 199.47 349.99 198.62 352.56 197.82 354.93 196.56 355.79 195.43 360.84 195.48 361.34 189.95 355.51 191.84 353.17 174.4 350.88 155.21 348.09 134.76 350.68 128.66 350.75 121.98 352.24 70.53 348.65 63.51 381.22 4.44 395.45 7.23 408.33 9.77 424.13 12.87 462.49 8.86 473.47 3.71 482.08 1 501.55 25.78 558.32 77.76 613.63 111.62 615.48 144.03 607.77 168.99 621.35 185.63 632.64 201.82 640.39 219.58 645.48 223.3 660.79 247.32 661.2 248.28 662.44 251.22 663.12 252.82 664.21 255.4 666 258.08 666.61 259.58 667.9 262.76 670.06 268.92 672.56 275.31 675.03 281.63 677.98 289.3 680.96 296.86 683.41 304.63 629.88 326.44 625.99 327.52 620.9 329.53 626.71 342.46 632.33 354.97 638.62 352.38 675.98 334.43 680.99 330.74 688.34 328.49 690.33 330.93 699.3 330.55 693.88 337.37 686.89 343.51 688.37 345.77 684.72 347 681.15 352.53 677 363.86 663.36 369.5 654.43 373.61 646.88 381.21 644.55 380.42 642.69 381.12 657.9 415.53 662.59 427.44 663.99 432.08 666.73 444.36 666.83 447.67 666.53 450.4 667.25 452.38 667.17 455.09 665.77 455.97 662.43 457.19 654.27 461.86 656.3 463.53 654.83 464.93 646.17 469.55 625.42 479.38 622.42 480.71 623.81 484.34 624.93 487.24 627.43 493.58 619.04 497.02 611.07 500.09 608.67 493.66 606.26 487.24 589.96 493.65 592.46 500.03 594.95 506.4 597.45 512.79 581.55 519.02 583.44 523.74" stroke="black"/>
</g>
</svg>