<?xml version="1.0"?>
<svg xmlns="http://www.w3.org/2000/svg" version="1.2" baseProfile="tiny" width="800" height="992" viewBox="0 0 800 992" stroke-linecap="round" stroke-linejoin="round">
<g id="assembly" fill="none" stroke="black" stroke-width="1">
<path d="M 426.35 397.11 428.86 396.23 430.77 395.51 432.88 394.71 434.98 393.92 437.21 393.1 439.3 392.31 441.35 391.54 443.36 390.78 445.38 390.03 447.41 389.26 449.39 388.52 451.4 387.76 453.4 387.03 456.35 388.1 458.67 388.84 457.44 385.51 459.49 384.73 461.58 383.95 463.68 383.17 465.76 382.38 463.8 377.12 465.59 376.44 467.55 381.71 470.2 380.71 471.88 380.09 474.22 386.37 476.59 392.73 474.42 393.21 474.59 393.62 477.1 394.08 479.66 394.55 481.99 394.99 482.47 395.08 483.05 395.19 484.69 395.51 485.58 395.67 487.13 395.95 489.57 396.42 490.49 396.73 492.26 397.35" stroke="black"/>
<path d="M 492.26 397.35 495.08 398.39 495.74 398.61 495.92 398.67 497.79 399.29 498.53 399.5 500.45 400.07 500.68 400.14 503.12 400.87 503.46 400.97 505.83 401.65 508.47 402.31 511.42 402.91 514.15 403.48 515.74 403.84 516.63 404.02 518.38 404.39 517 410.23 515.65 415.93 514.3 421.64 512.95 427.33 511.61 433.04 510.27 438.71 499.66 437.3 498.79 436.95 498.05 438.7 499.24 439.96 499.47 440.53 499.64 440.94 499.41 441.55 501.56 441.56 501.46 446.29 503.41 451.23 505.17 456.16 506.01 457.92 506.28 458.49 509.29 466.43 509.85 470.25 513.28 486.36 514.03 490.52 514.09 491.67 514.24 494.63 516.33 504.8 516.8 507.22 519.6 521.89 521.95 523.76 524.15 534.48 524.72 535.42 525.91 536.51 527.6 541.28 527.42 542.64 526.87 543.78 525.8 545.5 526.94 552.73 527.56 553.8 528.09 555.26 529.29 557.34 529.71 558.66 530.13 559.06 530.74 559.32 532.21 559.55 533.8 559.46 535.2 559.6 535.79 559.74 536.15 560.06 536.38 561.38 536.19 562.32 535.81 562.93 534.97 564.55 534.9 565.61 535.09 566.98 535.88 569.4 538.96 572.3 539.61 573.21 539.64 573.63 539.58 574.04 539.34 574.35 538.01 574.72 536.42 574.83 535.33 574.6 530.54 573.62 530.56 574.78 530.79 576.39 531.54 578.47 532.68 579.3 533.49 580.18 534.44 580.45 536.17 580.29 537.25 580.64 538.77 580.38 539.6 580.55 540.56 581.12 541.48 581.99 541.47 584.9 541.09 586.3 541.14 588.23 540.84 589.38 539.36 589.99 538.03 590.1 535.09 590.73 534.79 591.07 534.83 591.68 535.2 592.7 535.4 594.54 536.23 596.27 536.35 598.03 536.24 599.45 548.15 599.58 547.29 622.14 542.09 630.92 542.5 632.06 545.21 632.25 549.06 635.99 551.42 635.63 552.07 637.99 553.61 639.98 552.42 641.56 552.4 647.52 550.49 651.55 551.91 657.77 552.82 661.17 553.59 664.01 553.72 664.51 552.75 665.51 553.71 667.67 553.75 670.17 553.76 670.81 553.21 670.42 552.54 669.92 550.59 673.31 549.49 671.16 547.28 672.04 549.31 673.19 549.46 675.77 550.78 675.85 551.06 679.3 549.84 680.34 550.31 684.89 548.16 685.27 548.03 683.67 547.88 681.58 545.81 682.69 542.84 684.21 544.14 686.43 545.68 689.05 548.32 688.18 551.77 687.05 552.48 686.82 553.79 686.7 553.61 684.34 559.75 683.53 561.98 683.28 564.84 682.86 566.84 682.5 568.76 682 570.54 681.44 572.35 680.81 574.77 679.98 576.31 679.47 576.96 679.25 578.09 678.87 578.93 678.59 579.93 678.26 580.83 678 581.09 677.93 582.24 677.6 584.7 677.37 586.78 677.22 589.03 677.07 591.39 676.89 591.81 676.79 593.71 676.14 595.79 675.46 597.89 674.9 598.33 681.19 598.37 681.77 598.45 682.93 600.5 682.26 602.58 681.41 604.25 680.72 610.49 678.16 609.47 670.73 611.09 670.74 612.63 670.37 614.46 669.6 616.64 668.73 616.08 661.14 620.3 660.76 622.49 660.58 624.82 660.4 626.96 660.2 627.52 666.65 629.48 666.42 631.44 666.15 633.43 665.91 635.4 665.74 635.67 665.72 637.66 665.51 639.72 665.06 641.78 664.5 642.01 666.86 642.04 667.48 644.08 666.95 644.91 666.59 645.86 666.18 647.91 664.81 647.83 664.13 654.17 659.08 654.01 658.39 653.89 657.64 653.25 653.46 652.23 650.78 650.52 649.22 648.63 649.45 648.48 646.23 648.43 645 648.09 637.6 647.66 635.26 646.82 630.75 647.99 628.34 648.65 625.25 649.06 623.36 648.71 620.56 650.55 616.47 648.41 614.63 644.94 612.79 644.6 612.64 644.42 612.56 644.07 610.26 640.54 610.43 639.2 605.17 639.85 604.31 641.52 602.09 645.88 602.4 655.55 601.37 660.46 603.2 660.47 603.52 660.47 604.16 661.38 607.05 661.52 607.78 661.55 607.9 664.35 609.03 664.72 609.17 667.23 610.05 669.04 608.47 669.83 610.34 671.24 611 668 617.54 668.46 617.86 672.46 611.62 673.41 612.25 672.73 615.75 669.99 625.71 670.18 628.62 670.26 629.4 670.49 631.3 670.71 633.27 671.3 638.3 671.21 639.74 670.84 640.25 669.69 640.28 666.15 641.74 661.68 644.56 660.54 642.7 659.69 640.69 657.77 641.89 656.37 642.77 653.69 644.45 655.43 646.07 656.69 647.7 657.99 649.93 659.24 652.16 660.44 654.14 661.21 653.38 663.05 654.03 664.32 652.75 664.64 654.87 666.65 654.61 667.13 658.19 669.16 657.99 671.29 658.14 673.16 658.66 675.11 659.19 676.05 657.28 675.19 655.99 679.14 654.72 679.97 653.65 680.95 653.02 685.91 654.34 685.94 651.45 686.37 647.49 686.75 645.58 687.12 643.7 688.07 638.8 686.18 638.9 687.63 631.61 689.27 632.58 691.68 629.36 693.36 627.53 695.45 625.25 697.02 623.53 699.17 621.25 697.85 620.05 696.14 618.44 694.56 620.57 693.91 620.01 701.28 611.76 706.37 608.91" stroke="black"/>
<path d="M 508.97 377.33 507.65 373.83 505.31 367.55 507.28 366.82 504.45 359.2 502.4 359.72 500.4 360.3 498.31 361.1 496.08 361.96 494.19 356.99 491.47 349.84 488.65 342.15" stroke="black"/>
<path d="M 488.65 342.15 490.47 340.46 492.28 339.13 494.17 337.74 496.03 336.41 497.86 335.08 499.52 333.94 499.87 333.73 500.48 333.28 501.46 333.01 502.91 332.52 503.33 332.34" stroke="black"/>
<path d="M 503.33 332.34 506.53 334.46 509.97 336.33 510.12 335.12 508.59 331 510.05 330.68 512.3 330.1 513.48 330.05 514.37 329.49 516.01 329.31 518.15 328.58 520.19 327.89 521.47 327.33 522.18 327.03 523.57 326.68 524.08 326.69 524.78 326.38 525.59 326.1 526.85 325.77 528.27 325.48 529.18 325.47 530.34 325.28 532.47 324.91 536.97 324.64 538.33 324.61 539.15 324.59 540.64 324.51 541.48 324.47 543.07 324.37 540.51 319.22 542.73 318.5 541.37 315.87 540.33 313.81 539.14 311.51 538.11 309.49 537.07 307.46 537.01 304.61 534.73 302.99 536.54 302.31 538.02 301.35 541.26 297.98 543.3 297.67 542.74 296 540.81 294.49 540.13 292.11 538.16 287.66 540.9 287.63 540.86 285.39 540.82 283.2 538.16 283.22 538.51 282.55 538.15 282 537.36 279.45 536.34 276.83 538.6 276 538.91 275.89 541.06 275.1" stroke="black"/>
<path d="M 576.55 305.8 574.52 306.57 572.66 307.26 570.45 308.09 571.78 311.13 567.45 312.68 566.38 309.63 561.4 311.49 556.87 313.21 555.67 313.64 554.84 311.33 548.5 313.65 548.76 316.23 548.87 318.63 549.16 319.3 549.21 320.82 549.41 322.73 549.65 325.18 548.76 324.98 549.39 326.94 547.33 327.74 545.29 328.5 546.67 332.21 548.71 331.45 549.78 334.34 547.76 335.1 545.71 335.88 543.31 336.77 543.84 337.56 542.92 337.53 543.43 338.81 542.73 339.12 543.85 341.12 540.58 342.15 541.72 345.25 539.7 346 537.7 346.75 535.69 347.52 533.27 348.43 534.67 352.18 535.92 356.04 536.66 355.77 538.83 362.15 540.85 361.39 541.86 363.55 545.05 371.82 547.49 378.48" stroke="black"/>
<path d="M 547.49 378.48 545.28 379.86 544.74 380.29 543.92 380.65 543.13 380.94 541.93 381.39 541.06 381.71 539.92 382.14 538.95 382.51 538.21 382.78 535.74 376.24 533.82 376.96 531.8 377.69 530.15 378.18 528.08 378.95 526 379.73 523.91 380.5 521.74 381.32 519.69 382.09 517.71 382.83 515.75 383.57 513.79 384.31 511.85 385.02 508.97 377.33" stroke="black"/>
<path d="M 503.33 332.34 503.23 331.52 500.24 329.47 502.08 327.95 500.63 323.54 498.98 318.59 496.86 319.29 495.91 316.42 495.71 315.83 493.85 310.03 493.38 309.79 492.48 309.31 490.98 308.54 495.51 305.27 495.74 305.09 499.46 304.04 502.06 302.97 499.45 299.88 500.84 298.8 502.44 297.44 507.33 293.32 507.77 294.16 511.89 292.03 504.67 287.89 504.21 287.3 503.86 286.84 502.23 286.63 500.39 284.85 497.21 281.64 495.68 280.09 493.89 278.41 491.78 276.67 489.37 274.99 488.38 272.72 487.57 270.62 486.77 268.55 485.96 266.46 485.14 264.37 484.34 262.27 483.51 260.2 482.7 258.11 485.05 257.19 483.43 253.01 481.07 253.93 480.26 251.85 474.98 253.93 474.17 251.83 473.35 249.75 472.55 247.66 471.73 245.58 470.92 243.49 469.63 241.59 468.33 239.7 468.19 237.31 467.66 235.14 466.86 233.06 461.5 235.16 456.22 237.23 452.13 238.84 445.67 241.39 444.85 239.3 444.04 237.22 443.22 235.12 442.42 233.04 441.34 230.25" stroke="black"/>
<path d="M 488.65 342.15 486.78 343.82 484.96 345.24 483.14 346.18 482.78 346.32 481.07 346.8 480.72 346.87 479.21 347.11 477.18 347.32 474.9 347.4 473.72 347.42 469.06 347.51 468.66 346.27 467.97 344.23 467.29 342.17 466.62 340.14 465.94 338.09 465.21 335.95 467 335.08 461.54 331.06 462.29 326.59 456.48 325.76 453.01 324.86 445.52 324.16 443.49 323.88 441.36 323.56 439.19 323.27 438.39 323 437.55 323.01 434.38 322.55 433.44 322.42 432.7 322.32 430.93 322.05 426.58 321.67 425.29 321.85 423.07 322.08 422.25 314.53 420.08 314.76 419.73 311.42 417.57 311.46 417.95 314.99 415.84 315.22 416.23 317.63 417.07 322.73 414.7 322.99 412.83 323.2 412.53 323.23 410.95 323.4 408.78 323.64 406.6 323.88 404.43 324.11 402.17 324.36 399.9 324.6 397.6 324.86 395.86 319.08 395.53 318.38 395.01 316.43 394.43 314.58 393.47 311.78 393.34 311.32 384.42 312.32 383.8 312.31 384.64 312.87 382.69 313.4 380.51 314.1 378.51 314.69 376.47 315.33 375.79 313.09 373.53 312.99 371.2 312.77 369.13 313.42 367.07 314.08 368.26 317.89 366.21 318.54 364.09 319.2 361.96 319.85 360.43 320.33 359.92 321.02 358.32 323.25 356.41 326.5" stroke="black"/>
<path d="M 492.26 397.35 490.65 392.98 489.1 388.83 491.05 387.49 492.93 386.15 493.67 385.61 494.8 384.79 495.49 384.3 496.68 383.48 497.32 383.13 498.68 382.43 499.21 382.16 500.68 381.4 501.17 381.14 503.03 380.17 505.03 379.15 506.99 378.13 508.97 377.33" stroke="black"/>
<path d="M 547.49 378.48 549.65 384.74 551.7 390.23 553.79 389.45 555.89 388.67 557.94 387.9 558.59 387.65 560.06 387.11 562.28 386.27 563.85 390.38 564.33 391.78 564.69 391.64 565.31 391.4 566.18 393.86 567.32 396.88 569.4 402.35 570.77 406.36 573.17 412.81 574.19 412.82 575.58 412.93 577.44 413.19 579.63 413.46 580.97 413.62 580.69 415.94 580.95 418.51 581.14 420.37 581.32 422.28 581.63 425.06 582.61 428.37 583.74 432.23 585.98 431.69 589.61 433.01 591.68 434.38 593.19 435.62 593.59 435.58 595.7 435.73 597.79 435.95 597.92 436.17 599.94 436.21 602.28 436.36 608.09 435.59 611.19 435.27 612.71 435.13 616.82 434.87 618.36 434.7 620.4 434.54 623.2 434.21 625.37 434.01 629.64 433.61 631.78 433.42 633.82 433.5 634.29 433.19 636.03 432.99 638.21 432.78 640.32 432.63 644.79 432.84 656.19 434.5 660.6 435.15 663.32 435.56 665.82 435.89 667.92 436.24 677.9 437.58" stroke="black"/>
<path d="M 706.37 608.91 706.44 609.08 707.07 610.81 708.98 614.22 710.64 618.06 711.41 619.53 711.8 620.29 712.22 620.81 712.54 621.21 711.86 622.42 712.36 623.17 717.12 628.82 718.49 630.63 719.15 631.52 721.69 632.95 724.25 637.43 724.61 640.91 723.9 652.22 723.89 652.83 723.67 655.16 723.82 655.87 724.37 658.52 724.26 662.69 724.25 663.04 724.25 663.24 724.25 664.01 725.82 666.04 726 666.53 726.37 667.5 726.54 667.97 726.45 667.97 723.68 668.05 723.49 668.06 719.8 668.16 715.97 668.26 712.14 668.37 711.8 668.34 711.27 668.3 710.74 668.27 709.21 668.16 701.41 672.55 693.73 680.24 691.01 682.96 690.41 683.64 683.72 690.89 682.96 691.72 682.81 698.61 682.8 698.9 682.49 712.7 679.61 747.27 676.91 779.8 676.41 785.76 666.94 801.92 660.52 820.09 654.96 839.78 654.1 842.79 651.47 853.05 651.37 853.45 641.41 854.62 631.85 855.75 615.23 857.71 594.08 863.98 566.99 872.02 532.07 882.38 514.84 887.48 506 891.9 487.1 901.32 446.59 921.52 432.87 932.83 410.46 951.29 394.4 955.55 382.35 972.56 381.32 974.06 370.9 991.01 235.05 890.18 220.38 879.14 219.37 879.38 208.3 881.98 202.86 883.25 117.48 903.02 1 929.97 10.47 839.21 11.99 825.13 13.94 807.66 13.95 807.62 14.23 805.08 14.24 805.03 14.83 799.72 14.83 799.59 14.84 799.52 14.85 799.29 108.13 779.75 197.06 761.8 198.09 761.6 199.13 761.38 214.68 758.06 216.2 757.74 216.82 757.64 217.33 757.56 217.77 757.49 218.5 757.38 220.46 756.97 232.06 754.6 252.23 751.08 256.12 750.41 259.56 749.59 259.76 749.54 261.3 749.21 270.81 747.18 272.35 746.85 273.89 746.54 295.15 742.16 327.46 735.51 329.93 734.85 332.3 734.59 361.7 731.45 371.76 728.94 374.67 728.18 388.58 725.33 406.69 713.49 407.15 713.18 407.64 712.94 409.96 711.82 412.35 710.65 414.27 709.35 416.09 708.12 416.45 707.88 416.77 707.66 420.03 705.46 420.98 704.82 435.53 696.26 445.96 690.11 446.37 689.88 449.73 687.94 458.46 681.43 464.33 670.91 466.01 667.21 471.35 658.92 477.11 651.21 491.72 628.26 495.08 623.38 495.51 617.14 496.05 603.76 496.9 580.35 497.49 563.96 497.56 561.98 497.61 559.89 497.63 559.18 497.69 556.72 492.91 550.9 491.97 549.77 490.86 548.41 490.01 547.04 488.83 545.13 488.14 544.03 487.49 542.99 486.4 541.55 485.96 540.96 474.88 526.37 462.07 509.5 446.36 512.23 446.17 510.82 443.48 491.69 442.28 488.77 440.2 484.75 438.16 480.8 434.62 476.55 433.15 474.58 433.03 474.38 432.9 474.19 432.81 474.05 432.71 473.91 432.02 472.93 430.37 470.02 429.1 467.76 428.52 466.41 426.77 463.22 430.73 460.79 431.43 460.47 432.55 460.03 433.67 459.6 433.9 459.5 434.14 459.41 435.13 459.13 436.11 458.84 436.68 458.66 437.25 458.48 438.78 458.18 440.31 457.89 439.84 455.39 439.36 452.91 439 451.43 438.96 451.24 438.3 448.05 438.27 447.9 438.22 447.66 439.05 447.52 439.98 447.36 442.1 446.87 443.64 446.27 444.64 445.89 443.69 440.53 443.56 439.84 442.82 435.75 442.74 435.36 441.82 430.83 440.82 425.65 439.95 421.25 437.76 421.64 435.77 422.07 435.57 422.11 433.39 422.46 432.47 417.64 431.88 413.88 431.79 412.82 431.18 410.69 431.05 410.02 430.99 409.71 430.62 407.71 430.24 405.71 429.76 403.14 429.49 401.7 428.74 397.69 426.51 397.98 426.43 397.54 426.35 397.11" stroke="black"/>
<path d="M 541.06 275.1 544.32 273.91 546.51 273.11 547.82 272.64 548.25 272.48 548.73 275.22 548.92 276.21 549.08 277.02 556.61 274.51 558.83 273.82 560.99 273.32 563.1 272.83 565.24 272.33 567.63 271.77 570.67 271.06 572.89 270.54 575.08 270.05 577.25 269.52 579.46 269.08 581.61 268.45 583.67 267.62 582.25 263.16 580.72 258.45 582.77 257.52 584.81 256.61 586.88 255.67 588.7 254.85 590.83 253.89 592.94 252.94 596.72 251.4 598.87 250.58 600.92 249.7 602.16 249.15 602.99 248.79 605.04 247.91 607.1 247.01 609.09 246.16 609.94 245.78 611.14 245.26 613.2 244.37 615.21 243.5 616.1 243.12 617.72 242.42 619.77 241.53 621.91 240.61 624.08 239.83 626.18 239.07 628.27 238.31 630.44 237.53 632.56 236.76 634.65 236 636.77 235.27 638.95 234.74 641.16 234.21 643.03 233.77 644.83 233.36 648.21 232.55 656.01 230.65 657.1 230.5 659.03 230.18 660.62 229.78 660.59 229.59 662.1 229.45 663.45 229.14 661.05 225.31 660.26 224.08 665.9 222.39 666.37 219.16 665.87 215.35 664.67 212.05 663.67 209.32 661.99 204.62 664.17 203.82 666.26 203.06 668.37 202.3 670.47 201.54 668.48 196.02 670.58 195.26 673.07 194.36 672.59 193.43 674.7 192.47 676.82 191.77 678.93 191.04 684.15 189.21 684.38 190.18 686.59 195.69 688.72 194.92 690.83 194.17 692.92 193.41 695.02 192.64 697.14 191.87 699.31 191.1 701.44 196.16 703.77 199.07 707.81 201.93 710.2 204.43 710.92 206.31 711 208.67 711.82 210.24 712.55 211.63 714.42 211.56 715.71 211.31 717.01 211.1 722.86 206.08 725.57 203.54 726.39 202.64 727.6 201.34 730.83 198.14 731.86 197.29 733.26 195.34 734.98 193.81 735.57 193.38 736.14 193 740.24 190.2 743.25 188.34 745.13 184.55 744.43 185.01 743.46 185.48 744.79 182.05 746.71 177.53 747.54 175.57 749.39 170.63 750.89 168.82 752.7 167.19 754.21 166.23 754.17 164.88 757.62 162.13 759.91 161.11 760.49 162.46 760.96 163.08 761.2 164.33 762.65 165.55 764.29 166.5 764.83 168.92 767.38 168.7 769.32 169.59 772.83 172.54 774.47 170.6 774.66 170.47 774.99 170.33 775.28 170.26 775.51 170.24 775.76 170.25 776.34 170.25 776.96 170.21 777.56 170.11 778.09 169.99 778.46 169.88 779.1 169.64 782.35 172.1 784.97 174.36 788.07 176.98 792.33 180.62 790.52 181.9 791.3 184.64 793.53 184.01 795.75 183.38 797.33 188.99 799 194.92 796.77 195.55 794.53 196.17 796.11 201.78 793.97 202.39 791.83 203 789.68 203.61 787.52 204.22 785.38 204.82 783.23 205.43 781.08 206.04 778.93 206.65 777.47 207.07 777.21 207.14 774.41 207.94 772.27 208.55 770.12 209.16 767.97 209.76 765.82 210.37 763.67 210.98 761.52 211.6 759.41 212.19 757.21 210.04 758.16 212.09 758.36 212.58 759.8 217.08 760.07 217.96 760.82 224.68 759.67 225.19 758.75 225.47 757.81 225.76 756.6 226.06 755.81 226.28 754.66 226.57 752.91 227.11 752.28 227.17 747.74 228.17 740.55 229.75 738.44 229.13 736.71 235.15 734.07 235.05 731.41 234.96 728.79 235 728.28 235.93 728.07 237.51 726.7 241.85 726.62 242.12 724.67 241.54 724.23 241.41 723.65 241.24 722.11 240.76 721.27 240.51 718.18 239.6 714.04 238.23 710.89 237.42 708.92 239 706.99 240.05 705.21 241.5 703.56 242.81 701.68 244.33 699.81 245.74 697.93 246.92 695.97 248.15 694.08 249.34 691.96 250.68 690.38 248.83 684.71 253.23 681.09 250.74 680.43 250.28 680.37 250.69 680.37 251.11 680.47 251.52 680.67 252.09 681.03 252.56 681.38 253.24 682.39 254.42 681.55 255.22 676.83 259.71 672.27 264.01 673.59 266.19 672.8 266.68 671.54 267.46 669.55 268.5 667.58 269.53 666.54 270.13 665.68 270.67 663.67 271.79 661.63 273.02 659.79 274.41 659.41 274.69 656.46 276.92 654.81 278.04 652.8 278.97 651.59 279.53 650.51 280.03 648.27 281.06 645.84 282.17 643.89 283.08 641.9 283.98 639.97 284.85 637.9 285.53 635.86 286.18 634.87 286.49 633.75 286.84 632.58 287.21 631.52 287.55 631.08 287.71 629.43 288.21 628.32 284.6 621.73 286.67 618.02 288.24 611.06 290.97 607.77 292.01 604.4 293.86 602.49 294.55 600.36 295.53 598.46 296.43 599.5 298.75 600.6 301.22 598.15 302.29 597.07 299.84 594.64 300.93 592.52 301.88 590.45 302.82 590.55 303.04 586.88 304.83 587.97 307.05 585.85 308.07 584.48 305.33 583.47 303.22 582.39 303.61 581.67 302.05 581.12 300.87 580.17 298.84 578.81 296.6 577.43 297.23 576.3 297.76 576.12 297.37 573.25 298.72 573.69 299.7 574.54 301.5 575.52 303.57 576.55 305.8" stroke="black"/>
<path d="M 441.34 230.25 440.72 228.7 445.92 226.66 445.11 224.57 444.29 222.49 443.47 220.4 448.81 218.3 449.6 220.4 450.38 222.51 452.99 221.5 455.74 220.38 454.92 218.3 454.55 217.35 454.1 216.16 455.08 215.73 461.87 212.51 464.71 211 465.19 210.54 464.52 209.99 467.19 208.46 468.29 208.07 468.75 207.78 468.77 206.89 468.54 206.24 468.63 205.35 468.6 204.27 467.7 200.25 467.24 198.73 465.71 194.83 460.73 183.57 461.34 183.34 462.1 183.6 464.57 181.11 467.5 179.76 471.96 177.92 473.32 174.21 474.49 172.4 475.68 172 475.2 171.26 477.49 169.25 479.26 167.01 476.33 167.14 475.67 166.34 473.27 167.08 471.63 168.29 459.4 174.16 457.34 175.01 455.5 170.91 453.6 166.68 455.27 166.02 456.54 165.67 474.06 158.53 473.26 155.99 472.28 153.51 471.32 151 470.51 148.93 469.69 146.84 468.98 144.83 468.56 143.78 468.36 143.29 467.78 142.42 467.42 141.57 467.2 141.05 466.79 140.09 466.66 139.77 461.65 131.91 459.98 130.69 457.44 124.88 453.75 119.58 449.3 114.13 451.83 105.97 451.22 95.36 433.12 84.27 414.54 67.26 408.16 59.15 407.54 57.22 407.91 53.76 408.09 53.32 410.45 47.73 410.51 47.52 418.36 38.17 427.04 27.79 427.88 26.79 449.87 19.54 453.81 18.25 466.08 16.23 472.28 15.21 494.03 12.32 501.64 9.13 503.9 8.53 504.4 8.29 512.62 8.53 521.86 4.73 522.62 4.47 536.44 1 550.35 2.2 553.39 28.82 552.25 28.77 551.95 29.85 552.45 29.35 552.73 30.67 551.98 30.95 552.25 33.91 552.55 38.52 549.56 39.32 546.25 40.33 540.82 41.99 536.13 43.41 537.05 46.43 533.72 47.42 529.89 48.57 526.74 49.57 530.58 50.73 531.05 52.35 527.97 51.4 525.6 50.75 523.64 51.08 521.51 49.18 521.22 48.57 520.81 51.57 520.24 51.74 518.99 57.53 517.07 52.42 514.79 52.91 516.52 58.77 514.32 56.04 511.56 56.45 509.37 56.77 508.27 56.94 507.16 57.1 505.26 57.39 505.8 61.11 504.53 61.31 503.88 61.4 503.54 61.45 504.08 64.99 504.42 66.48 506.6 66.51 508.54 66.47 510.79 66.47 513.07 66.46 513.1 69.65 513.35 75.84 515.94 75.77 515.9 78.36 515.95 78.62 515.92 79.01 515.23 81.65 514.2 84.12 511.63 90.21 510.22 93.55 508.46 97.74 507.39 99.09 506.73 99.92 506.63 100.04 504.27 102.82 502.39 105.02 500.32 106.46 497.52 108.4 495.45 110.15 494.06 111.29 489.02 117.38 485.47 122.97 484.3 125.42 483.89 127.09 483.44 128.03 482.41 129.25 482.63 130.45 482.84 132.36 483.36 136.19 483.45 136.49 483.8 137.71 484.55 141.65 484.92 143.89 484.52 145.85 484.74 151.52 485.01 153.46 485.71 156.38 486.66 161.39 487.12 162.35 493.63 174.14 494.6 179.98 493.64 184.51 491.96 186.8 490.31 189.24 488.41 192.02 487.66 194.55 487.5 195.1 487.21 197.44 488.49 197.08 490.03 196.6 491.04 196.4 491.66 196.29 491.7 196.91 497.17 198.24 498.53 198.57 500.31 198.9 500.77 199.04 503.12 199.39 502.91 201.59 502.8 203.74 502.68 205.91 502.6 208.11 504.42 214.52 506.97 216.08 510.24 215.89 510.33 211.27 510.99 211.42 511.51 211.47 511.9 211.48 512.44 211.43 512.81 211.36 513.22 211.25 513.89 210.99 514.19 210.82 514.56 210.59 514.89 210.34 515.17 210.09 515.55 209.67 515.85 209.27 516.08 208.87 516.21 208.61 517.63 208.69 518.04 207.89 517.02 222.13 525.53 221.01 525.07 224.22 528.21 224.68 530.09 224.96 535.67 225.7 541.87 226.26 541.94 223.18 542.01 220.49 542.12 215.67 545.02 215.82 545.37 215.83 547.6 215.94 549.83 216.06 551.72 216.16 552.14 216.18 554.45 216.29 556.69 216.4 558.92 216.52 561.15 216.64 563.37 216.75 565.8 216.86 565.51 222.62 565.23 228.39 564.99 232.83 564.79 236.7 564.66 242.9 564.82 245.04 564.99 247.19 560.64 247.83 556.39 248.46 551.64 249.16 551.18 247.01 547.42 247.14 549.68 248.63 544.01 250.88 544.82 252.93 539.47 255.07 540.28 257.16 541.11 259.23 541.92 261.33 542.73 263.42 543.54 265.5 538.15 267.62 538.96 269.71 539.77 271.79 541.06 275.1" stroke="black"/>
<path d="M 356.41 326.5 355.87 325.61 354.76 325.44 355.49 324.25 353.62 318.5 352.26 314.31 350.14 315.01 347.87 315.76 347.3 314.21 347.12 313.75 346.42 311.91 345.73 310.06 344.94 307.96 343.89 305.94 342.82 303.94 348.27 302.11 347.57 299.99 344.91 298.49 342.4 297.08 339.83 297.84 339.49 296.95 338.7 294.95 337.72 292.46 338.7 292.51 340.68 292.62 344.66 292.83 346.04 292.89 348.14 293.01 348.89 293.05 350.98 293.15 353.37 293.26 353.88 293.28 365.85 293.75 369.01 284.67 369.65 285.99 370.12 286.05 371.17 284.07 371.62 282.04 370.88 280.85 372.84 279.65 374.66 278.54 376.67 277.31 378.59 276.12 380.47 274.96 382.38 273.8 384.29 272.63 387.78 278.48 388.79 279.01 392.95 278.31 393.34 278.24 395.33 277.92 395.58 277.88 397.75 277.53 400.05 277.15 402.89 276.62 404.83 276.34 407.12 275.84 409.26 275.31 411.51 274.1 413.43 272.97 415.36 271.83 417.27 270.66 421.29 268.65 419.94 266.7 418.68 264.86 417.39 263.01 416.84 262.24 416.09 261.18 414.79 259.7 414.32 259.02 413.46 257.54 412.21 255.61 410.96 253.33 410.02 250.11 413.41 245.66 412.33 245.14 411.4 244.7 407.66 242.98 407.12 240.5 407.09 239.51 406.82 238.11 406.85 235.45 406.97 234.79 407.05 234.3 406.88 233.92 412.04 234.54 413.14 232.42 414.66 230.24 414.11 229.91 414.7 229.65 420.58 227.51 422.08 226.92 422.16 226.72 423.79 225.87 423.99 226.38 426.17 232.01 428.44 237.57 428.72 237.71 432.34 235.27 436.04 232.57 438.07 231.16 438.45 230.9 441.34 230.25" stroke="black"/>
<path d="M 677.9 437.58 681.95 437.78 682.94 437.74 683.53 437.75 688.27 437.74 691.87 437.75 694.32 437.73 696.66 437.76 699.24 437.79 705.37 437.74 707.08 437.73 715.58 437.73 717.04 437.73 719.28 437.73 717.86 439.23 717.54 439.49 721.34 440.71 720.92 441.33 719.8 442.92 723.53 445.08 722.42 447.02 721.3 448.96 720.19 450.9 723.64 452.9 726.8 454.73 728.73 455.85 727.62 457.79 726.5 459.73 721.41 456.78 720.3 458.72 725.39 461.67 724.27 463.6 723.15 465.55 720 463.72 718.07 462.59 716.2 466.1 717.36 468.24 718.4 470.46 719.39 472.69 720.36 474.98 721.33 477.27 722.36 479.69 723.26 481.79 723.57 482.49 724.26 484.07 726.08 488.35 726.95 490.49 727.19 490.98 729.76 491.37 728.04 492.22 726.1 493.3 725.98 493.36 725.19 493.8 722.66 494.84 722.25 495.01 722.04 495.1 721.33 494.81 720.18 494.74 717.75 495.96 717.55 495.89 716.4 495.46 715.18 495.53 715.75 497.9 715.8 498.07 716.04 498.91 716.19 500.99 716.14 501.27 715.48 505.22 715.28 507.74 715.24 508.24 715.06 510.53 715.02 510.89 714.92 511.96 714.98 512.19 715.05 512.44 715.06 512.47 715.34 513.97 715.39 514.23 715.34 516.58 716.45 518.96 714.41 520.16 716.2 522.95 716.84 523.97 716.93 524.21 717.17 524.75 717.39 525.32 718.27 527.33 719.17 529.4 720.21 533.67 719.57 534.61 718.59 535.31 717.61 536 714.73 536.72 713.8 536.21 713.87 534.85 715.59 532.46 716.18 531.01 716.8 529.47 716.72 528.46 715.22 527.1 713.93 526.67 712.43 526.68 710.86 527.32 710.29 527.76 710.19 528.12 707.26 538.95 703.9 541.27 656.82 565.41 655.55 566.05 655.71 568.08 655.83 569 655.71 573.3 656.05 579.85 656.19 581.88 657.01 589.52 657.83 597.16 657.94 598.15 658.06 599.14 658.6 600.43 661.91 601.06 663.99 602.97 664.04 603.02 667.3 606.02 672.21 610.36 673.14 610.52 673.84 610.64 678.1 611.34 678.84 611.47 683.69 612.72 683.71 613.64 683.74 614.64 687.82 612.96 694.5 610.03 695.84 609.44 698.15 608.2 700.1 607.63 700.83 607.35 701.73 608.32 702.12 608.09 702.68 607.76 703.33 609.02 703.54 609.65 706.14 608.34 706.37 608.91" stroke="black"/>
<path d="M 576.55 305.8 578.74 305.01 581.23 310.29 584.7 317.57 584.2 317.84 586.39 321.97 587.25 322.53 589.84 328.43 592.37 333.08 594.11 331.55 594.68 330.96 596.25 328.32 596.43 328.02 599.69 326.69 600.24 327.41 602.24 326.55 604.21 325.71 605.26 328.33 601.97 329.73 603.19 331.28 603.93 332.21 604.71 333.19 606.53 335.45 608.25 337.38 611.02 338.94 613.34 340.24 611.73 341.06 613.03 342.9 614.22 344.58 615.31 346.45 616.51 348.94 619.65 347.26 621.19 349.67 622.48 351.64 624.11 354.37 626.58 358.51 629.68 363.95 632.72 368.83 634.77 370.94 636.9 373.07 637.81 373.95 639.4 375.39 640.97 376.85 639.37 378.59 636.54 381.66 632.5 386.02 633.76 387.02 638.62 390.87 639.98 392.05 641.34 391.28 643.1 390.18 645.84 387.53 648.12 385.31 649.08 383.22 651.84 385.21 655.22 387.63 657.29 388.88 659.01 389.97 659.58 390.39 660.79 391.15 662.86 392.46 664.43 393.42 665.57 394.14 668.05 395.64 668.43 395.89 672.68 398.3 673.02 399.3 674.07 401.22 675.14 403.18 676.21 405.16 677.09 407.32 673.43 409.36 671.51 410.41 669.52 411.5 668.39 409.45 668.03 408.79 667.31 407.5 666.53 406.04 666.25 405.52 664.1 406.62 663.95 407.61 663.75 409.44 663.51 411.56 663.41 412.91 663.25 414.26 663.21 414.62 663.14 415.03 662.63 417.51 662.42 418.43 661.9 420.63 661.44 421.7 661.17 422.31 660.16 424.6 659.75 425.57 658.92 427.49 663.02 428.4 665.27 428.9 666.48 429.16 667.39 429.36 668.59 429.63 670.77 430.1 672.93 430.58 672.13 434.27 674.35 434.75 678.64 435.73 677.9 437.58" stroke="black"/>
<path d="M 426.35 397.11 425.97 395.1 425.31 391.58 424.56 387.63 423.73 387.92 422.44 388.39 419.98 389.05 419.87 388.35 419.57 386.49 419.34 385.07 418.84 381.03 418.62 378.54 417.97 375.21 417.62 373.64 417 370.77 416.57 368.67 416.18 366.38 415.83 364.31 415.5 362.2 415.35 361.29 415.14 359.98 413.9 352.22 413.68 351.61 413.56 348.77 413.1 347.53 400.96 350.54 388.02 359.83 385.01 362.93 383.54 364.44 381.34 366.71 380.43 367.65 378.94 369.17 377.79 370.35 377.74 370.4 377.32 370.7 373.25 373.52 368.59 376.24 367 378.83 365.42 380.4 363.95 381.96 362.74 380.29 361.51 381.17 360.39 381.98 359.26 382.78 358.9 383.02 358.54 383.26 356.93 384.33 353.34 378.95 353.06 379.29 352.57 379.9 351.2 381.6 349.46 384.3 347.48 387.39 336.79 371.18 338.36 370.39 336.56 366.11 334.85 361.4 335.02 361.11 336.19 359.18 335.09 358.49 334.6 358.21 334.08 357.91 332.43 356.53 330.48 354.93 329.58 354.26 328.93 353.78 328.2 353.23 326.98 352.31 326.77 352.14 325.22 350.93 326.93 348.31 327.46 347.55 328.61 345.9 327.76 344.92 327.73 344.91 327.69 344.91 327.6 344.89 327.44 344.86 327.36 344.85 327.1 344.8 326.99 344.68 326.76 344.43 325.92 343.52 325.89 343.51 325.84 343.48 325.81 343.47 325.78 343.45 325.66 343.39 325.53 343.33 325.41 343.26 325.3 343.16 325.28 343.15 324.7 342.62 324.49 342.43 324.4 342.35 324.13 342.25 323.79 342.13 323.66 342.02 323.09 341.49 322.7 341.13 322.46 340.96 322.31 340.86 322.01 340.65 321.26 340.02 320.09 339.33 319.09 338.56 318.31 337.95 316.26 336.34 315.01 335.35 313.01 333.77 311.41 332.61 313.97 329.18 312.11 327.62 310.44 326.31 308.86 324.9 310.27 321.89 310.45 321.5 308.92 320.28 307.26 318.74 305.6 317.48 308.5 313.86 310.7 311.02 312.46 312.39 314.23 313.77 315.99 315.14 317.75 316.52 319.52 317.9 321.28 319.27 323.05 320.65 324.81 322.03 326.57 323.4 328.33 324.78 330.1 326.15 332.13 327.74 333.05 328.45 335.11 330.06 335.98 330.77 338.67 330.74 340.32 332.05 341.25 330.71 343.02 330.69 343.94 330.69 346.94 330.38 348.01 330.26 348.43 330.22 348.66 332.33 345.67 336.23 346.85 337 352.5 329.85 353.8 329.61 354.97 329.52 357.11 329.29 356.41 326.5" stroke="black"/>
</g>
</svg>