<?xml version="1.0"?>
<svg xmlns="http://www.w3.org/2000/svg" version="1.2" baseProfile="tiny" width="800" height="436" viewBox="0 0 800 436" stroke-linecap="round" stroke-linejoin="round">
<g id="senate" fill="none" stroke="black" stroke-width="1">
<path d="M 618.43 304.21 616.09 304.55 613.68 304.89 610.96 305.29 608.61 305.63 606.04 306 605.9 303.55 605.77 301.25 605.63 298.78 605.48 296.32 605.35 294.01 605.2 291.55 605.09 289.46 604.9 286.14 604.74 283.41 604.33 276.16 603.88 268.49 603.65 264.74 603.54 262.78 603.4 260.35 603.07 254.75 602.94 252.43 600.83 252.73 598.61 253.05 597.84 247.71 597.41 244.78 596.38 237.54 598.75 237.2 601.28 236.84 600.05 228.2 598.77 219.26 598.25 215.77 598.1 214.59 597.76 212.19 597.62 211.22 597.42 209.84 596.45 203.15 593.9 203.52 591.54 203.87 589.16 204.21 586.41 204.62 582.9 205.13 579.4 205.63 577.02 205.96 578.18 214.03 575.81 214.37 573.2 214.75 574.37 222.8 574.95 226.9 577.46 225.75 578.26 231.39 575.66 231.77 576.9 240.38 577.94 247.6 575.17 248.01 575.66 251.44 576.22 256.35 573.99 256.05 573.62 256 571.63 255.71 571.04 255.61 569.27 255.35 568.58 255.25 566.1 254.86 566.52 257.66 564.14 258.06 561.77 258.4 559.21 258.77 556.66 259.13 555.67 259.27 554.29 259.48 553.32 252.69 550.84 252.36 548.37 251.96 545.99 252.26 543.62 252.58 541.25 252.93 538.7 253.31 538.25 250.16 532.86 248.73 534.35 246.89 534.67 246.5 535.84 244.99 537.16 243.33 537.35 243.1 537.45 242.96 539.05 240.95 540.54 239.05 541.48 237.86 542.02 237.17 542.52 236.55 543.52 235.28 545.01 233.41 545.57 232.69 546.47 231.54 547.65 230.08 547.97 229.64 549.41 227.72 550.56 226.12 550.83 225.76 551.74 224.82 552.54 223.86 549.85 221.89 546.83 219.32 548.12 217.72 548.47 217.27 554.16 221.81 555.65 219.93 557.14 218.04 562.84 222.58 564.33 220.7 558.62 216.15 552.93 211.62 554.47 209.66 548.84 205.19 550.38 203.23 544.76 198.74 543.21 200.7 541.66 202.66 540.17 204.56 538.69 206.43 537.96 207.34 537.2 208.31 535.59 210.34 534 212.37 528.61 208.08 530.17 206.03 524.33 201.39 518.06 196.38 512.43 191.9 514.02 189.88 515.15 188.43 515.49 188.01 517 186.11 512.69 182.67 511.37 181.61 509.88 183.5 504.26 179.03 502.78 180.92 497.14 176.43 498.63 174.54 493 170.06 491.52 171.95 485.88 167.46 484.28 169.49 481.48 167.27" stroke="black"/>
<path d="M 481.48 167.27 478.65 165.02 473.01 160.53 474.61 158.51 476.1 156.62 477.59 154.72 477.9 154.33 478.31 153.82" stroke="black"/>
<path d="M 478.31 153.82 479.08 152.85 480.62 150.89 482.17 148.93 483.66 147.04 485.15 145.16 486.64 143.27 488.13 141.38 489.62 139.49 491.11 137.61 492.59 135.72 494.08 133.83 495.57 131.94 497.07 130.06 498.56 128.17 500.05 126.27 501.54 124.39 495.91 119.9 494.41 121.79 492.93 123.68 491.43 125.57 489.94 127.46 484.31 122.97 485.8 121.09 487.29 119.2 488.78 117.31 490.27 115.42 491.76 113.53 493.25 111.67 487.61 107.17 488.28 106.33 489.1 105.29 490.59 103.4 492.09 101.5 493.58 99.62 495.07 97.73" stroke="black"/>
<path d="M 495.07 97.73 500.69 102.2 506.3 106.68 507.64 105.63 508.38 104.8 513.86 109.11 512.68 110.3 511.97 111.19 517.61 115.66 519.06 116.84 523.23 120.14 521.72 122.02 520.21 123.9 525.71 128.27 527.54 126.65 533 131 534.49 129.11 535.99 127.22 541.61 131.71 547.26 136.19 548.09 135.13 548.74 134.3 550.24 132.41 555.85 136.9 556.54 137.33 557.04 140.88 557.36 143.05 557.56 144.36 557.79 146.04 558.04 147.79 558.49 151.07 561.27 150.69 564.17 150.28 566.54 149.93 565.38 141.88 567.75 141.53 566.59 133.48 564.22 133.83 563.06 125.76 565.43 125.42 567.81 125.08 570.6 124.67 569.88 119.5 570.41 119.18 571.06 118.83 573.86 117.33 574.83 124.05 577.58 123.66 579.96 123.31 581.56 123.08 582.08 125.49 582.59 127.76 583.11 130.01 583.33 131.04 581.11 131.38 581.92 137.03 582.27 139.43 585.06 139.01 586.33 144.81 588.1 143.74 587.12 136.88 586.07 129.57 585.74 127.28 585.41 125 585.06 122.57 587.43 122.23 589.8 121.89 592.17 121.54 594.55 121.2 596.04 131.61 593.81 132.93 591.58 134.25 589.35 135.57 590.32 142.34 592.55 140.96 594.77 139.58 596.99 138.19 597.97 137.58 599.22 136.81 601.53 135.36 603.82 133.93 606.08 132.54 607.13 139.83 607.88 145.06 605.63 146.48 604.87 141.24 602.56 142.68 600.25 144.09 599.55 144.54 600.05 149.83 600.02 150.03 598.8 150.81 596.59 152.22 596.46 151.35 595.86 147.14 595.82 146.87 594.69 147.57 593.6 148.24 591.37 149.63 591.57 151.01 592.15 155.03 594.37 153.62 595.08 158.46 597.27 157.06 599.42 155.71 600.61 154.95 601.73 154.24 604.01 152.8 606.32 151.34 607.42 150.64 608.58 149.91 610.04 160.07 611.2 168.12 611.59 170.81 611.64 171.24 614.72 170.8 616.03 170.66 617.34 170.53 619.7 170.18 622.07 169.87 624.49 169.55 626.98 169.21 629.39 168.86 631.79 168.53 636.53 167.84 639.44 167.42 639.78 172.21 640.93 180.28 638.38 180.64 639.54 188.69 642.09 188.33 643.25 196.38 645.8 196.01 644.64 187.95 643.48 179.9 645.86 179.56 648.23 179.21 650.6 178.87 651.75 186.93 654.22 186.57 656.67 186.2 657.83 194.26 660.22 193.92" stroke="black"/>
<path d="M 725.57 79.13 723.32 81.05 721.3 82.78 719.05 84.7 717.23 86.23 715.86 87.45 715.41 87.79 713.57 89.37 711.75 90.91 709.76 92.6 707.69 93.39 706.21 93.51 705.1 93.6 702.38 93.69 700.29 93.44 697.8 93.57 695.32 93.75 692.92 93.93 690.45 94.18 687.99 94.66 685.64 95.46 683.12 96.15 680.53 96.3 678.14 96.44 675.66 96.58 673.17 96.73 670.78 96.89 668.3 97.05 665.81 97.21 663.42 97.36 660.94 97.53 658.45 97.7 656.07 97.85 653.68 98.06 651.29 98.26 648.8 98.27 646.32 98.41 643.92 98.61 641.45 98.8 638.93 98.97 636.54 99.11 634.04 99.28 629.42 99.58 626.63 99.74 625.39 99.79 620.66 100.08 618.04 100.21 617.83 97.38 617.57 94.2 617.18 89.26 616.83 84.98 616.6 82.19 616.5 80.94 616.37 79.37 616.17 76.87 606.74 77.62 606.28 74.79 606.13 73.65 606.04 72.4 605.96 70.64 605.93 69.99 605.9 69.39 605.83 68.19 605.77 67.59 605.77 66.26 605.67 65.09 605.4 62.44 605.15 59.84 605.12 59.45 604.92 57.21 604.53 54.59 604.15 52.1 605.66 46.4 606.54 43.46 607.3 40.48 608.11 37.51 608.99 34.56 609.8 31.6 603.94 30.01 600.66 29.08 594.62 27.08 589.93 25.53 588.19 24.96 584.54 24.66 583.72 25.32 583.46 25.55 582.67 25.34 581.69 25.53 580.02 20.97 580.56 19.09 579.1 16.91 578.15 15.16 576.92 12.94 572.36 10.7 571.28 12.81 570.03 15.24 568.93 17.38 568.03 19.09 567.81 19.51 566.73 21.66 565.62 23.78 563.74 26.75 562.46 28.79 561.17 30.82 555.15 26.96 549.1 23.11 547.82 25.14 546.53 27.17 545.25 29.2 543.96 31.23 537.77 27.28 536.48 29.32 535.2 31.36 533.9 33.42 532.63 35.42 531.35 37.45 530.06 39.48 528.77 41.51 527.49 43.54 526.21 45.58 524.92 47.61 531.11 51.55 529.32 54.25 528.69 54.92 527.86 56.18 526.36 58.08 524.87 59.96 523.38 61.85 521.89 63.74 520.4 65.62 518.91 67.52 517.42 69.4 515.93 71.29 514.44 73.18 512.95 75.06 511.46 76.95 509.95 78.85 508.46 80.74 506.97 82.63 505.48 84.52 504.01 86.39 502.52 88.29 499.58 92.03 498.03 93.96 496.96 95.32 496.56 95.83 495.07 97.73" stroke="black"/>
<path d="M 478.31 153.82 476.69 153.25 471.15 151.28 466.14 149.49 463.97 148.72 464.81 147.66 466.33 145.77 460.69 141.29 459.21 143.18 453.43 138.58 450.15 136.16 450.86 133.48 451.48 131.66 451.41 130.63 450.69 130.3 450.36 129.86 449.09 132.01 443.8 127.86 445.29 125.97 446.83 124.01 448.38 122.05 449.83 120.21 451.35 118.27 452.85 116.38 454.34 114.5 455.82 112.6 457.31 110.72 458.8 108.83 460.29 106.94 461.77 105.05 463.27 103.16" stroke="black"/>
<path d="M 631.14 390.27 628.64 370.51 626.99 357.59 626.74 356.16 625.59 348.33 625.33 346.81 625.18 345.76 625 344.51 624.39 340.3 623.38 333.28 623.25 332.62 623.12 331.96 622.63 329.36 622.49 328.42 622.34 327.38 624.14 327.15 626.53 326.88 631.96 326.22 633.94 325.92 636.97 325.48 639.64 325.33 644.7 325.34 646.08 325.41 648.53 325.55 649.43 325.53 651.91 325.37 654.75 325.05 656.68 324.93 658.66 324.85 659.07 324.83 660.6 324.76 661.74 324.7 661.61 323.7 661.35 321.84 663.5 324.62 664.7 324.57 666.05 324.51 666.67 324.48 667.86 324.42 669.06 324.35 669.28 324.35 669.73 324.33 670.13 324.32 671.47 324.25 672.79 324.19 673.95 324.14 674.92 324.09 675.89 324.05 676.45 323.99 678.87 323.58 681.33 323.06 680.88 319.54 680.72 318.73 680.59 317.39 678.7 316.67 677.64 310.69 674.61 311.13 672.15 311.48 669.69 311.83 667.33 312.18 664.95 312.52 665.56 316.58 663.2 317.12 660.72 317.69 660.13 313.22 657.48 313.6 655.11 313.94 652.74 314.29 650.37 314.63 647.91 314.98 645.45 315.33 643.38 315.64 642.08 315.82 640.71 316.02 641.14 319 641.26 319.81 641.4 320.75 640.1 320.89 638.99 321 638.77 319.33 638.34 316.37 637.43 309.95 634.85 310.8 631.9 311.78 629.5 312.56 627.12 313.35 626.61 313.54 626.1 313.73 625.82 314.02 625.62 313.89 625.33 313.75 624.99 313.65 624.62 313.6 623.02 313.32 622.17 312.97 619.57 311.95 619.47 311.36 618.51 311.5 617.1 311.7 614.72 312.04 615.1 314.68 612.33 315.08 609.19 315.54 609.04 312.86 606.47 313.23 602.13 313.85 601.77 311.42 601.45 309.14 601.11 306.72 598.75 307.07 596.46 307.39 592.94 307.9 593.37 305.48 593.81 302.95 588.68 303.72 588.32 301.29 590.69 300.95 590.35 298.51 589.66 293.81 587.29 294.15 584.92 294.5 582.55 294.84 580.18 295.19 577.81 295.54 578.16 297.96 578.5 300.25 578.85 302.67 576.48 303.01 574.18 303.35 574.77 307.97 570.98 308.52 571.01 303.78 571.84 296.4 569.23 296.78 567.23 297.09 564.82 297.45 563.32 297.69 563.09 297.5 562.15 297.07 561.77 294.6 561.06 289.75 560.68 289.81 560.28 289.88 558.7 290.11 556.33 290.44 555.61 290.53 554.4 290.7 553.3 290.87 551.64 291.13 549.22 291.48 546.84 291.82 544.35 292.2 544.39 292.45 544.63 294.1 544.88 295.75 545.33 298.88 545.46 300.23 545.74 302.25 545.95 303.64 546.24 305.6 542.87 309.81 536.13 318.25 535.8 317.71 534.8 316.14 534.52 315.63 533.18 313.46 532.47 312.28 531.83 311.23 530.81 309.55 530.64 309.27 529.47 307.37 527.82 304.68 526.7 302.84 529.71 299.34 533.89 294.05 531.98 292.54 530.15 291.08 528.26 289.56 526.35 288.06 524.53 286.61 522.63 285.09 520.81 283.48 519.07 281.91 517.28 280.27 515.47 278.63 520.14 272.72 522.04 274.22 523.94 275.75 525.77 277.2 527.67 278.72 532.19 272.99 533.79 270.97 535.28 269.09 536.76 267.2 538.25 265.31 540.72 267.25 540.1 262.97 539.73 263.43 534.11 258.95 528.41 254.41 522.7 249.88 521.22 251.76 519.73 253.65 518.24 255.53 512.63 251.04 514.11 249.16 515.6 247.28 517.08 245.4 511.45 240.92 512.94 239.03 514.43 237.15 509.38 233.14 503.18 228.18 502.74 228.75 502.32 230.63 501.74 233.19 501.6 233.75 498.25 238.24 500.33 239.7 502.67 241.38 501.72 242.37 506.99 246.57 505.5 248.46 503.9 250.49 505.79 252.01 500.34 258.92 498.34 257.52 495.21 261.49 491.92 265.65 489.91 264.28 484.74 270.82 482.78 269.27 482.07 270.21 481.28 269.56 480.17 268.7 479.45 268.18 479.07 267.91 478.2 267.32 477.25 266.71 476.3 266.15 475.94 265.94 474.78 265.31 471.04 263.61 468.14 262.61 467.02 262.22 463.93 261.15 459.13 259.2 457.39 258.17 456.07 257.62 450.95 255.43 446.08 254.9 437.11 254.77 434.84 254.75 430.57 254.09 428.54 252.81 425.25 250.73 420.53 246.76 418.3 242.7 416.52 239.84 415.71 238.69 414.32 235.44 410.22 231.23 408.16 228.64 406.84 227.01 406.16 225.82 406.02 225.56 404.75 223.06 403.44 220.17 402.72 218.5 402.43 217.39 401.9 215.33 401.44 213.05 400.48 207.23 399.63 200.78 399.1 198.32 398.79 196.88 398.52 195.01 398.08 191.89 398.21 186.59 398.44 182.8 399.03 175.3 399.54 172.78 400.32 168.89 402.49 163.03 403.28 161.02 405.05 156.51 407.61 149.99 411.07 141.18 411.89 139.11 413.1 139.68 414.05 136.5 414.21 136.14 414.54 135.51 414.83 135.05 415.24 134.49 415.63 134.02 416.09 133.53 416.68 133.01 417.22 132.6 417.69 132.29 418.28 131.97 418.78 131.73 419.47 131.45 419.71 131.38 420.74 131.11 423.18 130.78 424.72 130.83 428.99 131.93 430.66 132.97 432.42 134.62 434.21 136.06 436.41 137.47 441.76 142.04 440.9 143.14 447.2 146.49 446.47 148.82 445.64 151.48 444.92 153.85 445.63 154.28 450.8 157.4 451.33 157.71 450.4 160.71 456.74 164.54 459.74 166.34 460.73 166.95 461.72 167.51 462.32 167.88 463.27 168.44 464.02 165.92 464.79 163.46 468.43 166.33 474.06 170.81 475.84 172.23 477.7 170.6 479.48 169.02 481.48 167.27" stroke="black"/>
<path d="M 660.22 193.92 660.77 197.83 658.54 199.18 656.36 201.72 656.46 202.68 655.56 202.53 654.1 203.02 651.7 203.38 649.33 203.72 646.96 204.06 644.41 204.43 641.86 204.81 643 212.86 643.61 217.09 643.84 218.72 645.54 230.43 646.57 237.66 647.76 245.94 650.31 245.58 651.43 253.39 648.88 253.77 646.51 254.1 644.14 254.45 645.29 262.5 642.92 262.83 640.46 263.19 638 263.55 635.63 263.9 636.72 271.5 637.7 278.23 637.75 278.63 636.65 278.79 635.38 278.97 634.35 271.83 631.98 272.18 629.34 272.56 628.25 264.96 625.17 265.4 622.77 265.76 623.86 273.35 621.4 273.73 620.3 266.11 617.84 266.47 616.42 266.67 615.47 266.82 616.57 274.41 614.19 274.75 611.82 275.1 609.45 275.44 606.9 275.8 607.03 276.65 607.94 282.94 610.49 282.58 612.86 282.23 613.86 289.21 616.17 288.5 617.4 297.08 618.43 304.21" stroke="black"/>
<path d="M 463.27 103.16 468.97 107.69 467.38 109.51 467.84 109.88 468.3 110.24 469.94 108.47 474.39 112.01 475.88 110.12 477.37 108.24 478.86 106.36 480.35 104.46 481.84 102.57 483.33 100.69 484.82 98.79 486.31 96.9 487.8 95.02 489.28 93.12 490.75 91.27 492.27 89.33 493.76 87.47 495.24 85.61 496.73 83.7 498.22 81.8 499.71 79.92 501.2 78.03 502.7 76.15 504.19 74.25 505.67 72.37 507.17 70.47 508.65 68.58 510.14 66.69 511.64 64.79 513.13 62.92 514.62 61.03 516.12 59.14 517.6 57.25 519.09 55.36 520.58 53.47 519.95 52.97 515.82 49.69 517.29 47.8 517.81 47.25 517.81 46.32 518.22 45.42 519.02 43.83 520.32 41.82 521.61 39.79 522.89 37.76 524.18 35.73 525.46 33.7 526.75 31.67 528.02 29.65 529.32 27.6 523.29 23.74 524.58 21.71 525.86 19.7 527.1 17.72 528.13 16.07 529.25 15.75 530.27 13.96 531.66 11.89 531.71 11.82 531.75 11.75 532.26 10.86 532.76 9.97 538.32 13.38 540.28 14.64 542.13 11.73 544.03 12.69 546.24 13.84 545.48 15.1 551.68 19.05 557.71 22.9 559.23 20.51 560.33 18.37 561.43 16.23 562.53 14.09 563.63 11.95 564.87 9.51 565.98 7.37 567.09 5.23 568.18 3.1 569.11 1.26 569.25 1 570.77 1.74 577.42 3.53 585.52 5.76 592.89 7.8 597.88 9.19 600.85 10 601.66 7.03 609.61 9.23 608.82 12.2 607.98 15.16 613.79 16.76 614.66 13.82 615.46 10.85 618.24 11.62 617.42 14.58 616.61 17.54 623.51 19.39 622.71 22.32 621.9 25.28 625.22 25.53 632.3 26.04 639.38 26.54 646.47 27.06 646.25 30.06 653.32 30.57 656.13 30.77 660.41 31.09 667.49 31.58 667.71 28.59 674.79 29.09 681.87 29.6 688.95 30.12 696.04 30.63 703.57 31.17 708.7 31.53 710.19 31.64 717.28 32.15 717.44 32.16 722.36 29.5 724.67 28.24 724.79 26.65 725 23.64 725.21 20.64 732.29 21.15 732.11 23.94 732.09 24.19 731.7 24.44 731.86 27.16 731.82 27.57 732.43 27.21 732.76 27.03 735.38 25.6 735.83 25.35 737.14 24.63 739.28 23.4 740.67 22.54 741.24 25.31 742.05 29.49 739.57 29.97 740.43 34.24 742.92 33.76 745.39 33.27 747.75 32.79 750.07 32.35 752.45 31.9 754.17 31.57 754.96 31.41 757.16 30.97 759.52 30.51 760.35 34.78 761.16 39.01 758.81 39.47 756.55 39.92 756.11 40.01 754.1 40.39 753.28 36.15 750.88 36.64 748.56 37.09 749.4 41.35 751.68 40.88 752.66 46.06 753.65 51.22 746.55 52.58 747.58 57.81 748.58 63 746.13 63.47 745.12 58.28 742.83 58.73 740.24 59.24 738 59.68 735.61 60.15 733.25 60.61 730.82 61.09 729.81 55.9 727.37 56.38 726.36 51.21 724.01 51.66 725.01 56.85 722.66 57.31 723.66 62.48 721.23 62.98 720.21 57.78 717.77 58.26 718.78 63.46 716.43 63.91 714.01 64.37 713.24 64.52 714.31 65.84 716.27 68.11 717.15 69.15 720.59 73.17 721 73.7 723.95 77.18 724.94 78.39 725.57 79.13" stroke="black"/>
<path d="M 725.57 79.13 727.2 81.03 729.26 83.35 729.6 84.06 733.5 87.91 734.87 90.13 736.94 92.53 738.93 94.93 736.65 96.87 738.61 99.58 741.34 102.35 744.52 106.11 745.98 107.85 743.95 109.59 741.71 111.5 739.88 113.05 738.06 114.62 735.52 116.78 732.35 119.31 729.95 120.47 727.78 121.62 727.06 121.99 725.64 122.97 723.88 124.44 723.16 125.05 721.97 126.06 720.74 127.11 720.09 127.67 718.31 129.14 716.31 130.59 714.36 132.06 712.4 133.73 711.04 134.9 711.16 136.46 711.48 140.44 711.78 144.23 711.8 144.45 711.91 145.77 712.21 149.54 712.6 154.3 712.83 157.15 713.23 162.34 714.16 173.55 714.37 176.13 714.79 181.34 715.56 189.28 712.84 189.3 710.46 189.5 708.07 189.69 705.59 189.9 703.11 190.1 700.72 190.29 698.24 190.49 695.77 190.7 693.38 190.9 690.82 191.1 688.24 191.31 685.85 191.51 683.37 191.71 683.97 199.13 681.49 199.34 680.89 191.91 678.48 192.09 679.1 199.53 676.62 199.73 676.16 194.02 676.11 193.59 675.08 192.38 671.66 188.17 670.12 190.05 669.74 191.07 665.73 192.68 665.61 193.13 662.58 193.57 660.22 193.92" stroke="black"/>
<path d="M 618.43 304.21 620.8 303.87 621.74 303.73 623.16 303.52 623.95 303.41 625.63 303.17 628.1 302.81 630.52 302.47 633.58 302.02 636.22 301.64 638.6 301.29 640.97 300.96 643.34 300.61 645.8 300.25 648.25 299.9 650.62 299.55 653.01 299.21 653.4 302.06 654.03 306.35 656.38 306.01 659.04 305.62 661.49 305.27 663.86 304.93 666.23 304.59 668.59 304.26 671.07 303.9 670.03 296.73 672.5 296.37 674.87 296.05 677.4 295.68 676.39 288.53 676.27 287.7 675.36 281.4 675.18 280.11 677.5 278.16 679.66 276.34 680.5 275.61 676.61 271.09 675.85 270.12 674.06 267.99 673.67 267.53 673.28 267.08 672.66 266.33 671.22 264.64 667.32 260.05 666.63 259.21 664.3 256.46 664.71 259.68 665.8 267.28 663.34 267.63 660.96 267.98 658.6 268.32 656.23 268.67 655.53 268.77 653.68 269.04 652.59 261.44 655.14 261.07 653.99 253.02 656.36 252.67 655.53 246.08 654.56 244.94 652.6 242.62 649.44 238.99 649.2 237.27 649.05 236.07 648.79 234.37 648.14 230.08 647.84 227.62 647.5 225.3 646.82 220.61 646.17 216.42 646.56 216.02 648.13 214.16 648.39 213.83 649.64 211.91 650.47 211.77 652.86 211.44 655.24 211.09 656.49 210.86 657.36 210.08 662.04 215.65 663.95 214.03 665.77 212.48 667.59 210.92 669.42 209.36 671.26 207.82 675.89 213.31 677.73 211.75 682.37 217.25 687.02 222.75 691.68 228.25 693.88 226.48 696.47 229.47 698.5 231.87 702.3 236.24 703.28 237.43 707.85 242.84 710.45 245.85 711.46 247.08 732.97 273.09 734.07 274.61 736.71 279.98 736.86 280.16 737.65 280.85 740.51 282.03 742.03 283.83 743.39 285.41 746.53 289.13 747.14 289.97 776.9 325.28 792.54 344.3 799 358.88 795.87 359.7 785.06 362.4 753.46 365.78 750.91 366.05 748.26 366.77 713.53 373.92 690.68 378.62 689.03 378.96 687.37 379.31 677.14 381.49 675.49 381.84 675.27 381.89 671.57 382.78 667.4 383.5 645.72 387.28 633.25 389.84 631.14 390.27" stroke="black"/>
<path d="M 631.14 390.27 630.36 390.39 629.88 390.47 629.34 390.55 628.67 390.65 627.03 391 610.32 394.57 609.2 394.81 608.09 395.03 512.52 414.32 412.25 435.32 412.27 434.84 412.44 430.75 412.46 430.34 413.05 416.74 415.16 368.13 415.42 362.26 415.43 361.91 367.8 312.54 364.75 308.25 356.94 297.29 353.81 298.94 340.58 308.95 340.44 309.04 330.31 323.63 325.03 320.89 322.73 319.64 316.01 314.85 309.65 310.61 304.25 306.82 299.85 303.93 299.1 302.7 298.2 300.78 297.27 298.75 296.25 296.72 294.3 293.36 292.52 289.56 291.97 288.11 290.45 292.33 288.22 291.64 286.03 290.94 287.9 284.99 285.44 284.32 285.46 284.11 285.57 283.49 285.74 282.81 285.93 282.26 286.1 281.85 286.37 281.32 286.67 280.81 287.01 280.32 287.38 279.88 287.77 279.47 288.17 279.11 288.61 278.76 289.05 278.46 289.6 278.14 290.09 277.91 290.66 277.68 291.24 277.51 294.61 275.86 296.09 275.32 297.36 275.11 298.52 275.16 301.54 275.37 304.21 275.56 304.5 275.85 307.72 275.9 308.9 276.4 309.33 276.58 310.11 276.91 313.5 278.51 316.14 278.44 319.91 275 320.19 274.51 320.44 274.06 320.76 270.62 319.64 264.63 321.65 264.46 322.48 264.02 323.54 263.47 323.68 263.41 323.96 263.32 324.23 263.29 324.52 263.3 324.79 263.35 325.05 263.37 325.29 263.34 325.56 263.28 325.8 263.17 326.01 263.04 326.13 262.99 326.31 262.88 326.48 262.7 326.6 262.49 326.67 262.26 327.28 260.29 327.45 259.65 327.82 258.29 317.34 253.61 313.43 252.66 310.19 252.2 308.95 252.04 305.9 251.61 300.55 250.4 295.96 250.16 292.63 249.75 287.34 249.09 285.21 247.97 283.13 246.97 281.04 245.87 279.9 247.35 278.06 245.93 276.32 244.57 274.44 243.11 273.32 242.16 272.44 241.41 271.03 239.8 267.94 238.07 261.65 236.06 261.13 235.99 260.2 235.9 259.16 235.83 258.06 235.81 256.9 235.84 255.91 235.91 255.31 235.1 253.98 234.29 249.31 233.76 250.59 233.3 248.87 229.67 250.98 228.64 254.15 227.39 254.63 225.07 255.64 223.06 256.61 218.99 256 214.57 255.19 207.11 254.91 206.96 252.68 205.79 252 205.42 250.12 204.27 252.85 201.34 254.39 199.69 255.87 198.1 258.52 195.25 263.36 190.03 264.78 188.5 269.17 183.75 270.85 181.04 277.69 168.42 275.73 167.61 273.83 167.13 274.44 163.61 268.42 162.69 268 162.66 267.63 162.47 268.44 158.19 268.07 156.42 267.34 155.08 268.42 154.71 269.86 154.51 270.82 154.77 273.13 155.17 272.57 150.92 270.24 150.68 268.63 150.47 266.22 147.16 265.62 144.86 265.01 142.36 264.42 138.17 260.29 138.74 258.57 138.96 255.27 139.2 254.74 134.5 251.14 135.01 249.56 135.15 248.23 135.57 246 136.29 243.78 136.99 242.44 137.42 241.72 137.65 241.51 137.72 239.25 138.43 238.14 138.79 237.02 139.15 235.45 139.41 231.65 140 231.42 140.02 231.18 140.08 230.96 140.2 230.75 140.37 230.55 140.62 230.23 140.96 228.27 141.39 227.09 141.63 226.67 141.69 226.19 141.81 225.78 141.97 225.41 142.15 225.07 142.37 224.91 142.49 225.22 144.61 225.44 146.15 225.79 148.59 226.14 151.06 226.47 153.49 227.48 160.89 227.86 163.56 228.57 168.54 228.16 168.63 226.6 169.02 226.01 169.18 225.53 169.27 223.73 169.71 223.22 169.83 220.6 170.47 215.15 171.82 207.91 172.97 200.7 173.76 194.95 176.74 192.64 177.91 191.4 178.11 190.61 178.24 188.83 178.54 187.3 178.8 185.04 179.17 181.12 179.88 177.04 180.62 174.63 181.06 172.5 181.44 170.39 181.66 169.24 181.78 166.71 181.68 164.08 181.56 160.49 183.65 158.59 185.31 157.73 186.04 156.78 186.8 154.11 188.63 151.45 188.79 143.74 187.62 142.77 187.47 141.42 187.21 139.15 186.77 136.72 186.28 132.27 186.39 131.37 186.49 127.03 196.27 116.47 211.43 115.23 214.71 113.64 220.98 113.4 222.06 112.34 227.53 112.05 228.87 109.41 226.19 108.88 225.65 106.11 222.84 105.13 221.85 102.74 219.42 101.07 217.75 94.59 211.81 83.84 204.34 73.55 199.03 74.17 197.84 71.1 196.13 68.87 194.91 67.4 194.08 66.32 193.46 64.1 192.17 61.68 190.71 59.15 189.13 57.04 187.77 55.08 186.47 52.68 184.84 50.79 183.64 49.96 182.69 41.55 176.66 36.42 172.69 28.8 167.69 28.19 168.56 13.45 158.27 13.16 158.06 12.87 157.86 3.83 151.97 1 150.07 1.27 149.75 2.51 147.51 3.75 145.27 4.2 144.45 4.54 143.85 4.55 143.83 4.66 143.63 4.71 143.57 10.24 136.82 15.82 130 17.89 127.48 19.96 124.96 21.15 123.7 22.33 122.44 22.85 121.88 23.38 121.33 24.78 120.19 24.89 120.09 27.39 118.04 30.3 115.5 41.16 113.88 43.32 114.19 47.09 114.76 50.87 115.31 68.73 117.88 91.5 121.14 91.87 121.19 92.06 121.22 92.35 121.26 97.06 122.04 100.33 122.58 101.04 122.69 101.75 122.81 104.99 123.34 112.47 124.48 123.03 126.08 138.69 128.46 141.71 128.13 142.16 128.03 157.49 124.47 157.72 124.42 162.59 123.29 167.99 123.05 172.54 122.84 177.32 122.55 183.92 122.14 187.66 120.7 188.37 120.43 189.08 120.16 192.76 118.74 196.44 117.31 207.1 113.96 217.75 110.61 223.8 108.7 233.16 108.53 236.43 108.47 248.69 108.24 264.21 107.95 265.31 107.93 271.69 103.87 273.4 102.77 281.5 97.61 283.06 96.62 307.47 96.16 314.75 96.03 322.03 95.89 362.51 96.06 365.37 90.52 365.56 90.06 366.07 89 366.11 88.93 366.19 88.83 368.28 84.46 368.93 82.93 369.48 81.66 370.03 80.4 371.33 77.37 372.63 74.35 373.69 71.91 375.1 68.8 375.93 66.99 375.95 66.93 376.81 65.47 377.74 63.89 378.23 62.82 379.91 59.18 381.55 60.08 386.36 62.52 442.65 98.89 444.11 96.81 446.13 98.53 447.17 97.17 450 99.53 451.37 97.92 442.21 90.02 455.06 75.29 459.93 69.7 464.24 73 469.33 77.16 472.49 79.66 478.23 84.21 476.67 86.17 482.31 90.65 481.09 92.75 475.18 88.06 473.7 89.95 472.22 91.83 470.72 93.73 469.23 95.61 467.74 97.5 466.23 99.39 464.76 101.28 463.27 103.16" stroke="black"/>
</g>
</svg>